<?xml version="1.0" encoding="UTF-8" standalone="no"?>
<svg
   xmlns:dc="http://purl.org/dc/elements/1.1/"
   xmlns:cc="http://creativecommons.org/ns#"
   xmlns:rdf="http://www.w3.org/1999/02/22-rdf-syntax-ns#"
   xmlns:svg="http://www.w3.org/2000/svg"
   xmlns="http://www.w3.org/2000/svg"
   xmlns:sodipodi="http://sodipodi.sourceforge.net/DTD/sodipodi-0.dtd"
   xmlns:inkscape="http://www.inkscape.org/namespaces/inkscape"
   width="512"
   height="512"
   viewBox="0 0 135.46666 135.46667"
   version="1.1"
   id="svg8"
   inkscape:version="1.0beta2 (2b71d25, 2019-12-03)"
   sodipodi:docname="easter-egg-0002.svg">
  <defs
     id="defs2" />
  <sodipodi:namedview
     id="base"
     pagecolor="#ffffff"
     bordercolor="#666666"
     borderopacity="1.0"
     inkscape:pageopacity="0.0"
     inkscape:pageshadow="2"
     inkscape:zoom="1.4"
     inkscape:cx="145.8062"
     inkscape:cy="278.54753"
     inkscape:document-units="mm"
     inkscape:current-layer="layer2"
     inkscape:document-rotation="0"
     showgrid="false"
     units="px"
     inkscape:window-width="1879"
     inkscape:window-height="1003"
     inkscape:window-x="0"
     inkscape:window-y="23"
     inkscape:window-maximized="0" />
  <metadata
     id="metadata5">
    <rdf:RDF>
      <cc:Work
         rdf:about="">
        <dc:format>image/svg+xml</dc:format>
        <dc:type
           rdf:resource="http://purl.org/dc/dcmitype/StillImage" />
        <dc:title></dc:title>
      </cc:Work>
    </rdf:RDF>
  </metadata>
  <g
     inkscape:label="Background"
     inkscape:groupmode="layer"
     id="layer1" />
  <g
     inkscape:groupmode="layer"
     id="layer2"
     inkscape:label="Foreground">
    <path
       d="m 258.01953,17.603516 c -98.46789,0 -180.310546,160.695194 -180.310546,287.894534 0,88.67736 39.783306,145.51043 97.240236,171.80664 0.33293,-5.7105 0.62411,-11.42321 0.84375,-17.14063 0.59028,-7.68094 0.84576,-15.39498 1.76953,-23.04297 0.0196,-0.1622 0.0339,-0.28472 0.0527,-0.44336 -1.41046,-0.77329 -3.27847,-1.76938 -6.08789,-2.97265 0.67574,-2.22868 0.80198,-4.70707 2.02735,-6.6875 4.21639,-6.81456 8.71399,-11.75651 13.71679,-16.45313 1.51759,-7.77805 3.03538,-15.55607 4.55274,-23.33398 3.99544,-14.7745 7.85574,-29.58655 11.82226,-44.36914 0.32688,-2.9261 0.65089,-5.85295 1.00586,-8.77344 -0.25536,-0.23445 -0.50427,-0.46661 -0.73632,-0.69336 -5.24701,10.44922 -13.5923,19.05706 -20.5254,28.48242 -27.92938,37.96928 -21.07324,28.83085 -48.47656,61.41211 -3.13201,2.72164 -5.36515,9.14847 -9.39648,8.16602 -2.65603,-0.64728 -4.5916,-3.36771 -5.5,-6.37891 -0.5056,-0.27754 -0.89113,-0.69136 -1.08789,-1.28125 -0.30096,-0.90227 -0.0511,-1.65066 0.51562,-2.31054 -0.01,-0.67002 0.0329,-1.32207 0.14453,-1.92969 1.47232,-8.01158 8.29378,-14.03171 12.02344,-21.27344 8.63164,-16.75967 16.69918,-33.80414 25.04688,-50.70703 16.96279,-34.34726 25.36381,-51.67784 31.22265,-63.60156 -0.6758,-0.28474 -1.3488,-0.54299 -2.01367,-0.70508 0.39251,-1.24914 0.51543,-1.64511 0.84375,-2.69141 -0.28185,-1.1628 0.39144,-2.39059 1.13867,-3.6289 1.57423,-5.01839 2.80521,-8.87037 3.85742,-12.05274 0.6233,-3.07357 0.93955,-5.22527 1.00782,-7.24609 -1.57859,-4.69981 -1.70848,-8.13964 -2.5586,-14.1875 0.0143,-0.50229 0.0115,-0.74588 0.0215,-1.18946 -1.5965,1.371 -2.28973,1.96077 -4.01367,3.44532 -2.66543,3.55328 -5.47927,7.29081 -8.92969,11.85937 -7.0456,9.32879 -14.58637,18.30578 -22.60938,26.8086 -2.31968,2.45841 -5.64733,8.05307 -8.25,5.89648 -3.131,-2.59438 -4.46814,-5.31216 -4.67578,-8.01758 -0.3442,-0.0878 -0.69598,-0.18641 -1.05469,-0.30273 -1.04351,-0.33839 -0.25165,-0.8266 1.06836,-1.41406 0.62548,-6.82075 7.67924,-13.3774 10.75,-17.45899 3.27213,-3.30019 6.41147,-6.7374 9.81641,-9.90039 2.60874,-2.42336 9.63231,-8.5219 16.5957,-14.52344 20.59822,-27.39561 18.41902,-26.23296 36.15625,-62.07617 1.59774,-6.29893 2.05394,-23.70954 11.60547,-28.58008 0.24639,-1.22888 0.48397,-2.45864 0.71875,-3.68945 0.0928,-1.50757 0.17093,-3.01637 0.27149,-4.52344 0.0461,-0.69028 -0.43988,-2.28215 0.21679,-2.06445 1.90693,0.63222 3.65707,1.62209 5.37891,2.67969 5.6e-4,-2.4e-4 0.001,2.3e-4 0.002,0 -0.40942,-3.74441 -0.76815,-7.51013 -1.01367,-11.43555 -0.24429,-3.90594 -0.35207,-7.8194 -0.45703,-11.73242 -0.069,-0.0298 -0.13448,-0.0518 -0.20898,-0.0918 -0.0759,0.01 -0.15027,0.0222 -0.22852,0.0254 -11.02593,0.4517 -8.93788,-3.39291 -6.36914,-7.60351 -0.0369,-0.0531 -0.0683,-0.0966 -0.10547,-0.15039 -0.29794,-0.43069 -0.15131,-0.79194 0.19727,-1.125 0.0326,-0.38014 0.0658,-0.74814 0.0527,-1.0293 -0.0226,-0.48647 -0.3033,-0.93909 -0.32031,-1.42578 -0.14763,-4.21965 0.0774,-6.482806 0.33203,-10.478519 0.08,-0.719512 -0.29496,-1.672639 0.24023,-2.160156 0.0516,-0.04702 0.10823,-0.09344 0.16016,-0.140625 -0.27435,-0.173153 -0.53015,-0.368762 -0.75,-0.613281 -0.96419,-1.0724 -1.08896,-2.677686 -1.4707,-4.06836 -0.0881,-0.320855 0.0465,-0.665271 0.082,-0.996093 0.0125,-0.116183 -0.0447,-0.394509 0.0605,-0.34375 0.15239,0.07353 0.11315,0.320819 0.19532,0.46875 0.0202,0.03613 -0.003,-0.08369 -0.004,-0.125 2.22324,-1.782066 4.47064,-3.535703 6.67578,-5.339844 -0.59309,-0.104411 -1.18494,-0.218597 -1.7793,-0.291016 0.8367,-0.01462 1.74543,-0.286166 2.60352,-0.376953 0.13166,-0.109467 0.26726,-0.214173 0.39844,-0.324219 -0.0537,-0.05328 -0.10636,-0.107384 -0.16211,-0.158203 -0.0569,-0.05186 0.23474,0.09896 0.17578,0.148438 -0.004,0.0036 -0.009,0.0062 -0.0137,0.0098 0.10421,0.103371 0.21189,0.202187 0.31836,0.302735 0.38335,0.02458 0.74883,0.112203 1.08008,0.322265 0.35563,0.225525 0.66424,0.456975 0.95117,0.691407 1.07461,-1.295846 2.40817,-1.929473 3.6875,-1.927735 2.70474,0.0037 5.15446,2.818992 4.33789,8.06836 -0.21354,1.372725 -0.34878,2.745297 -0.45313,4.117187 5.18847,-6.076422 10.11202,-12.384233 15.08399,-18.65625 2.80516,-3.482154 5.48069,-7.072152 8.41601,-10.445312 0.33951,-0.390148 0.66363,-0.809428 0.99024,-1.22461 -0.2906,-0.477458 -0.53342,-0.979625 -0.66797,-1.533203 -1.41025,-5.80193 6.87294,-20.949094 8.14258,-23.220703 3.12567,-5.592393 6.49129,-11.027499 10.00976,-16.361328 -8.28015,-2.341441 -16.75788,-3.582031 -25.39453,-3.582031 z m 35.29688,6.941406 c -3.86578,5.720566 -7.59115,11.62401 -11.34571,18.355469 -2.2727,4.07467 -4.27399,8.322446 -5.86132,12.710937 4.47275,-0.887762 5.09834,2.123096 3.65039,8.333984 -0.25017,1.07309 -1.47637,1.600429 -2.9668,1.888672 -0.22422,2.124208 -3.18192,3.052676 -4.5957,4.716797 -2.69354,3.170461 -5.19789,6.49572 -7.79688,9.744141 -7.38271,9.342275 -14.68742,18.739416 -22.87109,27.374998 0.0475,1.01905 0.0965,2.03753 0.13672,3.0586 1.88848,0.31696 2.48468,0.76823 0.043,1.3789 0.19079,5.5026 0.25447,11.01082 0.59766,16.50586 0.30252,4.84393 0.83969,9.73947 1.41797,14.625 1.0377,0.14417 1.61451,0.42486 1.89648,0.88672 0.21233,0.047 0.27975,0.0669 0.50196,0.11523 0.61115,0.13305 -0.20124,1.23992 -0.21485,1.86524 -0.0193,0.88886 0.003,1.673 0.0293,2.39062 0.2848,1.24078 0.60005,2.67111 0.96875,4.14844 4.24437,-4.93089 8.92682,-10.20859 12.70898,-14.47851 -0.63033,-1.72791 2.19148,-3.27366 3.28516,-4.86719 1.73296,-2.525 3.54584,-4.99525 5.33008,-7.48438 0.18166,-0.39155 0.35519,-0.78666 0.54297,-1.17578 1.84978,-3.83311 4.18932,-7.49379 6.90625,-10.85351 0.74585,-1.21737 0.9932,-1.61926 1.76172,-2.875 -0.0298,-0.68408 -0.0549,-1.36907 -0.041,-2.05078 0.0125,-0.60236 1.31738,-1.9756 1.14453,-1.39844 -0.3174,1.0598 -0.62828,2.1234 -0.9414,3.18554 4.16603,-6.80807 8.14459,-13.334049 8.33398,-13.744136 6.24028,-13.51149 8.91259,-28.833324 12.16016,-43.169922 3.67726,-16.233569 4.77268,-21.089704 5.53515,-24.47461 -0.004,-0.0023 -0.009,-0.0036 -0.0137,-0.0059 -0.36224,1.588165 0.39479,-1.744281 -0.002,-0.002 -3.39355,-1.750209 -6.82608,-3.330509 -10.30078,-4.705078 z m -15.71289,86.101558 c -0.0705,0.11524 -0.0916,0.1484 -0.16211,0.26368 0.004,0.0886 7.2e-4,0.17698 0.006,0.26562 0.052,-0.1765 0.10422,-0.35283 0.15625,-0.5293 z m 35.19921,-76.150386 c -1.61448,7.165211 -3.22673,14.330927 -4.85937,21.492187 -3.82892,16.794781 -6.09716,30.424688 -13.37305,46.156249 -0.23146,0.50047 -3.55593,5.95688 -7.20117,11.9043 -1.23203,5.04566 -2.88761,9.99347 -4.74023,14.86328 0.84811,0.75213 1.49564,1.93774 2.08789,3.24219 1.85871,-0.48376 3.47855,-0.50594 4.32812,0.96289 1.10629,1.91265 -0.34308,3.8081 -2.1289,5.71679 -0.56088,1.30143 -1.12452,2.60174 -1.6875,3.90235 0.45561,-0.22607 1.02234,-0.21076 1.72656,0.0976 1.21397,0.53184 2.09824,1.49535 2.73242,2.69532 2.44718,-0.84683 4.93789,-0.97566 6.92969,0.24804 3.28137,2.01599 1.25871,6.05639 -3.0918,10.92969 1.18141,0.0153 2.35457,0.10243 3.51758,0.27539 5.45077,-9.40151 10.17072,-17.51867 10.74414,-18.39453 14.86736,-22.70878 33.1242,-43.102758 46.43164,-66.892578 C 341.48638,56.450907 327.58974,43.755079 312.80273,34.496094 Z m 48.19532,45.693359 c -13.22782,22.647437 -30.66861,42.402997 -45,64.283207 -3.25137,4.96396 -6.15712,10.14178 -9.04883,15.32812 4.63895,1.60928 9.19551,3.51758 13.58594,5.73438 1.96832,-5.3958 3.8296,-10.99961 8.64843,-10.82813 2.46441,0.0877 3.67749,2.07861 4.1875,4.79883 1.32496,-0.69714 2.49674,-0.93575 3.32227,-0.39063 14.47117,-18.06506 29.78015,-39.44971 39.36914,-54.14062 0.30855,-0.47271 0.62911,-0.94243 0.94141,-1.41406 -5.06724,-8.225337 -10.41333,-16.039618 -16.00586,-23.371097 z M 229.77539,84.40625 c -2.54706,0.601133 -4.46932,0.708047 -5.13281,3.257812 0.50567,-0.325277 1.01367,-0.648518 1.5332,-0.951171 -0.0271,-0.331765 -0.0395,-0.619845 0.0801,-0.449219 0.0735,0.104901 0.12703,0.190799 0.19531,0.291016 1.18917,-0.682979 2.40012,-1.330071 3.61524,-1.970704 -0.11082,-0.06921 -0.17095,-0.101568 -0.29102,-0.177734 z m -5.27344,3.958984 c -0.0128,0.08573 -0.0304,0.16365 -0.041,0.253907 -0.38181,3.250576 0.4443,3.104049 1.7539,1.8125 -0.003,-0.247994 -0.007,-0.445737 -0.008,-0.695313 -0.43457,-0.305123 -0.90278,-0.689892 -1.48828,-1.226562 -0.0484,-0.04434 -0.13834,-0.09543 -0.2168,-0.144532 z m 2.86914,9.28125 c -0.0415,0.05885 0.72031,0.663776 1.44532,1 -0.43228,-0.361639 -0.86414,-0.728771 -1.29493,-0.951172 -0.0946,-0.04884 -0.14133,-0.06168 -0.15039,-0.04883 z m 155.33789,15.560546 c -11.8717,17.93553 -30.28106,43.21325 -46.42382,62.26367 29.66172,22.73428 46.74842,48.44934 61.52539,82.38477 11.43874,26.26918 10.69001,21.9932 -2.67969,35.23633 -13.4109,-9.20244 -14.27647,-7.52617 -19.0625,-16.43555 -0.12929,0.22965 -0.33551,0.598 -0.41211,0.73633 -1.25222,1.02324 -2.43724,2.13419 -3.75586,3.07031 -1.07771,0.76509 -2.30814,1.29284 -3.41211,2.01953 -5.16099,3.39723 -14.69762,9.84666 -19.61719,13.96485 -4.70422,3.93791 -4.11996,3.48789 -6.16015,7.52929 -0.61469,0.87011 -1.03091,1.92269 -1.84375,2.61133 -5.69067,4.82114 -10.42108,7.09257 -17.01172,10.58399 -9.44952,5.0059 -19.73541,9.88542 -28.69922,15.83789 -6.21749,4.12876 -12.12549,8.70671 -18.1875,13.06054 -27.09086,22.02016 -15.80688,12.36027 -41.98828,35.59961 -8.92163,7.91909 -17.84111,15.8411 -26.72656,23.80078 -0.72636,0.65068 -1.3931,1.23138 -2.08203,1.83789 -1.20758,5.30627 -2.28492,10.67441 -5.08594,15.25977 -1.94466,3.18344 -4.22826,6.37327 -6.88672,9.12305 0.31527,1.19185 0.59361,2.38875 0.75195,3.5957 0.14797,1.12807 -0.82356,-1.62339 -1.38672,-2.96094 -1.66031,1.63583 -3.46417,3.08899 -5.41601,4.26758 -0.30447,0.85154 -0.60581,1.70619 -0.6875,2.54883 -0.70232,7.24452 -1.06412,14.51831 -1.59571,21.77734 -0.26319,6.85151 -0.63458,13.69701 -1.05273,20.53906 10.073,3.87837 20.62012,6.87526 31.53125,9.00586 7.24973,-7.85785 13.78913,-14.9107 23.22656,-25.00586 -0.13058,-1.51486 0.15841,-3.21267 0.28711,-4.67382 0.10938,-1.24181 1.1842,-2.19416 1.76563,-3.29688 0.0608,-0.11527 0.11642,-0.4783 0.16015,-0.35547 0.37639,1.057 0.71205,2.1257 1.03907,3.19922 0.41443,-0.22443 0.88064,-0.45076 1.3125,-0.67578 -2.59901,-2.76386 -4.83916,-5.6167 -0.0781,-5.41406 l 3.13867,0.13476 c 0.28459,0.57635 0.58609,1.14506 0.89063,1.71289 0.7106,-0.70674 1.42007,-1.41453 2.1289,-2.12304 3.35332,-4.23741 5.73687,-10.23105 10.85938,-11.33008 1.87544,-0.40236 3.57296,1.21539 4.66016,3.32812 1.69952,0.82713 2.90706,2.05962 2.66992,3.62305 -0.85955,5.66665 -7.91037,8.29692 -11.83008,12.47852 -13.25715,14.14282 -20.75276,22.18659 -28.3086,30.35937 9.69692,1.30723 19.63509,1.9707 29.75391,1.9707 98.46792,0 176.27149,-61.69908 176.27149,-188.89843 0,-63.84555 -19.6044,-136.12457 -51.58204,-192.29102 z M 193.56445,432.32617 c 0.21305,-0.2099 0.42638,-0.41921 0.63477,-0.63476 -0.141,-0.53302 -0.29018,-1.06438 -0.44531,-1.59571 -0.118,0.60676 -0.23553,1.21356 -0.35352,1.82032 0.0413,0.0897 0.11517,0.29403 0.16406,0.41015 z m 90.25391,-286.33398 c -0.73994,1.70706 -1.47622,3.41544 -2.21484,5.12304 0.16652,-0.19251 0.32552,-0.38915 0.5,-0.57617 0.4873,-0.52235 1.04358,-1.04285 1.64257,-1.54687 -0.0294,-1.11773 -0.0177,-2.14412 0.0723,-3 z m -38.17188,1.21875 c -0.004,0.0287 -0.007,0.0568 -0.0117,0.0859 0.0639,0.25274 0.1268,0.4774 0.1914,0.75195 -0.0253,-0.23535 -0.0784,-0.46747 -0.17969,-0.83789 z m 13.14063,7.14844 c -1.33688,1.52339 -2.52092,2.89253 -3.80469,4.3789 0.96163,-0.23547 1.88902,-0.43969 2.79297,-0.61914 0.33994,-1.2524 0.67543,-2.50594 1.01172,-3.75976 z m -19.25586,1.32812 c -0.56471,0.12666 -1.27925,0.25663 -1.9375,0.38477 0.44968,1.96123 0.86049,3.93202 1.23437,5.91015 0.44473,-1.66845 1.15224,-3.57104 0.70313,-6.29492 z m 51.83398,11.0957 c -1.74989,0.09 -3.51226,0.26737 -5.27539,0.44336 0.37611,2.22362 0.74575,4.44588 1.13086,6.71289 1.36926,-2.36719 2.71446,-4.68545 4.14453,-7.15625 z m -4.14453,7.15625 c -4.39982,7.60647 -9.85578,17.03855 -9.92773,17.16016 -1.5056,2.49016 -1.05112,1.73738 -2.25977,3.73437 2.91376,3.49035 5.31416,5.94758 7.26563,7.5 1.71931,-2.83927 1.24849,-2.05731 3.73828,-6.17578 1.19412,-2.01821 2.37559,-4.04331 3.55469,-6.07031 -0.50379,-4.86822 -1.40917,-10.48587 -2.3711,-16.14844 z m 2.3711,16.14844 c 1.14805,11.09388 0.17054,18.18345 -7.29297,12.24609 -3.41964,5.6472 -5.92162,9.78375 -7.43555,12.28321 0.43583,-0.48422 0.92239,-0.79155 1.50977,-0.74024 2.72166,0.23777 5.30287,1.39693 7.81836,2.46289 0.32764,0.1388 0.384,1.35892 0.36132,1.00391 -0.79772,-12.4752 -3.72844,-4.49261 12.01172,-16.49219 3.23698,-3.05775 6.55928,-6.03202 9.86328,-9.02344 3.27355,-5.79199 6.131,-10.84692 9.8418,-17.43164 -4.56662,-2.36316 -9.33006,-4.34982 -14.16992,-6.00195 -0.01,0.0169 -0.0195,0.0339 -0.0293,0.0508 -4.17617,7.20434 -8.29149,14.44463 -12.47851,21.64258 z m -14.5586,4.74609 c -0.15517,-0.18587 -0.31647,-0.38431 -0.47461,-0.57617 -0.38563,0.66612 -0.76898,1.33369 -1.15429,2 -0.5758,1.44728 -0.92674,2.34684 -1.44336,3.65039 1.18811,-1.9605 1.42973,-2.36032 3.07226,-5.07422 z m -0.47461,-0.57617 c 0.69166,-1.19472 1.37929,-2.39202 2.07227,-3.58593 -0.38706,0.0708 -0.69442,0.10816 -1.06445,0.17187 -0.37971,0.95102 -0.89204,2.22482 -1.25,3.12305 0.081,0.0988 0.16198,0.19371 0.24218,0.29101 z m 1.00782,-3.41406 c 1.79987,-4.50798 3.60686,-9.03101 5.92773,-14.80273 1.22252,-3.04025 2.92971,-5.91748 4.5625,-8.8125 -1.28423,0.12807 -2.56626,0.23942 -3.8418,0.31054 -4.0686,3.59513 -8.26649,7.19828 -11.83007,10.5 -1.23188,3.143 -2.43565,6.2977 -3.5918,9.47071 0.36827,-0.63546 0.73289,-1.27299 1.10156,-1.90821 1.55074,2.12989 2.9911,4.03619 4.3457,5.76953 1.00703,-0.13272 2.15321,-0.32539 3.32618,-0.52734 z m -5.94336,-12.11328 c -2.41096,2.26451 -4.43515,4.3489 -5.86133,6.17383 -0.56853,1.80433 -1.14655,3.62898 -1.75586,5.51562 0.42775,0.55097 1.21019,0.95124 2.42969,1.16797 0.42119,-0.72855 0.8421,-1.45722 1.26367,-2.18555 1.28647,-3.56574 2.58118,-7.12798 3.92383,-10.67187 z m 67.3789,10.1582 c -1.79213,7.08875 -9.18172,14.61238 -11.3789,17.51758 -15.06904,19.92484 -27.59763,33.05823 -42.43164,47.79102 -9.78358,18.10192 -20.24462,38.27525 -37.88672,73.19531 -1.56989,3.10737 -11.16185,31.61441 -24.35938,53.23633 2.4492,-2.17586 4.89724,-4.35295 7.34766,-6.52735 26.5406,-23.551 15.22819,-13.86667 42.79101,-36.24023 16.69164,-11.94245 16.60706,-12.74063 32.41993,-21.46875 5.11493,-2.82326 10.37339,-5.37789 15.54101,-8.10352 0.63337,-0.33406 11.71682,-6.18069 13.61524,-7.59179 0.59266,-0.44054 0.87353,-1.1899 1.31054,-1.78516 1.00831,-1.62165 1.79864,-3.40186 3.02539,-4.86523 4.12996,-4.92661 10.129,-9.10686 15.22266,-12.72266 3.65327,-2.59332 7.38652,-5.07414 11.12891,-7.53711 1.03073,-0.67835 2.03656,-1.4329 3.18554,-1.88281 0.18788,-0.0736 0.22526,0.33452 0.33789,0.50195 0.41982,-0.71312 0.89709,-1.39487 1.25977,-2.13867 0.92616,-1.89942 1.45624,-3.53029 2.16211,-4.86328 0.0429,-0.22019 0.14618,-0.41332 0.32617,-0.57032 9.6e-4,-0.002 0.003,-0.002 0.004,-0.004 1.37267,-2.20594 3.58389,-3.43451 9.91601,-3.42578 1.69969,0.002 0.80231,3.32705 1.5293,4.86328 11.05965,23.37094 0.30376,-3.34176 8.47461,17.82422 9.09638,6.05204 11.27587,8.71868 -1.5918,-21.38086 -13.12291,-30.69667 -27.30106,-52.71112 -51.94922,-73.82227 z m -13.46679,3.25195 c -0.31882,0.12431 -0.6381,0.24843 -0.91407,0.38086 -0.40269,0.6843 -0.79708,1.37135 -1.17187,2.06446 0.72901,-0.2958 1.41688,-1.19691 2.08594,-2.44532 z m -2.16407,1.15235 c -0.49165,0.41167 -0.75462,0.86441 -0.72656,1.37109 0.0243,0.006 0.048,0.009 0.0723,0.0137 0.21877,-0.46113 0.44003,-0.92047 0.65429,-1.38476 z m -13.70898,16.88476 c -1.4047,2.48582 -3.43081,6.0742 -4.73828,8.39258 2.16232,-2.51762 4.33521,-5.10504 6.52929,-7.8125 -0.61044,-0.14084 -1.2123,-0.33593 -1.79101,-0.58008 z m -85.45508,4.70899 c -0.767,0.65752 -1.53694,1.31207 -2.30469,1.96875 -1.0128,3.11383 -1.74021,5.47843 -2.44922,7.59961 1.74799,-2.40887 3.4736,-4.83482 5.18946,-7.26758 -0.14139,-0.77781 -0.2906,-1.55484 -0.43555,-2.30078 z m 37.75195,24.78125 c -0.81495,1.38235 -0.49903,0.84241 -1.49414,2.5293 -0.3912,0.68304 -0.78263,1.36578 -1.17382,2.04882 1.46403,-1.67793 2.25832,-2.59218 2.66796,-4.57812 z m -4.02343,2.89844 c -0.0498,0.003 -0.12155,0.0777 -0.22071,0.24218 -0.90115,1.49517 -1.09768,3.28588 -1.41406,5.03321 0.21089,-0.23961 0.41902,-0.48197 0.63086,-0.72071 0.24639,-0.32458 0.45617,-0.57519 0.68164,-0.85742 0.2151,-1.58466 0.59695,-3.71406 0.32227,-3.69726 z M 220.91016,243 c -0.0159,0.0285 -0.0309,0.0575 -0.0469,0.0859 0.007,0.007 0.0228,0.0207 0.0293,0.0273 0.006,-0.0377 0.0113,-0.0756 0.0176,-0.11328 z m -3.2793,10.94141 c -0.4344,1.67781 -0.95626,3.59874 -1.46484,5.48437 0.66266,-1.49172 1.496,-3.38188 2.15429,-4.84766 -0.22992,-0.21248 -0.45979,-0.4238 -0.68945,-0.63671 z m 23.04297,22.22461 c -0.005,0.0122 -0.0122,0.0231 -0.0176,0.0351 0.007,-0.009 0.016,-0.0168 0.0234,-0.0254 -0.002,-0.003 -0.004,-0.007 -0.006,-0.01 z m 1.78906,2.29882 c -0.24811,0.5663 -0.49866,1.13324 -0.74805,1.70313 l 1.30469,-1.17188 c -0.18793,-0.16779 -0.37491,-0.34048 -0.55664,-0.53125 z m -44.03125,6.51172 c -32.11382,62.09061 -26.23445,56.37942 -55.26562,112.89649 9.33698,-11.0707 12.36531,-15.17604 29.61328,-38.62891 -0.0555,-0.0853 -0.10884,-0.17052 -0.16407,-0.25586 -2.31691,0.15704 -4.75359,0.0562 -6.95312,0.46484 4.14695,-10.19888 1.78828,-4.75599 12.17187,-23.58984 3.82428,-6.93651 7.6966,-13.84466 11.58399,-20.74609 2.5067,-8.29987 5.63142,-18.70652 9.01367,-30.14063 z m 13.66211,15.54102 c -8.51788,14.30149 -8.60491,14.3046 -4.57227,7.3457 -2.59374,4.4352 -0.75702,1.30753 -4.63281,7.92969 -0.111,0.18965 -0.22294,0.37873 -0.33398,0.56836 -0.81506,2.27107 -1.60537,4.55488 -2.40235,6.83594 0.13204,-0.10807 0.27922,-0.21796 0.41407,-0.32618 0.92318,-2.18893 2.58899,-4.49233 4.1875,-7.41992 1.09388,-1.66633 1.76144,-3.71026 3.28125,-5 0.77557,-0.65817 -0.67257,1.92928 -0.84571,2.93164 -0.29214,1.69123 -0.44283,3.42552 -0.55468,5.16992 0.0306,-0.0197 0.0632,-0.0389 0.0937,-0.0586 0.14289,-0.21545 0.2799,-0.43435 0.42187,-0.65039 0.43301,-2.1745 0.91094,-4.34026 1.45703,-6.49219 0.92775,-3.65586 2.08736,-7.29193 3.48633,-10.83398 z m 4.11523,45.03125 c -0.52945,0.0601 -1.27447,0.41184 -2.23242,1.05273 -0.80701,4.31978 -1.58778,8.64223 -2.22265,12.97656 -0.1423,1.1621 -0.28544,2.32423 -0.42774,3.48633 4.63797,-10.00243 7.76851,-17.84308 4.88281,-17.51562 z m -8.40625,21.17578 c -0.70179,2.61973 -1.59619,5.93109 -2.36132,8.7793 0.31081,-0.65072 0.6069,-1.2798 0.91797,-1.92969 0.52657,-2.27635 1.00325,-4.55984 1.44335,-6.84961 z"
       transform="scale(0.26458333)"
       style="fill:#ff00ff;stroke:#aa0000;stroke-width:3;stroke-linejoin:round"
       id="path3283" />
    <path
       inkscape:transform-center-y="-1.1549411e-06"
       inkscape:transform-center-x="2.1953982e-06"
       d="m 180.94147,86.595326 c 3.2219,4.239332 -7.26905,-0.214764 -6.59848,5.067552 0.67058,5.282315 9.71582,-1.651844 7.6554,3.258063 -2.06043,4.909907 -3.44854,-6.40257 -7.68787,-3.180677 -4.23934,3.221893 6.28844,7.588223 1.00613,8.258798 -5.28232,0.670578 3.82052,-6.187806 -1.08939,-8.248229 -4.90991,-2.060423 -3.42737,9.240067 -6.64926,5.000735 -3.2219,-4.239333 7.26905,0.214764 6.59848,-5.067552 -0.67058,-5.282316 -9.71582,1.651843 -7.6554,-3.258064 2.06043,-4.909907 3.44854,6.40257 7.68787,3.180677 4.23934,-3.221892 -6.28844,-7.588223 -1.00613,-8.258798 5.28232,-0.670574 -3.82052,6.187806 1.08939,8.248229 4.90991,2.060423 3.42737,-9.240067 6.64926,-5.000734 z"
       inkscape:randomized="0"
       inkscape:rounded="0.64"
       inkscape:flatsided="false"
       sodipodi:arg2="-0.12627167"
       sodipodi:arg1="-0.64987045"
       sodipodi:r2="0.083924338"
       sodipodi:r1="8.3924332"
       sodipodi:cy="91.673447"
       sodipodi:cx="174.25974"
       sodipodi:sides="6"
       id="path4076"
       style="fill:#f800f7;fill-opacity:0.207843;stroke:#0000ff;stroke-width:0.79375;stroke-linejoin:round"
       sodipodi:type="star" />
    <path
       transform="matrix(0.29959532,0,0,0.28926979,60.962307,73.544234)"
       inkscape:transform-center-x="1.8068932e-06"
       d="m 137.30327,115.5055 c -7.80037,30.69277 -25.91661,-34.626582 -48.018313,-11.94605 -22.101705,22.68053 43.664063,39.10244 13.183153,47.69351 -30.480899,8.59106 17.0292,-39.75773 -13.663571,-47.5581 C 58.11177,95.894483 76.772858,161.06026 54.092327,138.95856 31.411795,116.85685 97.038128,133.82741 88.447064,103.3465 79.856,72.865601 32.751323,121.60947 40.551695,90.916699 48.352067,60.22393 66.468303,125.54328 88.570008,102.86275 110.67171,80.182215 44.905947,63.760301 75.386851,55.169237 105.86775,46.578173 58.357658,94.926968 89.050427,102.72734 119.7432,110.52771 101.08211,45.361932 123.76264,67.463636 c 22.68053,22.101705 -42.945803,5.131152 -34.354739,35.612054 8.591064,30.4809 55.695739,-18.262962 47.895369,12.42981 z"
       inkscape:randomized="0"
       inkscape:rounded="0.64"
       inkscape:flatsided="false"
       sodipodi:arg2="0.77247352"
       sodipodi:arg1="0.24887475"
       sodipodi:r2="0.49913615"
       sodipodi:r1="49.913616"
       sodipodi:cy="103.2111"
       sodipodi:cx="88.927483"
       sodipodi:sides="6"
       id="path4078"
       style="fill:#00daf8;fill-opacity:0.25806451;stroke:#0000ff;stroke-width:0.79375;stroke-linejoin:round"
       sodipodi:type="star" />
    <path
       d="m 2.939964,-3.7417728 c -7.8003666,-3.3914662 10.297209,-5.3773659 5.2376262,-12.2146452 -5.0595827,-6.837279 -12.2490979,9.8892546 -13.2121854,1.438206 -0.9630874,-8.451049 9.80554,6.2289615 13.1970059,-1.571405 3.3914663,-7.800367 -14.6888944,-5.663403 -7.85161529,-10.722986 6.83727909,-5.059582 -0.491669,11.606328 7.95937969,10.64324 8.4510489,-0.963088 -2.4397965,-15.552657 5.3605699,-12.161191 7.800367,3.391466 -10.2972087,5.377366 -5.237626,12.214645 5.059583,6.8372791 12.249098,-9.889254 13.212185,-1.438206 0.963088,8.4510492 -9.80554,-6.228961 -13.1970055,1.571406 -3.3914659,7.8003663 14.6888945,5.663402 7.8516155,10.7229849 -6.8372793,5.05958262 0.491669,-11.6063279 -7.9593799,-10.6432399 -8.45104867,0.963088 2.4397969,15.55265729 -5.3605701,12.1611912 z"
       inkscape:randomized="0"
       inkscape:rounded="0.64"
       inkscape:flatsided="false"
       sodipodi:arg2="2.5045227"
       sodipodi:arg1="1.9809239"
       sodipodi:r2="0.13406163"
       sodipodi:r1="13.406164"
       sodipodi:cy="-16.036164"
       sodipodi:cx="8.2853549"
       sodipodi:sides="6"
       id="path4090"
       style="fill:#aa0000;fill-opacity:1;stroke:#0000ff;stroke-width:0.79375;stroke-linejoin:round"
       sodipodi:type="star" />
    <path
       inkscape:connector-curvature="0"
       id="path4114"
       d="m 74.986585,5.6053545 c 0.305986,0.091525 0.826434,0.5805617 0.917959,0.274575 0.09153,-0.3059866 -1.237342,-0.274575 -0.917959,-0.274575 1.218732,0 1.650866,0.8091141 2.521578,0.8091141 0.674224,0 0.489754,0.2448769 1.069078,0.534539 0.07968,0.039842 0.34794,0.037803 0.267268,0 -0.39806,-0.1865321 -0.825251,-0.3032202 -1.237876,-0.4548304"
       style="fill:none;stroke:#aa0000;stroke-width:0.765;stroke-linecap:butt;stroke-linejoin:miter;stroke-opacity:1;stroke-miterlimit:4;stroke-dasharray:none" />
    <path
       inkscape:connector-curvature="0"
       id="path4116"
       d="m 80.332042,7.7390391 c 3.252237,1.7190963 4.139022,2.0088791 2.430346,1.3880523"
       style="fill:none;stroke:#000000;stroke-width:0.264583px;stroke-linecap:butt;stroke-linejoin:miter;stroke-opacity:1" />
    <path
       inkscape:connector-curvature="0"
       id="path4122"
       d="m 99.74895,27.400395 c 0.9966,1.049174 1.02541,1.759479 1.5462,2.801062 0.11269,0.22538 0.42185,0.309158 0.53454,0.534538 0.15161,0.303231 0.72766,2.213157 -0.57127,-0.783302"
       style="fill:#aa0000;stroke:#aa0000;stroke-width:0.79375;stroke-linecap:butt;stroke-linejoin:miter;stroke-opacity:1;stroke-miterlimit:4;stroke-dasharray:none;fill-opacity:1" />
    <path
       inkscape:transform-center-y="-0.03377666"
       inkscape:transform-center-x="0.31084698"
       style="fill:#aa0000;fill-opacity:1;stroke:#aa0000;stroke-width:0.760242;stroke-linecap:butt;stroke-linejoin:miter;stroke-miterlimit:4;stroke-dasharray:none;stroke-opacity:1"
       d="m 93.720376,18.969371 c 1.054972,0.830901 1.223702,1.553056 1.875282,2.493753 0.14099,0.203549 0.419125,0.213161 0.560116,0.416711 0.189687,0.273861 1.064462,2.092435 -0.641708,-0.663042"
       id="path4124"
       inkscape:connector-curvature="0" />
    <path
       inkscape:transform-center-y="2.130207"
       inkscape:transform-center-x="0.14296203"
       inkscape:connector-curvature="0"
       id="path4126"
       d="m 80.173129,7.6819398 c 1.389317,0.4046913 1.771848,1.003885 2.746246,1.6415886 0.210843,0.137987 0.520138,0.05471 0.73098,0.192696 0.283668,0.185654 1.743022,1.5457776 -0.887967,-0.389133"
       style="fill:#aa0000;fill-opacity:1;stroke:#aa0000;stroke-width:0.79375;stroke-linecap:butt;stroke-linejoin:miter;stroke-miterlimit:4;stroke-dasharray:none;stroke-opacity:1" />
    <path
       style="fill:#aa0000;fill-opacity:1;stroke:#aa0000;stroke-width:0.79375;stroke-linecap:butt;stroke-linejoin:miter;stroke-miterlimit:4;stroke-dasharray:none;stroke-opacity:1"
       d="m 60.994137,129.86268 c -1.418548,0.28583 -2.035356,-0.0676 -3.194379,-0.18061 -0.250797,-0.0245 -0.486191,0.19274 -0.736966,0.16836 -0.337416,-0.0329 -2.261146,-0.56103 0.967169,-0.0671"
       id="path4128"
       inkscape:connector-curvature="0"
       inkscape:transform-center-x="0.85960567"
       inkscape:transform-center-y="-1.9080217" />
    <path
       inkscape:transform-center-y="-2.1311481"
       inkscape:transform-center-x="0.14375147"
       inkscape:connector-curvature="0"
       id="path4130"
       d="m 50.395949,127.72443 c -1.431076,-0.21448 -1.890605,-0.75688 -2.941818,-1.25793 -0.227452,-0.10847 -0.522769,0.0156 -0.750241,-0.0927 -0.30603,-0.14587 -1.934812,-1.2977 0.932184,0.26637"
       style="fill:#aa0000;fill-opacity:1;stroke:#aa0000;stroke-width:0.79375;stroke-linecap:butt;stroke-linejoin:miter;stroke-miterlimit:4;stroke-dasharray:none;stroke-opacity:1" />
    <path
       transform="scale(0.26458333)"
       inkscape:connector-curvature="0"
       id="path4132"
       d="m 179.60294,476.30209 -2.72027,-1.32278 0.34228,-7.86427 c 0.41819,-9.60856 1.76484,-28.82886 2.08408,-29.7454 0.42536,-1.22126 -0.70582,-2.46138 -3.23926,-3.55124 l -2.50568,-1.07792 0.52094,-1.89714 c 0.28652,-1.04343 0.81772,-2.47399 1.18044,-3.17903 1.18387,-2.30114 6.33217,-8.73762 10.08445,-12.60771 l 3.67274,-3.78807 2.10161,-11.11168 c 1.26625,-6.69493 4.52027,-20.22095 8.18648,-34.02885 6.70951,-25.26971 8.0306,-32.40887 6.23954,-33.71853 -1.77771,-1.29989 -2.59479,-0.79515 -4.81009,2.97135 -2.6744,4.54707 -6.08081,9.3118 -11.10352,15.53109 -2.13129,2.63903 -9.17398,11.95769 -15.65045,20.70813 -13.93433,18.82688 -17.83031,23.76384 -30.84092,39.08142 -5.39797,6.35512 -11.0775,13.17365 -12.62118,15.15229 -3.99821,5.1248 -5.49707,5.04773 -8.46684,-0.43537 l -1.40703,-2.5978 0.81068,-3.25064 c 1.01626,-4.07504 1.66648,-5.29367 6.98645,-13.09374 4.54268,-6.66043 5.72617,-8.99589 43.25772,-85.36379 9.07878,-18.47316 16.85761,-34.44797 17.28631,-35.49956 0.70307,-1.72463 0.70278,-1.99686 -0.003,-2.77792 -0.95481,-1.05675 -0.84279,-1.59444 2.29232,-11.00338 2.77722,-8.33484 3.5038,-13.03819 2.5747,-16.6666 -0.59009,-2.30447 -1.23523,-6.28988 -1.91071,-11.80355 -0.24612,-2.00894 -0.87823,-3.03101 -1.88844,-3.05346 -1.10336,-0.0245 -5.82245,5.06525 -10.90659,11.76327 -8.09206,10.66076 -12.28661,15.83068 -18.90082,23.2959 -3.13771,3.5414 -6.8985,7.83045 -8.35731,9.5312 -3.68834,4.30004 -3.99412,4.41416 -5.99045,2.23579 -2.9693,-3.24007 -3.15737,-6.64673 -0.64002,-11.59351 2.84012,-5.58106 15.32932,-18.75293 28.53575,-30.09554 6.14763,-5.28002 7.11909,-6.37308 13.4561,-15.14057 9.27899,-12.83781 11.35792,-16.39247 21.09222,-36.06474 l 8.4212,-17.01859 1.15636,-6.72 c 1.97309,-11.46617 4.42051,-17.24325 8.56358,-20.21409 1.96289,-1.40751 2.53745,-2.93779 2.55084,-6.79391 0.0103,-2.95378 0.33548,-3.20988 2.54293,-2.00249 1.78794,0.97793 2.04269,1.00432 2.76202,0.2862 0.68039,-0.67926 0.72191,-1.42903 0.29374,-5.3033 -0.27426,-2.48172 -0.63562,-7.69419 -0.80303,-11.58328 -0.42959,-9.98027 -0.0368,-9.16533 -4.55728,-9.45543 -2.10217,-0.13492 -4.03643,-0.4596 -4.29836,-0.72154 -0.29827,-0.29826 -0.0794,-1.22251 0.58568,-2.47324 0.90557,-1.70295 1.05193,-2.79583 0.994,-7.42221 l -0.0679,-5.425217 1.24469,0.56712 c 1.54594,0.704337 2.82442,0.262077 2.82442,-0.977014 0,-1.024088 -1.97723,-3.134352 -2.93675,-3.134352 -0.76855,0 -0.80245,-3.855126 -0.038,-4.327549 0.31716,-0.196015 0.44834,-1.039205 0.30199,-1.941069 -0.2324,-1.432103 -0.058,-1.710042 1.71211,-2.728791 1.4457,-0.832042 1.97085,-1.463827 1.97085,-2.37106 0,-1.126325 0.10957,-1.186854 1.22693,-0.677752 1.01917,0.464362 1.45836,0.376994 2.5935,-0.515905 1.80648,-1.420972 3.04254,-1.356988 4.0697,0.210657 0.68554,1.046271 0.78468,2.033503 0.53254,5.30321 -0.1704,2.209694 -0.17898,4.358586 -0.019,4.775325 0.44414,1.157397 2.29604,0.903096 3.44671,-0.473297 0.56598,-0.677055 6.14298,-7.614954 12.3933,-15.417555 l 11.36422,-14.186552 0.0339,-3.901613 c 0.0204,-2.35195 0.38761,-4.904657 0.92439,-6.426994 1.67982,-4.764101 6.42072,-14.147806 11.01409,-21.800281 l 4.59678,-7.658144 1.81693,0.250227 c 2.38554,0.328539 4.59484,1.179848 4.59484,1.77053 0,0.259332 -0.88485,1.774511 -1.96634,3.367063 -3.2618,4.803224 -9.65518,16.20876 -11.73597,20.936534 -2.71273,6.163578 -2.5657,7.427219 0.86417,7.427219 1.11345,0 1.22138,0.20378 1.22138,2.306047 0,2.400204 -0.67903,4.259945 -1.55541,4.259945 -0.79252,0 -7.51663,6.905407 -10.81994,11.111678 -7.79461,9.925269 -15.4881,19.394782 -19.41467,23.896501 -2.37761,2.725879 -4.93049,5.680579 -5.67306,6.565989 l -1.35013,1.60985 0.44301,11.56163 c 0.4677,12.20626 1.36452,23.03174 2.06529,24.93013 0.23072,0.62504 0.79254,1.13643 1.24849,1.13643 0.61717,0 0.76581,0.3305 0.58173,1.29348 -0.29479,1.54212 1.07475,7.38814 1.85458,7.91642 0.30127,0.2041 0.82195,0.37456 1.15707,0.37881 0.81259,0.0103 14.29045,-15.34064 14.29045,-16.27647 0,-0.40251 0.47942,-1.1648 1.06539,-1.69399 1.69637,-1.53201 6.67415,-8.71146 8.80316,-12.69678 1.07343,-2.00937 2.93616,-4.96407 4.1394,-6.566 3.74361,-4.98406 12.14932,-19.368383 13.99724,-23.95287 3.0384,-7.537935 5.07557,-15.131509 10.33346,-38.518067 2.80543,-12.47828 5.1995,-22.786502 5.32016,-22.907162 0.12066,-0.120659 1.47883,0.656543 3.01816,1.727115 1.78767,1.243287 2.71747,2.220199 2.57371,2.70411 -0.12379,0.416688 -1.95121,8.485282 -4.06093,17.930208 -7.5874,33.967683 -9.93647,41.24066 -17.1296,53.035186 -2.39592,3.92857 -4.03477,7.26039 -4.55082,9.25187 -0.44356,1.71177 -1.48258,5.02783 -2.30892,7.36903 -0.82634,2.34121 -1.50244,4.59546 -1.50244,5.00945 0,0.41399 0.60858,1.68225 1.35241,2.81835 1.19245,1.82131 1.58076,2.06563 3.283,2.06563 2.28264,0 2.48567,0.7539 0.77166,2.86543 -1.64483,2.02632 -3.06032,5.48829 -2.74188,6.70603 0.17896,0.68432 0.0278,1.03514 -0.446,1.03514 -0.92823,0 -3.31927,5.3997 -3.12563,7.05866 0.22738,1.94805 1.8875,1.87431 3.8708,-0.17193 1.53664,-1.58542 1.66964,-1.96604 1.50708,-4.31311 -0.20864,-3.01245 0.47528,-3.3566 2.15514,-1.08446 1.06275,1.43744 1.20888,1.47908 4.20848,1.19897 2.49257,-0.23276 3.2734,-0.12428 3.9459,0.54823 1.08871,1.0887 0.52664,2.63288 -2.28476,6.27697 -2.64599,3.4297 -2.29767,4.30849 1.7943,4.52684 l 2.82172,0.15057 3.77437,-6.46402 c 9.03362,-15.47108 10.63622,-17.84624 26.39646,-39.12143 12.79515,-17.272552 25.09125,-35.180001 26.12916,-38.053279 0.21869,-0.605394 1.89212,1.327841 3.30664,3.819993 l 1.02148,1.799693 -4.18066,6.534066 c -4.90245,7.662173 -8.83502,13.213137 -21.26767,30.020117 -10.72432,14.49758 -15.26243,20.87201 -19.05751,26.76904 -4.95067,7.69266 -9.0573,15.18521 -8.89603,16.23083 0.12026,0.77968 1.41797,1.53137 5.46104,3.1633 2.91682,1.17732 6.03069,2.52281 6.91972,2.98998 3.1175,1.63819 3.87231,1.25736 5.44308,-2.74626 2.86402,-7.2999 6.90574,-9.31778 8.29033,-4.13904 0.35705,1.33544 0.55243,1.42497 3.23611,1.48286 l 2.85612,0.0616 5.74847,-7.38521 c 10.83961,-13.92594 25.45677,-34.11768 31.39832,-43.37278 1.11117,-1.73085 2.20042,-3.149 2.42056,-3.15143 0.60713,-0.007 3.38972,6.14988 3.0373,6.72012 -5.89027,9.53065 -28.89981,40.64013 -40.51779,54.78108 -2.8015,3.40986 -5.09363,6.60208 -5.09363,7.09381 0,0.5335 2.39199,2.81992 5.93134,5.66953 7.21172,5.80635 17.50955,15.99233 23.62944,23.3728 12.24721,14.76988 21.73442,30.83008 32.27664,54.63874 8.20984,18.54121 8.7502,20.93201 5.53527,24.49056 -1.7814,1.9718 -2.72293,2.21778 -2.72293,0.71139 0,-1.19107 -3.28425,-9.68837 -8.10599,-20.97256 -11.36289,-26.59226 -21.23521,-42.87863 -36.08818,-59.53472 -6.43138,-7.21212 -16.77126,-16.66804 -18.22623,-16.66804 -0.82702,0 -1.29525,0.56532 -1.98711,2.39911 -1.6334,4.32946 -4.03781,7.64738 -19.12426,26.39024 -6.49964,8.07492 -16.0975,18.79729 -24.85285,27.76468 -9.06528,9.28482 -9.16708,9.41404 -12.94356,16.42949 -13.99579,25.99954 -33.88641,65.35562 -36.79105,72.79569 -6.96599,17.84301 -14.32339,33.96874 -19.69354,43.1637 -1.16163,1.98898 -1.99057,4.01483 -1.90089,4.64554 0.38201,2.68639 1.99827,1.62943 14.58347,-9.53692 20.01592,-17.75931 33.84394,-29.05718 47.9525,-39.1785 10.95889,-7.86178 15.99221,-10.89685 31.46556,-18.97364 20.13013,-10.50753 19.83318,-10.31153 23.1654,-15.29024 1.57941,-2.35983 3.85473,-5.16466 5.05627,-6.23296 5.43416,-4.8316 22.68714,-16.83194 25.12305,-17.47439 1.01465,-0.2676 1.81121,-1.34919 3.57806,-4.85841 2.45729,-4.88051 3.13314,-5.44811 7.19734,-6.04456 l 2.39911,-0.35208 v 1.64041 c 0,1.61502 3.57346,9.80609 5.45331,12.50004 0.52927,0.75849 1.50754,2.8375 2.17392,4.62003 1.2274,3.28319 2.72735,4.81223 7.04,7.17653 1.16799,0.64032 1.35437,0.93993 0.84676,1.36121 -0.4882,0.40517 -2.16102,-0.4395 -6.69347,-3.37978 -6.15204,-3.99094 -8.39506,-6.06462 -10.4476,-9.65888 -1.3115,-2.29661 -2.72416,-2.623 -4.21632,-0.97418 -0.52206,0.57687 -4.25066,3.22251 -8.28577,5.87918 -8.19045,5.39251 -17.34268,12.1018 -20.58705,15.09191 -1.17635,1.08415 -2.8895,3.33488 -3.80701,5.00163 -2.26594,4.11635 -6.43993,7.02974 -20.94911,14.62226 -20.70355,10.83396 -25.93093,14.01733 -39.76864,24.21833 -11.12514,8.20131 -28.3155,22.65932 -52.09844,43.81758 -22.32925,19.86499 -24.33945,21.78452 -24.64034,23.52887 -0.18018,1.04461 -1.00789,4.05849 -1.83936,6.69751 -1.81633,5.76489 -6.52893,13.2507 -8.42751,13.38678 -1.36585,0.0979 -1.37667,0.10885 -1.99105,2.01805 -0.27098,0.84204 -1.47977,2.26302 -2.7208,3.19837 -1.22826,0.92573 -2.49382,2.40615 -2.81236,3.28981 -0.61135,1.69591 -1.96519,18.80179 -2.46458,31.14 -0.31366,7.74947 -0.53462,9.61542 -1.13275,9.56586 -0.20305,-0.0168 -1.59331,-0.62584 -3.08946,-1.35338 z m -31.98245,-80.94346 c 1.76778,-2.08344 8.55343,-10.89069 15.07923,-19.57165 8.68707,-11.55601 11.82185,-16.08797 11.70368,-16.92005 -0.14087,-0.99189 -0.52996,-1.16862 -3.05804,-1.38902 l -2.89663,-0.25254 1.24382,-2.67739 c 0.68411,-1.47257 5.77651,-10.79122 11.31645,-20.70813 l 10.07263,-18.03074 4.63386,-15.54781 c 3.81703,-12.80713 4.52191,-15.68271 3.99875,-16.31308 -1.69497,-2.04232 -2.37666,-0.99943 -12.40729,18.98145 -5.36902,10.69499 -13.89335,28.30952 -18.94297,39.14341 -5.04962,10.83389 -13.12274,27.59484 -17.94027,37.24657 -4.81753,9.65173 -8.75914,18.13316 -8.75914,18.84764 0,1.11552 0.19367,1.27646 1.37089,1.13922 0.9861,-0.11496 2.27304,-1.22306 4.58503,-3.94788 z m 59.64382,-19.72043 c 1.04341,-1.71577 2.37992,-8.57025 1.90988,-9.79516 -0.54781,-1.42757 -2.35111,-0.92626 -3.06662,0.85251 -1.16629,2.89938 -2.48839,8.80432 -2.16182,9.65535 0.51815,1.35028 2.2962,0.96842 3.31856,-0.7127 z m 8.11798,-17.27641 c 4.06889,-9.51362 4.56443,-13.61749 1.7302,-14.32884 -1.94342,-0.48777 -4.57584,0.94046 -4.94253,2.68158 -0.68687,3.26143 -2.24694,13.168 -2.33129,14.80399 -0.14695,2.85 -0.0603,3.03045 1.4543,3.03045 1.36487,0 1.58656,-0.3354 4.08932,-6.18718 z m -14.38914,-33.52433 c 0.4523,-0.17357 1.37687,-1.40985 2.05461,-2.7473 1.16542,-2.29984 1.32294,-2.41702 2.90419,-2.16042 2.18854,0.35515 2.58187,-0.19587 3.66248,-5.13078 0.48663,-2.22233 1.66186,-6.39706 2.61161,-9.27717 0.94976,-2.88011 1.60628,-5.5507 1.45895,-5.93465 -0.14734,-0.38394 -0.82163,-0.69808 -1.49843,-0.69808 -0.99577,0 -1.67936,0.74677 -3.58311,3.91434 -1.29391,2.15289 -3.5844,5.9599 -5.08999,8.46003 -1.50558,2.50012 -3.22919,6.02303 -3.83025,7.82868 -0.60105,1.80565 -1.18628,3.5378 -1.30051,3.84922 -0.11423,0.31142 0.16255,0.93645 0.61506,1.38896 0.93911,0.9391 0.8974,0.92851 1.99539,0.50717 z m 42.78333,-43.95689 c 1.35126,-1.22288 1.18313,-3.10814 -0.33904,-3.80169 -0.70395,-0.32074 -1.26269,-1.00128 -1.26269,-1.53795 0,-0.75217 -0.30367,-0.92769 -1.38896,-0.80281 -1.09095,0.12553 -1.42325,0.45783 -1.54878,1.54878 -0.11488,0.99839 0.0654,1.38895 0.64097,1.38895 0.60177,0 0.7221,0.31353 0.48416,1.26156 -0.17415,0.69386 -0.18562,1.603 -0.0255,2.02031 0.3869,1.00826 2.28756,0.96562 3.43982,-0.0772 z m -25.08141,-22.713 c 0.69098,-1.56242 1.25632,-3.23922 1.25632,-3.72623 0,-1.22256 -1.23031,-2.12944 -2.62078,-1.9318 -0.9706,0.13795 -1.31255,0.73246 -2.08363,3.62255 -1.0591,3.96961 -0.89048,4.87625 0.90686,4.87625 1.07528,0 1.48988,-0.46346 2.54123,-2.84077 z m 37.46299,-9.87418 c 0.64294,-0.60401 1.16898,-1.30053 1.16898,-1.54784 0,-0.2473 0.65683,-1.00233 1.45963,-1.67784 1.92551,-1.62021 3.28714,-4.96327 2.56847,-6.3061 -0.84907,-1.5865 -2.36029,-1.19084 -3.46518,0.90726 -0.37833,0.7184 -1.06548,1.13642 -1.86808,1.13642 -1.0041,0 -1.47338,0.4489 -2.24398,2.14657 -0.95902,2.11276 -1.31914,5.44369 -0.65983,6.103 0.6412,0.6412 1.87621,0.33185 3.03999,-0.76147 z m -33.93382,-5.21526 c 0,-1.26111 -0.20254,-1.51523 -1.20765,-1.51523 -1.61676,0 -2.50289,1.40165 -1.58518,2.50742 0.37627,0.45338 1.15859,0.75654 1.73848,0.67368 0.8013,-0.11449 1.05435,-0.5143 1.05435,-1.66587 z m -0.60464,-21.34127 c 2.79469,-3.91342 2.95031,-4.28144 2.54145,-6.01027 -0.65024,-2.7495 -1.72234,-3.1766 -3.86725,-1.5406 -1.39871,1.06686 -2.04315,2.17162 -3.0762,5.27359 -1.81687,5.45556 -1.72503,6.90718 0.41712,6.59353 0.59505,-0.0871 2.2273,-1.8551 3.98488,-4.31625 z m 85.53116,-5.33244 c 4.2455,-5.08737 4.56211,-5.63985 3.77535,-6.58785 -0.99984,-1.20472 -3.51867,-1.56576 -4.51433,-0.64706 -1.47683,1.36269 -5.34432,9.1697 -4.99435,10.08172 0.71356,1.85948 2.57871,0.93336 5.73333,-2.84681 z m -21.28691,-1.99628 v -4.42632 l 2.52538,-1.46364 c 4.41203,-2.5571 8.58988,-5.70916 14.03999,-10.59277 5.23184,-4.688 5.36028,-4.85797 10.40211,-13.76469 2.80767,-4.95995 5.10486,-9.48244 5.10486,-10.04999 0,-0.80456 -0.95958,-1.47314 -4.35531,-3.03455 -2.39541,-1.10145 -6.06476,-2.60951 -8.1541,-3.35124 -4.58936,-1.62926 -3.65117,-2.43697 -9.96229,8.57676 -3.23709,5.64917 -4.62564,7.66445 -4.8512,7.04089 -0.17381,-0.48049 -0.58245,-2.71558 -0.9081,-4.96687 l -0.59209,-4.09325 2.11906,-3.67544 c 2.90121,-5.03208 2.6478,-5.36513 -3.91032,-5.13932 -2.73667,0.0942 -5.43433,0.41507 -5.99479,0.713 -1.20787,0.64206 -13.12146,11.34281 -16.53435,14.85111 -1.63316,1.67881 -2.70626,3.38855 -3.40927,5.43189 -1.33541,3.88144 -1.29657,4.55791 0.33542,5.84162 2.06937,1.62777 3.70319,1.18041 5.12444,-1.40312 l 1.1956,-2.17337 1.22441,1.66829 c 0.67342,0.91756 1.71179,2.03982 2.30748,2.49391 l 1.08308,0.82561 -1.09742,2.55102 c -0.60358,1.40305 -1.09742,3.13391 -1.09742,3.84634 0,1.07756 0.2335,1.29449 1.38896,1.29038 1.05598,-0.004 1.63294,-0.43034 2.40665,-1.77939 l 1.0177,-1.77443 2.35758,2.41072 2.35758,2.41074 -3.50071,5.80838 c -1.92539,3.1946 -3.50109,6.08448 -3.50154,6.42195 -0.002,1.02186 1.96643,1.82697 2.79159,1.14214 0.89582,-0.74346 7.06945,1.1844 7.51554,2.34691 0.1729,0.45054 0.76344,0.6998 1.4328,0.60475 1.0826,-0.15373 1.13868,-0.37968 1.13868,-4.58802 z m 37.72321,-19.43852 c 1.59438,-1.71116 1.92279,-2.64361 1.33418,-3.78808 -1.36488,-2.65377 -6.88949,1.56005 -5.79268,4.41829 0.48737,1.27006 3.02168,0.91183 4.4585,-0.63021 z m -82.80637,-33.37229 c 0.23765,-0.92331 0.36443,-2.96887 0.28173,-4.54568 l -0.15036,-2.86694 -1.98262,0.0655 c -2.911,0.0961 -3.38612,1.02375 -2.50241,4.88577 1.01776,4.44788 1.03635,4.47912 2.55893,4.30023 1.06532,-0.12516 1.45693,-0.52639 1.79473,-1.83884 z m 16.59321,-1.60888 c 1.50564,-0.41824 1.91416,-0.83626 2.39912,-2.4549 0.8091,-2.70056 0.73048,-4.44744 -0.21655,-4.81084 -1.08613,-0.41679 -1.78708,0.0503 -4.20495,2.80219 -3.4866,3.96822 -2.67141,5.76741 2.02238,4.46355 z"
       style="fill:#ffd42a;fill-opacity:1;stroke:#aa0000;stroke-width:1.51523;stroke-linejoin:round;stroke-miterlimit:4;stroke-dasharray:none;stroke-opacity:1" />
    <path
       transform="scale(0.26458333)"
       inkscape:connector-curvature="0"
       id="path4134"
       d="m 221.9036,488.86425 c -1.26841,-0.3041 -0.84819,-0.83891 8.96511,-11.40993 9.66121,-10.4072 10.29589,-11.2099 10.29589,-13.02157 0,-1.39383 0.24577,-2.00966 0.88388,-2.21471 4.06825,-1.30731 4.55633,-2.18081 2.60123,-4.65537 l -1.06057,-1.34235 1.07582,-0.1634 c 0.65634,-0.0997 1.4518,0.29419 2.0401,1.01015 0.90996,1.10745 1.04371,1.13008 2.37448,0.40184 0.77561,-0.42445 2.77813,-2.73589 4.45005,-5.13654 3.71576,-5.33536 4.97985,-6.71078 6.89774,-7.5052 1.41918,-0.58784 1.58558,-0.51056 3.73819,1.73603 1.23909,1.29319 2.25289,2.78439 2.25289,3.31378 0,1.40264 -2.14888,3.73671 -6.51149,7.07264 -2.3489,1.79612 -9.14352,8.64784 -17.47963,17.62653 l -13.63706,14.68825 -2.77792,-0.0405 c -1.52786,-0.0223 -3.37678,-0.18412 -4.10871,-0.3596 z"
       style="fill:#ffd42a;fill-opacity:1;stroke:#aa0000;stroke-width:1.51523;stroke-linejoin:round;stroke-miterlimit:4;stroke-dasharray:none;stroke-opacity:1" />
    <path
       transform="scale(0.26458333)"
       inkscape:connector-curvature="0"
       id="path4136"
       d="m 285.47241,202.43923 c -0.45141,-0.22253 -0.82075,-0.49638 -0.82075,-0.60856 0,-0.11218 0.82391,-1.57849 1.83091,-3.25848 1.81085,-3.02107 1.83179,-3.04422 1.9122,-2.11463 0.11848,1.36978 -0.38747,4.76715 -0.84038,5.64298 -0.43984,0.85056 -0.89381,0.92441 -2.08198,0.33869 z"
       style="fill:#ffd42a;fill-opacity:1;stroke:#aa0000;stroke-width:0.757614;stroke-linejoin:round;stroke-miterlimit:4;stroke-dasharray:none;stroke-opacity:1" />
    <path
       transform="scale(0.26458333)"
       inkscape:connector-curvature="0"
       id="path4138"
       d="m 282.12628,178.96097 c 0,-0.40959 2.342,-5.60309 2.7768,-6.15768 l 0.49497,-0.63135 0.006,0.79565 c 0.004,0.51914 -0.52813,1.72585 -1.53027,3.4724 -1.41296,2.46251 -1.74711,2.94466 -1.74711,2.52098 z"
       style="fill:#ffd42a;fill-opacity:1;stroke:#aa0000;stroke-width:0.757614;stroke-linejoin:round;stroke-miterlimit:4;stroke-dasharray:none;stroke-opacity:1" />
    <path
       transform="scale(0.26458333)"
       inkscape:connector-curvature="0"
       id="path4140"
       d=""
       style="fill:#ffd42a;fill-opacity:1;stroke:#aa0000;stroke-width:0.757614;stroke-linejoin:round;stroke-miterlimit:4;stroke-dasharray:none;stroke-opacity:1" />
    <path
       sodipodi:type="star"
       style="fill:#00daf8;fill-opacity:0.258065;stroke:#0000ff;stroke-width:0.79375;stroke-linejoin:round"
       id="path4142"
       sodipodi:sides="6"
       sodipodi:cx="88.927483"
       sodipodi:cy="103.2111"
       sodipodi:r1="49.913616"
       sodipodi:r2="0.49913615"
       sodipodi:arg1="0.24887475"
       sodipodi:arg2="0.77247352"
       inkscape:flatsided="false"
       inkscape:rounded="0.64"
       inkscape:randomized="0"
       d="m 137.30327,115.5055 c -7.80037,30.69277 -25.91661,-34.626582 -48.018313,-11.94605 -22.101705,22.68053 43.664063,39.10244 13.183153,47.69351 -30.480899,8.59106 17.0292,-39.75773 -13.663571,-47.5581 C 58.11177,95.894483 76.772858,161.06026 54.092327,138.95856 31.411795,116.85685 97.038128,133.82741 88.447064,103.3465 79.856,72.865601 32.751323,121.60947 40.551695,90.916699 48.352067,60.22393 66.468303,125.54328 88.570008,102.86275 110.67171,80.182215 44.905947,63.760301 75.386851,55.169237 105.86775,46.578173 58.357658,94.926968 89.050427,102.72734 119.7432,110.52771 101.08211,45.361932 123.76264,67.463636 c 22.68053,22.101705 -42.945803,5.131152 -34.354739,35.612054 8.591064,30.4809 55.695739,-18.262962 47.895369,12.42981 z"
       inkscape:transform-center-x="-1.4202471e-06"
       transform="matrix(-0.22865403,0,0,0.22589793,63.423309,21.258805)" />
  </g>
</svg>
