<?xml version="1.0" encoding="UTF-8" standalone="no"?>
<svg
   xmlns:dc="http://purl.org/dc/elements/1.1/"
   xmlns:cc="http://creativecommons.org/ns#"
   xmlns:rdf="http://www.w3.org/1999/02/22-rdf-syntax-ns#"
   xmlns:svg="http://www.w3.org/2000/svg"
   xmlns="http://www.w3.org/2000/svg"
   xmlns:sodipodi="http://sodipodi.sourceforge.net/DTD/sodipodi-0.dtd"
   xmlns:inkscape="http://www.inkscape.org/namespaces/inkscape"
   width="512"
   height="512"
   viewBox="0 0 135.46666 135.46667"
   version="1.1"
   id="svg8"
   inkscape:version="1.0beta2 (2b71d25, 2019-12-03)"
   sodipodi:docname="easter-egg-0001.svg">
  <defs
     id="defs2" />
  <sodipodi:namedview
     id="base"
     pagecolor="#ffffff"
     bordercolor="#666666"
     borderopacity="1.0"
     inkscape:pageopacity="0.0"
     inkscape:pageshadow="2"
     inkscape:zoom="0.98994949"
     inkscape:cx="220.28169"
     inkscape:cy="257.54896"
     inkscape:document-units="mm"
     inkscape:current-layer="layer2"
     inkscape:document-rotation="0"
     showgrid="false"
     units="px"
     inkscape:window-width="1600"
     inkscape:window-height="854"
     inkscape:window-x="0"
     inkscape:window-y="23"
     inkscape:window-maximized="0" />
  <metadata
     id="metadata5">
    <rdf:RDF>
      <cc:Work
         rdf:about="">
        <dc:format>image/svg+xml</dc:format>
        <dc:type
           rdf:resource="http://purl.org/dc/dcmitype/StillImage" />
        <dc:title></dc:title>
      </cc:Work>
    </rdf:RDF>
  </metadata>
  <g
     inkscape:label="Background"
     inkscape:groupmode="layer"
     id="layer1" />
  <g
     inkscape:groupmode="layer"
     id="layer2"
     inkscape:label="Foreground">
    <path
       sodipodi:nodetypes="sssss"
       inkscape:connector-curvature="0"
       d="m 114.37186,82.967693 c 0,33.654827 -20.585562,49.979397 -46.63853,49.979397 -26.052969,0 -47.707612,-16.32457 -47.707612,-49.979397 0,-33.654824 21.654643,-76.1718136 47.707612,-76.1718136 26.052968,2.1e-6 46.63853,42.5169906 46.63853,76.1718136 z"
       style="fill:#ff00ff;stroke:#aa0000;stroke-width:0.79375;stroke-linejoin:round"
       id="path3224" />
    <g
       transform="matrix(-1,0,0,1,136.57472,2.9399649)"
       id="g3288">
      <ellipse
         ry="11.22532"
         rx="11.358955"
         cy="37.150471"
         cx="53.052998"
         id="ellipse3229"
         style="fill:#000000;fill-opacity:1;stroke:#aa0000;stroke-width:0.79375;stroke-linejoin:round" />
      <ellipse
         style="fill:#e6e6e6;fill-opacity:1;stroke:#aa0000;stroke-width:0.79375;stroke-linejoin:round"
         id="path3245"
         cx="55.191154"
         cy="38.486809"
         rx="5.4790254"
         ry="5.3453903" />
      <ellipse
         style="fill:#1a1a1a;fill-opacity:1;stroke:#0079aa;stroke-width:0.79375;stroke-linejoin:round;stroke-opacity:1"
         id="path3247"
         cx="55.725697"
         cy="39.422253"
         rx="1.7372519"
         ry="2.0045214" />
    </g>
    <g
       transform="translate(0.80180858,33.408691)"
       id="g3296">
      <g
         id="g3292">
        <ellipse
           ry="11.22532"
           rx="11.358955"
           cy="64.144691"
           cx="40.22406"
           id="ellipse3290"
           style="fill:#ffff00;stroke:#aa0000;stroke-width:0.79375;stroke-linejoin:round" />
      </g>
      <path
         d="m 39.823158,64.946495 c 0.361813,0.388613 -0.345337,0.679445 -0.645901,0.601357 -0.814508,-0.211613 -0.908935,-1.26795 -0.556813,-1.893159 0.629865,-1.118351 2.164588,-1.197191 3.140417,-0.512269 1.432068,1.005151 1.494499,3.073573 0.467725,4.387674 -1.368527,1.751491 -3.986965,1.795694 -5.634932,0.423182 -2.073798,-1.727166 -2.098905,-4.902463 -0.378638,-6.88219 2.083474,-2.397713 5.81915,-2.403286 8.129448,-0.334094 2.722606,2.438471 2.7084,6.736576 0.28955,9.376705 -2.792658,3.048134 -7.654497,3.014006 -10.623963,0.245007 -3.374095,-3.146312 -3.319952,-8.572765 -0.200463,-11.871221 3.499596,-3.700368 9.491287,-3.626148 13.118479,-0.155919 4.02687,3.852612 3.93253,10.409999 0.111375,14.365736"
         sodipodi:t0="0"
         sodipodi:argument="-18.02846"
         sodipodi:radius="10.59008"
         sodipodi:revolution="3"
         sodipodi:expansion="1"
         sodipodi:cy="64.946495"
         sodipodi:cx="39.823158"
         id="path3294"
         style="fill:none;fill-rule:evenodd;stroke:#800000;stroke-width:0.264583"
         sodipodi:type="spiral" />
    </g>
    <g
       transform="translate(0.80180858,33.408691)"
       id="g3304">
      <g
         id="g3300">
        <ellipse
           ry="11.22532"
           rx="11.358955"
           cy="64.144691"
           cx="40.22406"
           id="ellipse3298"
           style="fill:#ffff00;stroke:#aa0000;stroke-width:0.79375;stroke-linejoin:round" />
      </g>
      <path
         d="m 39.823158,64.946495 c 0.361813,0.388613 -0.345337,0.679445 -0.645901,0.601357 -0.814508,-0.211613 -0.908935,-1.26795 -0.556813,-1.893159 0.629865,-1.118351 2.164588,-1.197191 3.140417,-0.512269 1.432068,1.005151 1.494499,3.073573 0.467725,4.387674 -1.368527,1.751491 -3.986965,1.795694 -5.634932,0.423182 -2.073798,-1.727166 -2.098905,-4.902463 -0.378638,-6.88219 2.083474,-2.397713 5.81915,-2.403286 8.129448,-0.334094 2.722606,2.438471 2.7084,6.736576 0.28955,9.376705 -2.792658,3.048134 -7.654497,3.014006 -10.623963,0.245007 -3.374095,-3.146312 -3.319952,-8.572765 -0.200463,-11.871221 3.499596,-3.700368 9.491287,-3.626148 13.118479,-0.155919 4.02687,3.852612 3.93253,10.409999 0.111375,14.365736"
         sodipodi:t0="0"
         sodipodi:argument="-18.02846"
         sodipodi:radius="10.59008"
         sodipodi:revolution="3"
         sodipodi:expansion="1"
         sodipodi:cy="64.946495"
         sodipodi:cx="39.823158"
         id="path3302"
         style="fill:none;fill-rule:evenodd;stroke:#800000;stroke-width:0.264583"
         sodipodi:type="spiral" />
    </g>
    <g
       transform="translate(27.528761,53.988445)"
       id="g3312">
      <g
         id="g3308">
        <ellipse
           ry="11.22532"
           rx="11.358955"
           cy="64.144691"
           cx="40.22406"
           id="ellipse3306"
           style="fill:#ffff00;stroke:#aa0000;stroke-width:0.79375;stroke-linejoin:round" />
      </g>
      <path
         d="m 39.823158,64.946495 c 0.361813,0.388613 -0.345337,0.679445 -0.645901,0.601357 -0.814508,-0.211613 -0.908935,-1.26795 -0.556813,-1.893159 0.629865,-1.118351 2.164588,-1.197191 3.140417,-0.512269 1.432068,1.005151 1.494499,3.073573 0.467725,4.387674 -1.368527,1.751491 -3.986965,1.795694 -5.634932,0.423182 -2.073798,-1.727166 -2.098905,-4.902463 -0.378638,-6.88219 2.083474,-2.397713 5.81915,-2.403286 8.129448,-0.334094 2.722606,2.438471 2.7084,6.736576 0.28955,9.376705 -2.792658,3.048134 -7.654497,3.014006 -10.623963,0.245007 -3.374095,-3.146312 -3.319952,-8.572765 -0.200463,-11.871221 3.499596,-3.700368 9.491287,-3.626148 13.118479,-0.155919 4.02687,3.852612 3.93253,10.409999 0.111375,14.365736"
         sodipodi:t0="0"
         sodipodi:argument="-18.02846"
         sodipodi:radius="10.59008"
         sodipodi:revolution="3"
         sodipodi:expansion="1"
         sodipodi:cy="64.946495"
         sodipodi:cx="39.823158"
         id="path3310"
         style="fill:none;fill-rule:evenodd;stroke:#800000;stroke-width:0.264583"
         sodipodi:type="spiral" />
    </g>
    <g
       transform="translate(27.528761,53.988445)"
       id="g3320">
      <g
         id="g3316">
        <ellipse
           ry="11.22532"
           rx="11.358955"
           cy="64.144691"
           cx="40.22406"
           id="ellipse3314"
           style="fill:#ffff00;stroke:#aa0000;stroke-width:0.79375;stroke-linejoin:round" />
      </g>
      <path
         d="m 39.823158,64.946495 c 0.361813,0.388613 -0.345337,0.679445 -0.645901,0.601357 -0.814508,-0.211613 -0.908935,-1.26795 -0.556813,-1.893159 0.629865,-1.118351 2.164588,-1.197191 3.140417,-0.512269 1.432068,1.005151 1.494499,3.073573 0.467725,4.387674 -1.368527,1.751491 -3.986965,1.795694 -5.634932,0.423182 -2.073798,-1.727166 -2.098905,-4.902463 -0.378638,-6.88219 2.083474,-2.397713 5.81915,-2.403286 8.129448,-0.334094 2.722606,2.438471 2.7084,6.736576 0.28955,9.376705 -2.792658,3.048134 -7.654497,3.014006 -10.623963,0.245007 -3.374095,-3.146312 -3.319952,-8.572765 -0.200463,-11.871221 3.499596,-3.700368 9.491287,-3.626148 13.118479,-0.155919 4.02687,3.852612 3.93253,10.409999 0.111375,14.365736"
         sodipodi:t0="0"
         sodipodi:argument="-18.02846"
         sodipodi:radius="10.59008"
         sodipodi:revolution="3"
         sodipodi:expansion="1"
         sodipodi:cy="64.946495"
         sodipodi:cx="39.823158"
         id="path3318"
         style="fill:none;fill-rule:evenodd;stroke:#800000;stroke-width:0.264583"
         sodipodi:type="spiral" />
    </g>
    <g
       transform="translate(57.195679,32.339613)"
       id="g3328">
      <g
         id="g3324">
        <ellipse
           ry="11.22532"
           rx="11.358955"
           cy="64.144691"
           cx="40.22406"
           id="ellipse3322"
           style="fill:#ffff00;stroke:#aa0000;stroke-width:0.79375;stroke-linejoin:round" />
      </g>
      <path
         d="m 39.823158,64.946495 c 0.361813,0.388613 -0.345337,0.679445 -0.645901,0.601357 -0.814508,-0.211613 -0.908935,-1.26795 -0.556813,-1.893159 0.629865,-1.118351 2.164588,-1.197191 3.140417,-0.512269 1.432068,1.005151 1.494499,3.073573 0.467725,4.387674 -1.368527,1.751491 -3.986965,1.795694 -5.634932,0.423182 -2.073798,-1.727166 -2.098905,-4.902463 -0.378638,-6.88219 2.083474,-2.397713 5.81915,-2.403286 8.129448,-0.334094 2.722606,2.438471 2.7084,6.736576 0.28955,9.376705 -2.792658,3.048134 -7.654497,3.014006 -10.623963,0.245007 -3.374095,-3.146312 -3.319952,-8.572765 -0.200463,-11.871221 3.499596,-3.700368 9.491287,-3.626148 13.118479,-0.155919 4.02687,3.852612 3.93253,10.409999 0.111375,14.365736"
         sodipodi:t0="0"
         sodipodi:argument="-18.02846"
         sodipodi:radius="10.59008"
         sodipodi:revolution="3"
         sodipodi:expansion="1"
         sodipodi:cy="64.946495"
         sodipodi:cx="39.823158"
         id="path3326"
         style="fill:none;fill-rule:evenodd;stroke:#800000;stroke-width:0.264583"
         sodipodi:type="spiral" />
    </g>
    <g
       transform="translate(57.195679,32.339613)"
       id="g3336">
      <g
         id="g3332">
        <ellipse
           ry="11.22532"
           rx="11.358955"
           cy="64.144691"
           cx="40.22406"
           id="ellipse3330"
           style="fill:#ffff00;stroke:#aa0000;stroke-width:0.79375;stroke-linejoin:round" />
      </g>
      <path
         d="m 39.823158,64.946495 c 0.361813,0.388613 -0.345337,0.679445 -0.645901,0.601357 -0.814508,-0.211613 -0.908935,-1.26795 -0.556813,-1.893159 0.629865,-1.118351 2.164588,-1.197191 3.140417,-0.512269 1.432068,1.005151 1.494499,3.073573 0.467725,4.387674 -1.368527,1.751491 -3.986965,1.795694 -5.634932,0.423182 -2.073798,-1.727166 -2.098905,-4.902463 -0.378638,-6.88219 2.083474,-2.397713 5.81915,-2.403286 8.129448,-0.334094 2.722606,2.438471 2.7084,6.736576 0.28955,9.376705 -2.792658,3.048134 -7.654497,3.014006 -10.623963,0.245007 -3.374095,-3.146312 -3.319952,-8.572765 -0.200463,-11.871221 3.499596,-3.700368 9.491287,-3.626148 13.118479,-0.155919 4.02687,3.852612 3.93253,10.409999 0.111375,14.365736"
         sodipodi:t0="0"
         sodipodi:argument="-18.02846"
         sodipodi:radius="10.59008"
         sodipodi:revolution="3"
         sodipodi:expansion="1"
         sodipodi:cy="64.946495"
         sodipodi:cx="39.823158"
         id="path3334"
         style="fill:none;fill-rule:evenodd;stroke:#800000;stroke-width:0.264583"
         sodipodi:type="spiral" />
    </g>
    <g
       transform="translate(28.0633,13.630746)"
       id="g3344">
      <g
         id="g3340">
        <ellipse
           ry="11.22532"
           rx="11.358955"
           cy="64.144691"
           cx="40.22406"
           id="ellipse3338"
           style="fill:#ffff00;stroke:#aa0000;stroke-width:0.79375;stroke-linejoin:round" />
      </g>
      <path
         d="m 39.823158,64.946495 c 0.361813,0.388613 -0.345337,0.679445 -0.645901,0.601357 -0.814508,-0.211613 -0.908935,-1.26795 -0.556813,-1.893159 0.629865,-1.118351 2.164588,-1.197191 3.140417,-0.512269 1.432068,1.005151 1.494499,3.073573 0.467725,4.387674 -1.368527,1.751491 -3.986965,1.795694 -5.634932,0.423182 -2.073798,-1.727166 -2.098905,-4.902463 -0.378638,-6.88219 2.083474,-2.397713 5.81915,-2.403286 8.129448,-0.334094 2.722606,2.438471 2.7084,6.736576 0.28955,9.376705 -2.792658,3.048134 -7.654497,3.014006 -10.623963,0.245007 -3.374095,-3.146312 -3.319952,-8.572765 -0.200463,-11.871221 3.499596,-3.700368 9.491287,-3.626148 13.118479,-0.155919 4.02687,3.852612 3.93253,10.409999 0.111375,14.365736"
         sodipodi:t0="0"
         sodipodi:argument="-18.02846"
         sodipodi:radius="10.59008"
         sodipodi:revolution="3"
         sodipodi:expansion="1"
         sodipodi:cy="64.946495"
         sodipodi:cx="39.823158"
         id="path3342"
         style="fill:none;fill-rule:evenodd;stroke:#800000;stroke-width:0.264583"
         sodipodi:type="spiral" />
    </g>
    <g
       transform="translate(28.0633,13.630746)"
       id="g3352">
      <g
         id="g3348">
        <ellipse
           ry="11.22532"
           rx="11.358955"
           cy="64.144691"
           cx="40.22406"
           id="ellipse3346"
           style="fill:#ffff00;stroke:#aa0000;stroke-width:0.79375;stroke-linejoin:round" />
      </g>
      <path
         d="m 39.823158,64.946495 c 0.361813,0.388613 -0.345337,0.679445 -0.645901,0.601357 -0.814508,-0.211613 -0.908935,-1.26795 -0.556813,-1.893159 0.629865,-1.118351 2.164588,-1.197191 3.140417,-0.512269 1.432068,1.005151 1.494499,3.073573 0.467725,4.387674 -1.368527,1.751491 -3.986965,1.795694 -5.634932,0.423182 -2.073798,-1.727166 -2.098905,-4.902463 -0.378638,-6.88219 2.083474,-2.397713 5.81915,-2.403286 8.129448,-0.334094 2.722606,2.438471 2.7084,6.736576 0.28955,9.376705 -2.792658,3.048134 -7.654497,3.014006 -10.623963,0.245007 -3.374095,-3.146312 -3.319952,-8.572765 -0.200463,-11.871221 3.499596,-3.700368 9.491287,-3.626148 13.118479,-0.155919 4.02687,3.852612 3.93253,10.409999 0.111375,14.365736"
         sodipodi:t0="0"
         sodipodi:argument="-18.02846"
         sodipodi:radius="10.59008"
         sodipodi:revolution="3"
         sodipodi:expansion="1"
         sodipodi:cy="64.946495"
         sodipodi:cx="39.823158"
         id="path3350"
         style="fill:none;fill-rule:evenodd;stroke:#800000;stroke-width:0.264583"
         sodipodi:type="spiral" />
    </g>
    <g
       transform="translate(53.186636,-0.26726953)"
       id="g3360">
      <g
         id="g3356">
        <ellipse
           ry="11.22532"
           rx="11.358955"
           cy="64.144691"
           cx="40.22406"
           id="ellipse3354"
           style="fill:#ffff00;stroke:#aa0000;stroke-width:0.79375;stroke-linejoin:round" />
      </g>
      <path
         d="m 39.823158,64.946495 c 0.361813,0.388613 -0.345337,0.679445 -0.645901,0.601357 -0.814508,-0.211613 -0.908935,-1.26795 -0.556813,-1.893159 0.629865,-1.118351 2.164588,-1.197191 3.140417,-0.512269 1.432068,1.005151 1.494499,3.073573 0.467725,4.387674 -1.368527,1.751491 -3.986965,1.795694 -5.634932,0.423182 -2.073798,-1.727166 -2.098905,-4.902463 -0.378638,-6.88219 2.083474,-2.397713 5.81915,-2.403286 8.129448,-0.334094 2.722606,2.438471 2.7084,6.736576 0.28955,9.376705 -2.792658,3.048134 -7.654497,3.014006 -10.623963,0.245007 -3.374095,-3.146312 -3.319952,-8.572765 -0.200463,-11.871221 3.499596,-3.700368 9.491287,-3.626148 13.118479,-0.155919 4.02687,3.852612 3.93253,10.409999 0.111375,14.365736"
         sodipodi:t0="0"
         sodipodi:argument="-18.02846"
         sodipodi:radius="10.59008"
         sodipodi:revolution="3"
         sodipodi:expansion="1"
         sodipodi:cy="64.946495"
         sodipodi:cx="39.823158"
         id="path3358"
         style="fill:none;fill-rule:evenodd;stroke:#800000;stroke-width:0.264583"
         sodipodi:type="spiral" />
    </g>
    <g
       transform="translate(53.186636,-0.26726953)"
       id="g3368">
      <g
         id="g3364">
        <ellipse
           ry="11.22532"
           rx="11.358955"
           cy="64.144691"
           cx="40.22406"
           id="ellipse3362"
           style="fill:#ffff00;stroke:#aa0000;stroke-width:0.79375;stroke-linejoin:round" />
      </g>
      <path
         d="m 39.823158,64.946495 c 0.361813,0.388613 -0.345337,0.679445 -0.645901,0.601357 -0.814508,-0.211613 -0.908935,-1.26795 -0.556813,-1.893159 0.629865,-1.118351 2.164588,-1.197191 3.140417,-0.512269 1.432068,1.005151 1.494499,3.073573 0.467725,4.387674 -1.368527,1.751491 -3.986965,1.795694 -5.634932,0.423182 -2.073798,-1.727166 -2.098905,-4.902463 -0.378638,-6.88219 2.083474,-2.397713 5.81915,-2.403286 8.129448,-0.334094 2.722606,2.438471 2.7084,6.736576 0.28955,9.376705 -2.792658,3.048134 -7.654497,3.014006 -10.623963,0.245007 -3.374095,-3.146312 -3.319952,-8.572765 -0.200463,-11.871221 3.499596,-3.700368 9.491287,-3.626148 13.118479,-0.155919 4.02687,3.852612 3.93253,10.409999 0.111375,14.365736"
         sodipodi:t0="0"
         sodipodi:argument="-18.02846"
         sodipodi:radius="10.59008"
         sodipodi:revolution="3"
         sodipodi:expansion="1"
         sodipodi:cy="64.946495"
         sodipodi:cx="39.823158"
         id="path3366"
         style="fill:none;fill-rule:evenodd;stroke:#800000;stroke-width:0.264583"
         sodipodi:type="spiral" />
    </g>
    <g
       transform="translate(6.1471991,-9.8889725)"
       id="g3376">
      <g
         id="g3372">
        <ellipse
           ry="11.22532"
           rx="11.358955"
           cy="64.144691"
           cx="40.22406"
           id="ellipse3370"
           style="fill:#ffff00;stroke:#aa0000;stroke-width:0.79375;stroke-linejoin:round" />
      </g>
      <path
         d="m 39.823158,64.946495 c 0.361813,0.388613 -0.345337,0.679445 -0.645901,0.601357 -0.814508,-0.211613 -0.908935,-1.26795 -0.556813,-1.893159 0.629865,-1.118351 2.164588,-1.197191 3.140417,-0.512269 1.432068,1.005151 1.494499,3.073573 0.467725,4.387674 -1.368527,1.751491 -3.986965,1.795694 -5.634932,0.423182 -2.073798,-1.727166 -2.098905,-4.902463 -0.378638,-6.88219 2.083474,-2.397713 5.81915,-2.403286 8.129448,-0.334094 2.722606,2.438471 2.7084,6.736576 0.28955,9.376705 -2.792658,3.048134 -7.654497,3.014006 -10.623963,0.245007 -3.374095,-3.146312 -3.319952,-8.572765 -0.200463,-11.871221 3.499596,-3.700368 9.491287,-3.626148 13.118479,-0.155919 4.02687,3.852612 3.93253,10.409999 0.111375,14.365736"
         sodipodi:t0="0"
         sodipodi:argument="-18.02846"
         sodipodi:radius="10.59008"
         sodipodi:revolution="3"
         sodipodi:expansion="1"
         sodipodi:cy="64.946495"
         sodipodi:cx="39.823158"
         id="path3374"
         style="fill:none;fill-rule:evenodd;stroke:#800000;stroke-width:0.264583"
         sodipodi:type="spiral" />
    </g>
    <g
       transform="translate(6.1471991,-9.8889725)"
       id="g3384">
      <g
         id="g3380">
        <ellipse
           ry="11.22532"
           rx="11.358955"
           cy="64.144691"
           cx="40.22406"
           id="ellipse3378"
           style="fill:#ffff00;stroke:#aa0000;stroke-width:0.79375;stroke-linejoin:round" />
      </g>
      <path
         d="m 39.823158,64.946495 c 0.361813,0.388613 -0.345337,0.679445 -0.645901,0.601357 -0.814508,-0.211613 -0.908935,-1.26795 -0.556813,-1.893159 0.629865,-1.118351 2.164588,-1.197191 3.140417,-0.512269 1.432068,1.005151 1.494499,3.073573 0.467725,4.387674 -1.368527,1.751491 -3.986965,1.795694 -5.634932,0.423182 -2.073798,-1.727166 -2.098905,-4.902463 -0.378638,-6.88219 2.083474,-2.397713 5.81915,-2.403286 8.129448,-0.334094 2.722606,2.438471 2.7084,6.736576 0.28955,9.376705 -2.792658,3.048134 -7.654497,3.014006 -10.623963,0.245007 -3.374095,-3.146312 -3.319952,-8.572765 -0.200463,-11.871221 3.499596,-3.700368 9.491287,-3.626148 13.118479,-0.155919 4.02687,3.852612 3.93253,10.409999 0.111375,14.365736"
         sodipodi:t0="0"
         sodipodi:argument="-18.02846"
         sodipodi:radius="10.59008"
         sodipodi:revolution="3"
         sodipodi:expansion="1"
         sodipodi:cy="64.946495"
         sodipodi:cx="39.823158"
         id="path3382"
         style="fill:none;fill-rule:evenodd;stroke:#800000;stroke-width:0.264583"
         sodipodi:type="spiral" />
    </g>
    <g
       transform="rotate(116.95538,63.11487,49.311264)"
       id="g3281">
      <g
         id="g3276">
        <ellipse
           style="fill:#ffff00;stroke:#aa0000;stroke-width:0.79375;stroke-linejoin:round"
           id="ellipse3231"
           cx="40.22406"
           cy="64.144691"
           rx="11.358955"
           ry="11.22532" />
      </g>
      <path
         sodipodi:type="spiral"
         style="fill:none;fill-rule:evenodd;stroke:#800000;stroke-width:0.264583"
         id="path3267"
         sodipodi:cx="39.823158"
         sodipodi:cy="64.946495"
         sodipodi:expansion="1"
         sodipodi:revolution="3"
         sodipodi:radius="10.59008"
         sodipodi:argument="-18.02846"
         sodipodi:t0="0"
         d="m 39.823158,64.946495 c 0.361813,0.388613 -0.345337,0.679445 -0.645901,0.601357 -0.814508,-0.211613 -0.908935,-1.26795 -0.556813,-1.893159 0.629865,-1.118351 2.164588,-1.197191 3.140417,-0.512269 1.432068,1.005151 1.494499,3.073573 0.467725,4.387674 -1.368527,1.751491 -3.986965,1.795694 -5.634932,0.423182 -2.073798,-1.727166 -2.098905,-4.902463 -0.378638,-6.88219 2.083474,-2.397713 5.81915,-2.403286 8.129448,-0.334094 2.722606,2.438471 2.7084,6.736576 0.28955,9.376705 -2.792658,3.048134 -7.654497,3.014006 -10.623963,0.245007 -3.374095,-3.146312 -3.319952,-8.572765 -0.200463,-11.871221 3.499596,-3.700368 9.491287,-3.626148 13.118479,-0.155919 4.02687,3.852612 3.93253,10.409999 0.111375,14.365736" />
    </g>
    <path
       id="path3283"
       style="fill:#ff00ff;stroke:#aa0000;stroke-width:0.79375;stroke-linejoin:round"
       d="m -29.419146,80.027728 c 0,33.654832 -20.585562,49.979402 -46.63853,49.979402 -26.052964,0 -47.707614,-16.32457 -47.707614,-49.979402 0,-33.654824 21.65465,-76.1718134 47.707614,-76.1718134 26.052968,2.1e-6 46.63853,42.5169904 46.63853,76.1718134 z"
       inkscape:connector-curvature="0"
       sodipodi:nodetypes="sssss" />
  </g>
</svg>
