<?xml version="1.0" encoding="UTF-8" standalone="no"?>
<svg
   xmlns:dc="http://purl.org/dc/elements/1.1/"
   xmlns:cc="http://creativecommons.org/ns#"
   xmlns:rdf="http://www.w3.org/1999/02/22-rdf-syntax-ns#"
   xmlns:svg="http://www.w3.org/2000/svg"
   xmlns="http://www.w3.org/2000/svg"
   xmlns:sodipodi="http://sodipodi.sourceforge.net/DTD/sodipodi-0.dtd"
   xmlns:inkscape="http://www.inkscape.org/namespaces/inkscape"
   width="512"
   height="512"
   viewBox="0 0 135.46666 135.46667"
   version="1.1"
   id="svg8"
   inkscape:version="1.0beta2 (2b71d25, 2019-12-03)"
   sodipodi:docname="wagon-wheel-0001.svg">
  <defs
     id="defs2">
    <filter
       height="1.024"
       y="-0.012"
       width="1.024"
       x="-0.012"
       id="filter854"
       style="color-interpolation-filters:sRGB"
       inkscape:collect="always">
      <feGaussianBlur
         id="feGaussianBlur856"
         stdDeviation="0.64499998"
         inkscape:collect="always" />
    </filter>
    <filter
       height="1.024"
       y="-0.012"
       width="1.024"
       x="-0.012"
       id="filter858"
       style="color-interpolation-filters:sRGB"
       inkscape:collect="always">
      <feGaussianBlur
         id="feGaussianBlur860"
         stdDeviation="0.21166666"
         inkscape:collect="always" />
    </filter>
    <filter
       height="1.0058023"
       y="-0.0029011582"
       width="1.0313627"
       x="-0.015681341"
       id="filter869"
       style="color-interpolation-filters:sRGB"
       inkscape:collect="always">
      <feGaussianBlur
         id="feGaussianBlur871"
         stdDeviation="0.15664724"
         inkscape:collect="always" />
    </filter>
  </defs>
  <sodipodi:namedview
     id="base"
     pagecolor="#ffffff"
     bordercolor="#666666"
     borderopacity="1.0"
     inkscape:pageopacity="0.0"
     inkscape:pageshadow="2"
     inkscape:zoom="1"
     inkscape:cx="259.05346"
     inkscape:cy="261.68466"
     inkscape:document-units="mm"
     inkscape:current-layer="layer2"
     inkscape:document-rotation="0"
     showgrid="false"
     units="px"
     inkscape:window-width="1440"
     inkscape:window-height="855"
     inkscape:window-x="0"
     inkscape:window-y="23"
     inkscape:window-maximized="0" />
  <metadata
     id="metadata5">
    <rdf:RDF>
      <cc:Work
         rdf:about="">
        <dc:format>image/svg+xml</dc:format>
        <dc:type
           rdf:resource="http://purl.org/dc/dcmitype/StillImage" />
        <dc:title></dc:title>
      </cc:Work>
    </rdf:RDF>
  </metadata>
  <g
     inkscape:label="Background"
     inkscape:groupmode="layer"
     id="layer1" />
  <g
     inkscape:groupmode="layer"
     id="layer2"
     inkscape:label="Foreground">
    <path
       inkscape:transform-center-y="-37.835417"
       inkscape:transform-center-x="0.26458314"
       transform="matrix(0.55424186,0,0,0.27501321,106.54446,44.33989)"
       sodipodi:nodetypes="sssssss"
       inkscape:connector-curvature="0"
       d="m -64.31331,-118.31599 c -2.076244,-1.19874 -9.911028,-1.19874 -11.987274,0 -2.076266,1.19865 -5.993646,61.125503 -5.993646,63.522969 0,2.397458 3.91738,63.0675415 5.993647,64.2662692 2.076245,1.1987288 9.911029,1.1987288 11.987274,0 2.076267,-1.1987287 5.993647,-61.8688132 5.993647,-64.2662712 -10e-7,-2.397465 -3.91738,-62.324317 -5.993648,-63.522967 z"
       style="mix-blend-mode:normal;fill:#a05a2c;stroke:#000000;stroke-width:1.3554;stroke-linejoin:round;stroke-miterlimit:4;stroke-dasharray:none;filter:url(#filter869)"
       id="path866" />
    <path
       id="path875"
       style="mix-blend-mode:normal;fill:#a05a2c;stroke:#000000;stroke-width:1.3554;stroke-linejoin:round;stroke-miterlimit:4;stroke-dasharray:none;filter:url(#filter869)"
       d="m -64.31331,-118.31599 c -2.076244,-1.19874 -9.911028,-1.19874 -11.987274,0 -2.076266,1.19865 -5.993646,61.125503 -5.993646,63.522969 0,2.397458 3.91738,63.0675415 5.993647,64.2662692 2.076245,1.1987288 9.911029,1.1987288 11.987274,0 2.076267,-1.1987287 5.993647,-61.8688132 5.993647,-64.2662712 -10e-7,-2.397465 -3.91738,-62.324317 -5.993648,-63.522967 z"
       inkscape:connector-curvature="0"
       sodipodi:nodetypes="sssssss"
       transform="matrix(0.39190818,0.39190818,-0.19446371,0.19446371,111.37947,78.404791)"
       inkscape:transform-center-x="-26.566758"
       inkscape:transform-center-y="-26.940931" />
    <path
       inkscape:transform-center-y="26.56675"
       inkscape:transform-center-x="-26.940933"
       transform="matrix(-0.39190818,0.39190818,-0.19446371,-0.19446371,56.64591,110.74618)"
       sodipodi:nodetypes="sssssss"
       inkscape:connector-curvature="0"
       d="m -64.31331,-118.31599 c -2.076244,-1.19874 -9.911028,-1.19874 -11.987274,0 -2.076266,1.19865 -5.993646,61.125503 -5.993646,63.522969 0,2.397458 3.91738,63.0675415 5.993647,64.2662692 2.076245,1.1987288 9.911029,1.1987288 11.987274,0 2.076267,-1.1987287 5.993647,-61.8688132 5.993647,-64.2662712 -10e-7,-2.397465 -3.91738,-62.324317 -5.993648,-63.522967 z"
       style="mix-blend-mode:normal;fill:#a05a2c;stroke:#000000;stroke-width:1.3554;stroke-linejoin:round;stroke-miterlimit:4;stroke-dasharray:none;filter:url(#filter869)"
       id="path877" />
    <path
       id="path879"
       style="mix-blend-mode:normal;fill:#a05a2c;stroke:#000000;stroke-width:1.3554;stroke-linejoin:round;stroke-miterlimit:4;stroke-dasharray:none;filter:url(#filter869)"
       d="m -64.31331,-118.31599 c -2.076244,-1.19874 -9.911028,-1.19874 -11.987274,0 -2.076266,1.19865 -5.993646,61.125503 -5.993646,63.522969 0,2.397458 3.91738,63.0675415 5.993647,64.2662692 2.076245,1.1987288 9.911029,1.1987288 11.987274,0 2.076267,-1.1987287 5.993647,-61.8688132 5.993647,-64.2662712 -10e-7,-2.397465 -3.91738,-62.324317 -5.993648,-63.522967 z"
       inkscape:connector-curvature="0"
       sodipodi:nodetypes="sssssss"
       transform="matrix(0,0.55424186,-0.27501322,0,90.710811,105.91118)"
       inkscape:transform-center-x="-37.835419"
       inkscape:transform-center-y="-0.2645807" />
    <path
       id="path881"
       style="mix-blend-mode:normal;fill:#a05a2c;stroke:#000000;stroke-width:1.3554;stroke-linejoin:round;stroke-miterlimit:4;stroke-dasharray:none;filter:url(#filter869)"
       d="m -64.31331,-118.31599 c -2.076244,-1.19874 -9.911028,-1.19874 -11.987274,0 -2.076266,1.19865 -5.993646,61.125503 -5.993646,63.522969 0,2.397458 3.91738,63.0675415 5.993647,64.2662692 2.076245,1.1987288 9.911029,1.1987288 11.987274,0 2.076267,-1.1987287 5.993647,-61.8688132 5.993647,-64.2662712 -10e-7,-2.397465 -3.91738,-62.324317 -5.993648,-63.522967 z"
       inkscape:connector-curvature="0"
       sodipodi:nodetypes="sssssss"
       transform="matrix(-0.55424186,0,0,-0.27501322,29.139525,90.077525)"
       inkscape:transform-center-x="-0.26458707"
       inkscape:transform-center-y="37.835415" />
    <path
       inkscape:transform-center-y="26.940933"
       inkscape:transform-center-x="26.56675"
       transform="matrix(-0.39190818,-0.39190818,0.19446371,-0.19446371,24.304519,56.012628)"
       sodipodi:nodetypes="sssssss"
       inkscape:connector-curvature="0"
       d="m -64.31331,-118.31599 c -2.076244,-1.19874 -9.911028,-1.19874 -11.987274,0 -2.076266,1.19865 -5.993646,61.125503 -5.993646,63.522969 0,2.397458 3.91738,63.0675415 5.993647,64.2662692 2.076245,1.1987288 9.911029,1.1987288 11.987274,0 2.076267,-1.1987287 5.993647,-61.8688132 5.993647,-64.2662712 -10e-7,-2.397465 -3.91738,-62.324317 -5.993648,-63.522967 z"
       style="mix-blend-mode:normal;fill:#a05a2c;stroke:#000000;stroke-width:1.3554;stroke-linejoin:round;stroke-miterlimit:4;stroke-dasharray:none;filter:url(#filter869)"
       id="path883" />
    <path
       id="path885"
       style="mix-blend-mode:normal;fill:#a05a2c;stroke:#000000;stroke-width:1.3554;stroke-linejoin:round;stroke-miterlimit:4;stroke-dasharray:none;filter:url(#filter869)"
       d="m -64.31331,-118.31599 c -2.076244,-1.19874 -9.911028,-1.19874 -11.987274,0 -2.076266,1.19865 -5.993646,61.125503 -5.993646,63.522969 0,2.397458 3.91738,63.0675415 5.993647,64.2662692 2.076245,1.1987288 9.911029,1.1987288 11.987274,0 2.076267,-1.1987287 5.993647,-61.8688132 5.993647,-64.2662712 -10e-7,-2.397465 -3.91738,-62.324317 -5.993648,-63.522967 z"
       inkscape:connector-curvature="0"
       sodipodi:nodetypes="sssssss"
       transform="matrix(0,-0.55424186,0.27501322,0,44.973174,28.506243)"
       inkscape:transform-center-x="37.835415"
       inkscape:transform-center-y="0.26458707" />
    <path
       inkscape:transform-center-y="-26.56675"
       inkscape:transform-center-x="26.940933"
       transform="matrix(0.39190818,-0.39190818,0.19446371,0.19446371,79.038071,23.671237)"
       sodipodi:nodetypes="sssssss"
       inkscape:connector-curvature="0"
       d="m -64.31331,-118.31599 c -2.076244,-1.19874 -9.911028,-1.19874 -11.987274,0 -2.076266,1.19865 -5.993646,61.125503 -5.993646,63.522969 0,2.397458 3.91738,63.0675415 5.993647,64.2662692 2.076245,1.1987288 9.911029,1.1987288 11.987274,0 2.076267,-1.1987287 5.993647,-61.8688132 5.993647,-64.2662712 -10e-7,-2.397465 -3.91738,-62.324317 -5.993648,-63.522967 z"
       style="mix-blend-mode:normal;fill:#a05a2c;stroke:#000000;stroke-width:1.3554;stroke-linejoin:round;stroke-miterlimit:4;stroke-dasharray:none;filter:url(#filter869)"
       id="path887" />
    <path
       inkscape:connector-curvature="0"
       id="path850"
       d="M 67.733328,3.233333 C 32.164884,3.233331 3.2333337,32.16489 3.2333337,67.733336 c 0,35.568444 28.9315503,64.499994 64.4999943,64.499994 35.568442,0 64.500002,-28.93157 64.500002,-64.499994 0,-35.568445 -28.93156,-64.500003 -64.500002,-64.500003 z m 0,9.094129 c 30.653755,0 55.405882,24.752118 55.405882,55.405874 0,30.653758 -24.752127,55.405854 -55.405882,55.405854 -30.653754,1e-5 -55.405874,-24.752096 -55.405874,-55.405854 0,-30.653757 24.75211,-55.405876 55.405874,-55.405874 z"
       style="color:#000000;font-style:normal;font-variant:normal;font-weight:normal;font-stretch:normal;font-size:medium;line-height:normal;font-family:sans-serif;font-variant-ligatures:normal;font-variant-position:normal;font-variant-caps:normal;font-variant-numeric:normal;font-variant-alternates:normal;font-variant-east-asian:normal;font-feature-settings:normal;font-variation-settings:normal;text-indent:0;text-align:start;text-decoration:none;text-decoration-line:none;text-decoration-style:solid;text-decoration-color:#000000;letter-spacing:normal;word-spacing:normal;text-transform:none;writing-mode:lr-tb;direction:ltr;text-orientation:mixed;dominant-baseline:auto;baseline-shift:baseline;text-anchor:start;white-space:normal;shape-padding:0;shape-margin:0;inline-size:0;clip-rule:nonzero;display:inline;overflow:visible;visibility:visible;isolation:auto;mix-blend-mode:normal;color-interpolation:sRGB;color-interpolation-filters:linearRGB;solid-color:#000000;solid-opacity:1;vector-effect:none;fill:#000000;fill-opacity:1;fill-rule:nonzero;stroke:none;stroke-width:9.09386;stroke-linecap:butt;stroke-linejoin:round;stroke-miterlimit:4;stroke-dasharray:none;stroke-dashoffset:0;stroke-opacity:1;color-rendering:auto;image-rendering:auto;shape-rendering:auto;text-rendering:auto;enable-background:accumulate;stop-color:#000000;filter:url(#filter854)" />
    <circle
       r="59.306652"
       cy="-44.072029"
       cx="276.67856"
       id="path831"
       style="fill:#c87137;stroke:#000000;stroke-width:8.99583;stroke-linejoin:round;stroke-miterlimit:4;stroke-dasharray:none" />
    <path
       style="color:#000000;font-style:normal;font-variant:normal;font-weight:normal;font-stretch:normal;font-size:medium;line-height:normal;font-family:sans-serif;font-variant-ligatures:normal;font-variant-position:normal;font-variant-caps:normal;font-variant-numeric:normal;font-variant-alternates:normal;font-variant-east-asian:normal;font-feature-settings:normal;font-variation-settings:normal;text-indent:0;text-align:start;text-decoration:none;text-decoration-line:none;text-decoration-style:solid;text-decoration-color:#000000;letter-spacing:normal;word-spacing:normal;text-transform:none;writing-mode:lr-tb;direction:ltr;text-orientation:mixed;dominant-baseline:auto;baseline-shift:baseline;text-anchor:start;white-space:normal;shape-padding:0;shape-margin:0;inline-size:0;clip-rule:nonzero;display:inline;overflow:visible;visibility:visible;isolation:auto;mix-blend-mode:normal;color-interpolation:sRGB;color-interpolation-filters:linearRGB;solid-color:#000000;solid-opacity:1;vector-effect:none;fill:#c87137;fill-opacity:1;fill-rule:nonzero;stroke:none;stroke-width:2.27525;stroke-linecap:butt;stroke-linejoin:round;stroke-miterlimit:4;stroke-dasharray:none;stroke-dashoffset:0;stroke-opacity:1;color-rendering:auto;image-rendering:auto;shape-rendering:auto;text-rendering:auto;enable-background:accumulate;stop-color:#000000"
       d="m -124.47321,-18.861012 c 0,8.284272 -6.71573,15.000001 -15,15.000001 -8.28427,0 -15,-6.715729 -15,-15.000001 0,-8.284272 6.71573,-15.000001 15,-15 8.28427,0 15,6.715729 15,15"
       id="path840"
       inkscape:connector-curvature="0" />
    <path
       style="color:#000000;font-style:normal;font-variant:normal;font-weight:normal;font-stretch:normal;font-size:medium;line-height:normal;font-family:sans-serif;font-variant-ligatures:normal;font-variant-position:normal;font-variant-caps:normal;font-variant-numeric:normal;font-variant-alternates:normal;font-variant-east-asian:normal;font-feature-settings:normal;font-variation-settings:normal;text-indent:0;text-align:start;text-decoration:none;text-decoration-line:none;text-decoration-style:solid;text-decoration-color:#000000;letter-spacing:normal;word-spacing:normal;text-transform:none;writing-mode:lr-tb;direction:ltr;text-orientation:mixed;dominant-baseline:auto;baseline-shift:baseline;text-anchor:start;white-space:normal;shape-padding:0;shape-margin:0;inline-size:0;clip-rule:nonzero;display:inline;overflow:visible;visibility:visible;isolation:auto;mix-blend-mode:normal;color-interpolation:sRGB;color-interpolation-filters:linearRGB;solid-color:#000000;solid-opacity:1;vector-effect:none;fill:#a05a2c;fill-opacity:1;fill-rule:nonzero;stroke:none;stroke-width:8.99583;stroke-linecap:butt;stroke-linejoin:round;stroke-miterlimit:4;stroke-dasharray:none;stroke-dashoffset:0;stroke-opacity:1;color-rendering:auto;image-rendering:auto;shape-rendering:auto;text-rendering:auto;enable-background:accumulate;stop-color:#000000"
       d="m 67.733329,3.928646 c -35.185013,-2e-6 -63.8046817,28.619673 -63.8046817,63.804688 0,35.185016 28.6196687,63.804686 63.8046817,63.804686 35.185011,0 63.804691,-28.61968 63.804691,-63.804686 0,-35.185014 -28.61968,-63.804688 -63.804691,-63.804688 z m 0,8.996094 c 30.323306,0 54.808601,24.485288 54.808601,54.808594 0,30.323309 -24.485295,54.808586 -54.808601,54.808586 -30.323303,10e-6 -54.808602,-24.485277 -54.808602,-54.808586 0,-30.323307 24.485289,-54.808596 54.808602,-54.808594 z"
       id="path842"
       inkscape:connector-curvature="0" />
    <circle
       r="21.166666"
       cy="67.73333"
       cx="67.73333"
       id="path848"
       style="fill:#a05a2c;stroke:#000000;stroke-width:0.79375;stroke-linejoin:round;stroke-miterlimit:4;stroke-dasharray:none;filter:url(#filter858)" />
    <path
       style="color:#000000;font-style:normal;font-variant:normal;font-weight:normal;font-stretch:normal;font-size:medium;line-height:normal;font-family:sans-serif;font-variant-ligatures:normal;font-variant-position:normal;font-variant-caps:normal;font-variant-numeric:normal;font-variant-alternates:normal;font-variant-east-asian:normal;font-feature-settings:normal;font-variation-settings:normal;text-indent:0;text-align:start;text-decoration:none;text-decoration-line:none;text-decoration-style:solid;text-decoration-color:#000000;letter-spacing:normal;word-spacing:normal;text-transform:none;writing-mode:lr-tb;direction:ltr;text-orientation:mixed;dominant-baseline:auto;baseline-shift:baseline;text-anchor:start;white-space:normal;shape-padding:0;shape-margin:0;inline-size:0;clip-rule:nonzero;display:inline;overflow:visible;visibility:visible;isolation:auto;mix-blend-mode:normal;color-interpolation:sRGB;color-interpolation-filters:linearRGB;solid-color:#000000;solid-opacity:1;vector-effect:none;fill:#a05a2c;fill-opacity:1;fill-rule:nonzero;stroke:none;stroke-width:8.99583;stroke-linecap:butt;stroke-linejoin:round;stroke-miterlimit:4;stroke-dasharray:none;stroke-dashoffset:0;stroke-opacity:1;color-rendering:auto;image-rendering:auto;shape-rendering:auto;text-rendering:auto;enable-background:accumulate;stop-color:#000000"
       d="m -145.35082,17.425622 c -35.18501,-2e-6 -63.80468,28.619673 -63.80468,63.804688 0,35.18501 28.61967,63.80468 63.80468,63.80468 35.18501,0 63.804686,-28.61968 63.804686,-63.80468 0,-35.185014 -28.619676,-63.804688 -63.804686,-63.804688 z m 0,8.996094 c 30.3233,0 54.808596,24.485288 54.808596,54.808594 0,30.32331 -24.485296,54.80858 -54.808596,54.80858 -30.3233,1e-5 -54.8086,-24.48527 -54.8086,-54.80858 0,-30.323307 24.48529,-54.808596 54.8086,-54.808594 z"
       id="path852"
       inkscape:connector-curvature="0" />
  </g>
</svg>
