<?xml version="1.0" encoding="UTF-8" standalone="no"?>
<svg
   xmlns:dc="http://purl.org/dc/elements/1.1/"
   xmlns:cc="http://creativecommons.org/ns#"
   xmlns:rdf="http://www.w3.org/1999/02/22-rdf-syntax-ns#"
   xmlns:svg="http://www.w3.org/2000/svg"
   xmlns="http://www.w3.org/2000/svg"
   xmlns:sodipodi="http://sodipodi.sourceforge.net/DTD/sodipodi-0.dtd"
   xmlns:inkscape="http://www.inkscape.org/namespaces/inkscape"
   width="210mm"
   height="297mm"
   viewBox="0 0 210 297"
   version="1.1"
   id="svg8"
   inkscape:version="1.0.2 (e86c8708, 2021-01-15)"
   sodipodi:docname="disaster-lander-0001.svg">
  <defs
     id="defs2">
    <rect
       x="37.041667"
       y="77.863095"
       width="9.0714286"
       height="47.625"
       id="rect20" />
  </defs>
  <sodipodi:namedview
     id="base"
     pagecolor="#ffffff"
     bordercolor="#666666"
     borderopacity="1.0"
     inkscape:pageopacity="0.0"
     inkscape:pageshadow="2"
     inkscape:zoom="0.39609132"
     inkscape:cx="4757.7085"
     inkscape:cy="1058.6894"
     inkscape:document-units="mm"
     inkscape:current-layer="layer1"
     inkscape:document-rotation="0"
     showgrid="false"
     inkscape:window-width="1252"
     inkscape:window-height="819"
     inkscape:window-x="0"
     inkscape:window-y="25"
     inkscape:window-maximized="0"
     inkscape:snap-global="false" />
  <metadata
     id="metadata5">
    <rdf:RDF>
      <cc:Work
         rdf:about="">
        <dc:format>image/svg+xml</dc:format>
        <dc:type
           rdf:resource="http://purl.org/dc/dcmitype/StillImage" />
        <dc:title />
      </cc:Work>
    </rdf:RDF>
  </metadata>
  <g
     inkscape:label="Layer 1"
     inkscape:groupmode="layer"
     id="layer1">
    <g
       aria-label="DISASTER"
       id="text12"
       style="font-style:normal;font-variant:normal;font-weight:normal;font-stretch:normal;font-size:50.8px;line-height:1.25;font-family:Impact;-inkscape-font-specification:Impact;fill:#000000;fill-opacity:1;stroke:none;stroke-width:0.264583"
       inkscape:transform-center-x="32.160758"
       inkscape:transform-center-y="-301.58129"
       transform="translate(1.1699214,74.902566)">
      <path
         d="M -5.5844648,7.8945053 0.14252123,2.57924 q 5.54517697,-5.1465267 7.96300217,-6.4429641 2.4360056,-1.3133113 4.5340636,-1.0946692 2.098058,0.2186421 3.685625,1.4186998 1.570694,1.1818768 5.451681,5.3634856 l 9.567478,10.3085749 q 3.678501,3.963438 4.545368,5.663176 0.868173,1.664684 0.649649,3.288849 -0.235398,1.605983 -1.312111,3.180598 -1.093586,1.556434 -3.838903,4.104387 l -9.654063,8.960018 z M 6.7437562,5.8267226 24.714415,25.18939 q 1.654463,-1.535521 1.428803,-2.544385 -0.242534,-1.027045 -2.976099,-3.972352 L 12.553462,7.236862 Q 10.697338,5.2369621 10.046982,4.7914709 9.3966261,4.3459798 8.7058694,4.5132935 7.9982388,4.6624264 6.7437562,5.8267226 Z"
         style="font-style:normal;font-variant:normal;font-weight:normal;font-stretch:normal;font-size:50.8px;font-family:Impact;-inkscape-font-specification:Impact;stroke-width:0.264583"
         id="path52" />
      <path
         d="m 30.829644,-20.63885 21.069344,34.187879 -8.890115,5.47881 -21.069344,-34.187878 z"
         style="font-style:normal;font-variant:normal;font-weight:normal;font-stretch:normal;font-size:50.8px;font-family:Impact;-inkscape-font-specification:Impact;stroke-width:0.264583"
         id="path54" />
      <path
         d="m 66.184007,-22.890636 -9.061202,3.458047 -1.061293,-2.780932 q -0.742905,-1.946652 -1.293936,-2.347003 -0.551031,-0.40035 -1.362136,-0.09081 -0.880629,0.336076 -1.06995,1.231366 -0.166147,0.886445 0.391032,2.346434 0.716373,1.877129 1.588819,2.63271 0.849271,0.764426 3.633324,1.24182 7.988981,1.384935 10.627034,3.218979 2.638053,1.834044 4.742951,7.3495589 1.530031,4.0091765 1.305097,6.2720883 -0.201761,2.2540677 -2.394725,4.5777525 -2.201808,2.3005103 -5.77067,3.6625031 -3.916479,1.4946545 -7.263433,1.072784 Q 55.871138,8.5239513 54.138118,6.5569147 52.405097,4.5898781 50.795469,0.3721317 l -0.937475,-2.4564896 9.061202,-3.4580467 1.742289,4.56536279 q 0.804814,2.10887321 1.405552,2.56990261 0.623912,0.4521854 1.597238,0.080733 0.973326,-0.3714526 1.144959,-1.313091 0.194808,-0.9504825 -0.380059,-2.4568205 -1.264708,-3.3139436 -2.557651,-3.9886983 -1.316118,-0.6659105 -5.865447,-1.6643518 -4.558173,-1.0216156 -6.155742,-1.6597643 -1.597569,-0.6381489 -3.119561,-2.2609269 -1.498817,-1.631622 -2.639708,-4.621124 -1.645004,-4.310444 -1.316399,-6.719118 0.351779,-2.417518 2.383752,-4.467366 2.023128,-2.073023 5.499293,-3.39964 3.800606,-1.450433 6.934404,-1.239261 3.156971,0.202328 4.730798,1.752225 1.588157,1.517878 3.29507,5.990543 z"
         style="font-style:normal;font-variant:normal;font-weight:normal;font-stretch:normal;font-size:50.8px;font-family:Impact;-inkscape-font-specification:Impact;stroke-width:0.264583"
         id="path56" />
      <path
         d="M 93.085007,-39.857955 104.12465,-0.78635249 93.520747,0.57408379 92.085552,-6.5191131 88.370494,-6.0424869 88.67395,1.1959073 77.947027,2.5721259 78.10176,-37.935668 Z m -2.200596,26.315649 q -1.655325,-6.664827 -3.717834,-16.503446 -0.109995,11.617821 0.174997,16.957977 z"
         style="font-style:normal;font-variant:normal;font-weight:normal;font-stretch:normal;font-size:50.8px;font-family:Impact;-inkscape-font-specification:Impact;stroke-width:0.264583"
         id="path58" />
      <path
         d="m 131.06479,-25.98505 -9.64099,-1.055808 0.32403,-2.958873 q 0.22683,-2.07121 -0.0809,-2.678832 -0.30775,-0.607621 -1.17075,-0.702131 -0.93698,-0.10261 -1.51383,0.60776 -0.5522,0.71307 -0.72232,2.266478 -0.21872,1.997239 0.21303,3.067593 0.40709,1.067654 2.66689,2.762403 6.47774,4.876542 7.98879,7.71199 1.51105,2.835448 0.86839,8.7038785 -0.46715,4.2657079 -1.69952,6.1768928 -1.20771,1.91388511 -4.21917,2.98146016 -3.00876,1.04291774 -6.80598,0.62707514 -4.16708,-0.4563468 -6.95313,-2.35844535 -2.7614,-1.89939825 -3.40639,-4.44037835 -0.64499,-2.5409801 -0.15354,-7.0286029 l 0.28622,-2.613671 9.641,1.055808 -0.53196,4.8574824 q -0.24572,2.2438117 0.0786,2.9281052 0.34896,0.6869937 1.38457,0.8004053 1.0356,0.1134117 1.61786,-0.6462727 0.60691,-0.7569841 0.78243,-2.3597068 0.38614,-3.5259894 -0.45668,-4.7162204 -0.86748,-1.192931 -4.46054,-4.156573 -3.59037,-2.9883 -4.72098,-4.284906 -1.1306,-1.296606 -1.74483,-3.434969 -0.58956,-2.135662 -0.24123,-5.31645 0.50225,-4.586253 1.89337,-6.579865 1.41577,-1.990912 4.15906,-2.888232 2.74598,-0.921976 6.44457,-0.516935 4.04379,0.442845 6.73626,2.060213 2.71713,1.620067 3.41073,3.717216 0.72095,2.075193 0.1998,6.834046 z"
         style="font-style:normal;font-variant:normal;font-weight:normal;font-stretch:normal;font-size:50.8px;font-family:Impact;-inkscape-font-specification:Impact;stroke-width:0.264583"
         id="path60" />
      <path
         d="m 165.24021,-28.013691 -2.65411,7.585813 -5.85325,-2.047924 -10.60825,30.3198365 -9.85687,-3.4487038 10.60825,-30.3198367 -5.82984,-2.039732 2.65411,-7.585813 z"
         style="font-style:normal;font-variant:normal;font-weight:normal;font-stretch:normal;font-size:50.8px;font-family:Impact;-inkscape-font-specification:Impact;stroke-width:0.264583"
         id="path62" />
      <path
         d="m 174.73691,-23.224529 14.92845,8.963817 -4.13715,6.8900557 -5.97563,-3.5880807 -3.92007,6.5285405 5.59285,3.3582391 -3.93284,6.549806 -5.59286,-3.3582391 -4.54575,7.570555 6.57107,3.9456115 -4.13714,6.890056 -15.5239,-9.321348 z"
         style="font-style:normal;font-variant:normal;font-weight:normal;font-stretch:normal;font-size:50.8px;font-family:Impact;-inkscape-font-specification:Impact;stroke-width:0.264583"
         id="path64" />
      <path
         d="m 199.86536,-6.864051 5.35625,5.0940427 q 5.35624,5.0940426 6.85035,7.3023251 1.51208,2.2253766 1.07442,5.0611162 -0.40259,2.834859 -3.94107,6.555474 -3.23078,3.397083 -5.18668,3.76197 -1.95589,0.364886 -4.65853,-1.760438 1.71684,2.693956 1.60082,4.36365 -0.11601,1.669693 -0.68841,2.63149 -0.53733,0.960916 -3.88778,4.483817 l -7.29918,7.674892 -7.02783,-6.683794 9.19663,-9.670004 q 2.22223,-2.336618 2.3747,-3.252788 0.17044,-0.899076 -1.3933,-2.386263 l -12.4787,13.12101 -7.56704,-7.196618 z m 2.83198,12.1754113 -6.15388,6.4706347 q 1.27616,1.213681 2.10422,1.35081 0.86312,0.13625 2.69219,-1.786967 l 1.52138,-1.5996844 q 1.31624,-1.3839968 1.22323,-2.2940074 -0.075,-0.8929164 -1.38714,-2.1407859 z"
         style="font-style:normal;font-variant:normal;font-weight:normal;font-stretch:normal;font-size:50.8px;font-family:Impact;-inkscape-font-specification:Impact;stroke-width:0.264583"
         id="path66" />
    </g>
    <text
       xml:space="preserve"
       id="text18"
       style="fill:black;fill-opacity:1;line-height:1.25;stroke:none;font-family:sans-serif;font-style:normal;font-weight:normal;font-size:10.58333333000000032px;white-space:pre;shape-inside:url(#rect20);" />
    <g
       aria-label="LANDER"
       id="text26"
       style="font-style:normal;font-variant:normal;font-weight:normal;font-stretch:normal;font-size:50.8px;line-height:1.25;font-family:Impact;-inkscape-font-specification:Impact;fill:#000000;fill-opacity:1;stroke:none;stroke-width:0.264583"
       transform="translate(-2.6601113,-67.204176)">
      <path
         d="m 28.80132,181.94282 16.880316,27.32915 5.402519,-3.33696 4.223338,6.83756 -14.28713,8.82469 -21.103653,-34.16671 z"
         style="font-style:normal;font-variant:normal;font-weight:normal;font-stretch:normal;font-size:50.8px;font-family:Impact;-inkscape-font-specification:Impact;stroke-width:0.264583"
         id="path72" />
      <path
         d="m 60.901641,167.57905 19.272391,35.73568 -10.054265,3.63392 -2.943414,-6.61131 -3.522491,1.27313 1.870336,6.99917 -10.170903,3.67608 -8.65826,-39.57196 z m 3.574974,26.16439 q -3.065117,-6.14533 -7.217882,-15.29994 2.419182,11.36369 3.858684,16.51406 z"
         style="font-style:normal;font-variant:normal;font-weight:normal;font-stretch:normal;font-size:50.8px;font-family:Impact;-inkscape-font-specification:Impact;stroke-width:0.264583"
         id="path74" />
      <path
         d="m 101.14797,160.73963 4.11917,39.94697 -9.104657,0.93884 -7.276155,-17.60277 1.87258,18.15996 -8.685198,0.89558 -4.119166,-39.94697 8.685197,-0.89558 7.6778,17.38679 -1.854769,-17.98724 z"
         style="font-style:normal;font-variant:normal;font-weight:normal;font-stretch:normal;font-size:50.8px;font-family:Impact;-inkscape-font-specification:Impact;stroke-width:0.264583"
         id="path76" />
      <path
         d="m 115.54266,161.04591 7.72595,1.16627 q 7.48068,1.12925 10.00138,2.21216 2.54522,1.08661 3.68177,2.86366 1.13655,1.77706 1.18743,3.76651 0.0546,1.96492 -0.79698,7.60609 l -2.09928,13.9067 q -0.80713,5.34685 -1.59617,7.08408 -0.76082,1.71641 -2.16719,2.55771 -1.40266,0.81677 -3.30512,0.95605 -1.89875,0.11474 -5.60229,-0.44432 l -13.02374,-1.966 z m 9.30022,8.35266 -3.9431,26.12105 q 2.23194,0.33692 2.88029,-0.46829 0.65206,-0.82974 1.25185,-4.80309 l 2.32883,-15.42736 q 0.40727,-2.69795 0.35036,-3.4842 -0.0569,-0.78625 -0.61825,-1.22218 -0.55763,-0.46046 -2.24998,-0.71593 z"
         style="font-style:normal;font-variant:normal;font-weight:normal;font-stretch:normal;font-size:50.8px;font-family:Impact;-inkscape-font-specification:Impact;stroke-width:0.264583"
         id="path78" />
      <path
         d="m 151.84745,168.4035 16.212,6.35451 -2.93286,7.48246 -6.48941,-2.54361 -2.77897,7.08986 6.07372,2.38068 -2.78802,7.11295 -6.07373,-2.38068 -3.22251,8.22147 7.13605,2.79708 -2.93286,7.48246 -16.85863,-6.60798 z"
         style="font-style:normal;font-variant:normal;font-weight:normal;font-stretch:normal;font-size:50.8px;font-family:Impact;-inkscape-font-specification:Impact;stroke-width:0.264583"
         id="path80" />
      <path
         d="m 179.44164,180.41103 6.11808,4.14823 q 6.11808,4.14822 7.95361,6.08204 1.85607,1.94775 1.88866,4.81688 0.067,2.86252 -2.81444,7.11232 -2.63093,3.88026 -4.50067,4.56049 -1.86975,0.68023 -4.88392,-0.97386 2.13479,2.37647 2.29375,4.04262 0.15895,1.66616 -0.24823,2.7087 -0.37273,1.03593 -3.1011,5.0599 l -5.94393,8.76651 -8.02741,-5.4428 7.48907,-11.04539 q 1.80963,-2.66896 1.81002,-3.59773 0.0209,-0.91485 -1.76523,-2.12591 l -10.16176,14.98724 -8.64333,-5.86041 z m 4.78743,11.54735 -5.01128,7.39097 q 1.45766,0.98834 2.297,0.98802 0.87379,-0.007 2.36325,-2.20368 l 1.2389,-1.82721 q 1.07186,-1.58085 0.83109,-2.46334 -0.22024,-0.86858 -1.71896,-1.88476 z"
         style="font-style:normal;font-variant:normal;font-weight:normal;font-stretch:normal;font-size:50.8px;font-family:Impact;-inkscape-font-specification:Impact;stroke-width:0.264583"
         id="path82" />
    </g>
    <circle
       style="fill:#000000;stroke:none;stroke-width:0.529167;stroke-linejoin:round;stroke-dashoffset:20"
       id="path47"
       sodipodi:type="arc"
       sodipodi:cx="-272.15073"
       sodipodi:cy="-71.93782"
       sodipodi:rx="109.61309"
       sodipodi:ry="109.61309"
       sodipodi:start="0"
       sodipodi:end="6.1959188"
       sodipodi:open="true"
       sodipodi:arc-type="arc"
       d="M -162.53764,-71.93782 A 109.61309,109.61309 0 0 1 -269.75953,37.649185 109.61309,109.61309 0 0 1 -381.65949,-67.156562 109.61309,109.61309 0 0 1 -279.31977,-181.31622 109.61309,109.61309 0 0 1 -162.95475,-81.491236"
       transform="rotate(-126.70743)" />
    <g
       aria-label="DISASTER LANDER"
       transform="rotate(162.31352,543.87329,182.51254)"
       id="text89"
       style="font-style:normal;font-variant:normal;font-weight:normal;font-stretch:normal;font-size:50.8px;line-height:1.25;font-family:'Arial Black';-inkscape-font-specification:'Arial Black, ';text-align:center;text-anchor:middle;fill:#000000;fill-opacity:1;stroke:none;stroke-width:0.264583">
      <path
         d="m 661.77264,334.46208 -12.21739,11.37586 q -3.61257,3.36374 -6.74008,4.44564 -3.14567,1.0988 -6.30519,0.61754 -3.15951,-0.48126 -6.07807,-2.30533 -2.91856,-1.82407 -5.45405,-4.54711 -3.97225,-4.2661 -5.18937,-7.53884 -1.21838,-3.23769 -0.98126,-6.44101 0.25401,-3.18517 1.74256,-5.55408 2.02876,-3.24472 4.22535,-5.29001 l 12.21739,-11.37586 z m -13.83546,1.63016 -13.53947,-14.54105 -2.01505,1.87625 q -2.57782,2.40026 -3.14304,3.97721 -0.54831,1.59511 0.15292,3.5858 0.71813,2.00885 3.69309,5.20389 3.93845,4.22979 6.7718,4.50636 2.83335,0.27656 6.02839,-2.6984 z"
         style="font-style:normal;font-variant:normal;font-weight:normal;font-stretch:normal;font-size:50.8px;font-family:'Arial Black';-inkscape-font-specification:'Arial Black, ';text-align:center;text-anchor:middle;stroke-width:0.264583"
         id="path97" />
      <path
         d="m 623.00683,365.35267 -10.00326,5.17228 -16.70166,-32.30125 10.00325,-5.17228 z"
         style="font-style:normal;font-variant:normal;font-weight:normal;font-stretch:normal;font-size:50.8px;font-family:'Arial Black';-inkscape-font-specification:'Arial Black, ';text-align:center;text-anchor:middle;stroke-width:0.264583"
         id="path99" />
      <path
         d="m 593.54635,353.42747 -10.29984,2.94203 q -0.89658,-2.46985 -2.23042,-3.57425 -2.16853,-1.78491 -5.31844,-1.09485 -2.35031,0.51489 -3.37141,1.88127 -1.04002,1.39591 -0.72153,2.84972 0.30256,1.38111 1.75293,2.20606 1.45037,0.82494 6.07257,0.82806 7.57621,0.0416 11.24263,2.05699 3.69065,2.0101 4.60365,6.17767 0.59982,2.73799 -0.44432,5.50603 -1.06306,2.79758 -3.93463,4.87406 -2.8905,2.10602 -8.43918,3.32158 -6.80865,1.49159 -10.92783,-0.27227 -4.13809,-1.73432 -6.02679,-7.11015 l 10.21353,-2.87233 q 0.93742,2.30854 2.50894,3.10695 1.54729,0.80371 3.87338,0.29413 1.91417,-0.41935 2.7029,-1.45549 0.79403,-1.01192 0.53924,-2.17497 -0.18579,-0.84805 -1.13401,-1.35132 -0.92929,-0.53281 -3.96961,-0.50159 -7.53605,0.0258 -10.98783,-0.89394 -3.47071,-0.8902 -5.39094,-2.93265 -1.94447,-2.03713 -2.58145,-4.94474 -0.74845,-3.41644 0.50983,-6.71385 1.25828,-3.29742 4.32138,-5.54282 3.06841,-2.22118 8.22942,-3.35181 9.06204,-1.98525 13.31554,0.73951 4.25351,2.72475 5.89229,8.00297 z"
         style="font-style:normal;font-variant:normal;font-weight:normal;font-stretch:normal;font-size:50.8px;font-family:'Arial Black';-inkscape-font-specification:'Arial Black, ';text-align:center;text-anchor:middle;stroke-width:0.264583"
         id="path101" />
      <path
         d="m 529.78879,351.86793 12.68424,1.71171 2.54809,-5.71329 11.3814,1.53589 -18.40771,34.20921 -12.14344,-1.63873 -8.68151,-37.86483 11.65181,1.57239 z m 1.2837,8.10759 2.23407,13.49204 5.70588,-12.42056 z"
         style="font-style:normal;font-variant:normal;font-weight:normal;font-stretch:normal;font-size:50.8px;font-family:'Arial Black';-inkscape-font-specification:'Arial Black, ';text-align:center;text-anchor:middle;stroke-width:0.264583"
         id="path103" />
      <path
         d="m 509.83493,353.58841 -9.76298,-4.40755 q 0.91104,-2.46455 0.60624,-4.16923 -0.50238,-2.76334 -3.35266,-4.27132 -2.12675,-1.12518 -3.78885,-0.74174 -1.69563,0.39377 -2.39162,1.70929 -0.6612,1.24973 -0.0869,2.81636 0.57427,1.56663 4.10067,4.55481 5.75653,4.92575 7.25346,8.83263 1.51884,3.91848 -0.47633,7.68962 -1.31078,2.47755 -3.89591,3.91609 -2.61865,1.44886 -6.15205,1.17902 -3.56692,-0.25952 -8.5878,-2.91588 -6.16099,-3.25956 -8.16602,-7.26689 -2.03855,-3.997 -0.008,-9.32075 l 9.65207,4.405 q -0.77565,2.3678 -0.0918,3.99243 0.66197,1.61302 2.7668,2.72661 1.73209,0.91639 3.00349,0.63492 1.25981,-0.25954 1.8166,-1.31195 0.406,-0.76738 0.007,-1.76408 -0.36521,-1.00703 -2.70625,-2.94714 -5.7694,-4.84837 -7.81024,-7.78022 -2.07437,-2.92152 -2.22085,-5.72106 -0.1684,-2.81114 1.22358,-5.44217 1.63558,-3.09145 4.72613,-4.79577 3.09055,-1.70432 6.87927,-1.4397 3.77713,0.28654 8.4472,2.7573 8.20004,4.33835 9.6869,9.16596 1.48685,4.82761 -0.67173,9.91541 z"
         style="font-style:normal;font-variant:normal;font-weight:normal;font-stretch:normal;font-size:50.8px;font-family:'Arial Black';-inkscape-font-specification:'Arial Black, ';text-align:center;text-anchor:middle;stroke-width:0.264583"
         id="path105" />
      <path
         d="m 456.81931,350.23612 -23.20109,-25.06682 6.58983,-6.09934 7.78424,8.41022 20.09714,-18.60131 7.63261,8.24638 -20.09715,18.60131 7.78425,8.41022 z"
         style="font-style:normal;font-variant:normal;font-weight:normal;font-stretch:normal;font-size:50.8px;font-family:'Arial Black';-inkscape-font-specification:'Arial Black, ';text-align:center;text-anchor:middle;stroke-width:0.264583"
         id="path107" />
      <path
         d="m 424.3135,310.20731 -11.95311,-27.63891 7.12601,-3.08181 7.483,17.30277 5.30467,-2.29413 -6.94147,-16.0506 6.80728,-2.94397 6.94147,16.0506 6.5796,-2.84551 -7.69961,-17.80364 7.55858,-3.26889 12.16972,28.13978 z"
         style="font-style:normal;font-variant:normal;font-weight:normal;font-stretch:normal;font-size:50.8px;font-family:'Arial Black';-inkscape-font-specification:'Arial Black, ';text-align:center;text-anchor:middle;stroke-width:0.264583"
         id="path109" />
      <path
         d="m 444.0649,261.27703 -36.30499,2.06497 -1.06348,-18.69732 q -0.2958,-5.20058 0.43938,-8.00016 0.73518,-2.79959 3.06633,-4.62163 2.30639,-1.82063 5.77344,-2.01783 3.02129,-0.17184 5.29859,0.99056 2.25254,1.16381 3.74277,3.33992 0.94846,1.38705 1.66032,3.85588 0.55455,-2.04397 1.17108,-2.99829 0.41055,-0.64447 1.80546,-1.89152 1.3935,-1.27181 2.16343,-1.71311 l 10.21651,-6.02211 0.72119,12.67951 -10.7537,6.62409 q -2.08973,1.26172 -2.6829,2.18987 -0.77298,1.26136 -0.68565,2.79677 l 0.0563,0.99058 14.73498,-0.8381 z m -22.23569,-10.03964 -0.26903,-4.73005 q -0.0437,-0.76771 -0.66433,-2.94359 -0.28626,-1.10173 -1.242,-1.74303 -0.95714,-0.66605 -2.14584,-0.59844 -1.75829,0.10001 -2.63596,1.26794 -0.87767,1.16794 -0.70301,4.23875 l 0.2803,4.92817 z"
         style="font-style:normal;font-variant:normal;font-weight:normal;font-stretch:normal;font-size:50.8px;font-family:'Arial Black';-inkscape-font-specification:'Arial Black, ';text-align:center;text-anchor:middle;stroke-width:0.264583"
         id="path111" />
      <path
         d="m 414.65609,189.8102 4.77067,-10.1735 24.81616,11.63708 7.44562,-15.87785 8.10736,3.8018 -12.2163,26.05134 z"
         style="font-style:normal;font-variant:normal;font-weight:normal;font-stretch:normal;font-size:50.8px;font-family:'Arial Black';-inkscape-font-specification:'Arial Black, ';text-align:center;text-anchor:middle;stroke-width:0.264583"
         id="path113" />
      <path
         d="m 474.22504,154.52109 -8.96529,9.13475 3.05054,5.46156 -8.04443,8.1965 -16.37922,-35.22549 8.58304,-8.74529 35.526,15.71678 -8.23555,8.39122 z m -7.26244,-3.82595 -12.14417,-6.28852 6.53218,12.00659 z"
         style="font-style:normal;font-variant:normal;font-weight:normal;font-stretch:normal;font-size:50.8px;font-family:'Arial Black';-inkscape-font-specification:'Arial Black, ';text-align:center;text-anchor:middle;stroke-width:0.264583"
         id="path115" />
      <path
         d="m 476.85357,113.87021 9.59181,-4.25292 20.67091,12.84006 -8.15394,-18.38996 9.68251,-4.293139 14.73943,33.242529 -9.68251,4.29314 -20.54256,-12.73417 8.09362,18.25391 -9.65984,4.28308 z"
         style="font-style:normal;font-variant:normal;font-weight:normal;font-stretch:normal;font-size:50.8px;font-family:'Arial Black';-inkscape-font-specification:'Arial Black, ';text-align:center;text-anchor:middle;stroke-width:0.264583"
         id="path117" />
      <path
         d="m 529.79633,95.170379 16.68005,-0.671332 q 4.93214,-0.198507 8.00973,1.018164 3.10238,1.215675 5.1859,3.639119 2.08352,2.42345 3.10943,5.70867 1.02592,3.28523 1.17554,7.00293 0.23442,5.82438 -0.97427,9.10025 -1.1849,3.25008 -3.45166,5.52589 -2.26776,2.25103 -4.94035,3.07852 -3.65301,1.14001 -6.65195,1.26071 l -16.68005,0.67133 z m 11.55861,7.776621 0.79902,19.85248 2.75109,-0.11073 q 3.51942,-0.14165 4.97557,-0.96982 1.45516,-0.85296 2.22003,-2.82008 0.76387,-1.9919 0.58831,-6.35399 -0.23242,-5.77482 -2.20184,-7.83048 -1.96942,-2.05567 -6.33151,-1.8801 z"
         style="font-style:normal;font-variant:normal;font-weight:normal;font-stretch:normal;font-size:50.8px;font-family:'Arial Black';-inkscape-font-specification:'Arial Black, ';text-align:center;text-anchor:middle;stroke-width:0.264583"
         id="path119" />
      <path
         d="m 581.86256,96.855522 28.66577,9.222768 -2.37786,7.39076 -17.94563,-5.77372 -1.7701,5.50175 16.64693,5.35589 -2.2715,7.06018 -16.64693,-5.35588 -2.19554,6.82406 18.46511,5.94085 -2.52221,7.83941 -29.18525,-9.3899 z"
         style="font-style:normal;font-variant:normal;font-weight:normal;font-stretch:normal;font-size:50.8px;font-family:'Arial Black';-inkscape-font-specification:'Arial Black, ';text-align:center;text-anchor:middle;stroke-width:0.264583"
         id="path121" />
      <path
         d="m 605.65516,143.94738 22.36633,-28.67166 14.7661,11.51881 q 4.10713,3.20391 5.7288,5.60149 1.62166,2.39757 1.45643,5.35168 -0.14997,2.93456 -2.28591,5.67265 -1.86132,2.38604 -4.23616,3.33333 -2.3596,0.92774 -4.97847,0.61505 -1.66834,-0.20037 -3.99457,-1.29147 1.17224,1.76386 1.48395,2.85641 0.21432,0.73346 0.23339,2.60443 0.0386,1.88623 -0.13666,2.75619 l -2.20095,11.65326 -10.01357,-7.81143 2.10203,-12.454 q 0.42767,-2.40333 0.12027,-3.46107 -0.4396,-1.41254 -1.65218,-2.35846 l -0.78231,-0.61027 -9.07774,11.63686 z m 22.20262,-10.11255 3.73553,2.91403 q 0.60629,0.47295 2.65207,1.43965 1.01741,0.51053 2.12952,0.21408 1.13167,-0.28119 1.864,-1.21997 1.08322,-1.3886 0.78288,-2.81834 -0.30035,-1.42975 -2.72551,-3.32158 l -3.89199,-3.03608 z"
         style="font-style:normal;font-variant:normal;font-weight:normal;font-stretch:normal;font-size:50.8px;font-family:'Arial Black';-inkscape-font-specification:'Arial Black, ';text-align:center;text-anchor:middle;stroke-width:0.264583"
         id="path123" />
    </g>
    <circle
       style="fill:#999999;stroke:#000000;stroke-width:2;stroke-linejoin:round;stroke-miterlimit:4;stroke-dasharray:none;stroke-dashoffset:20;stroke-opacity:1"
       id="path128"
       transform="rotate(-146.42235)"
       cx="-1288.1379"
       cy="366.34146"
       r="221.46796" />
    <g
       id="g292"
       transform="translate(8.5526249,55.592062)">
      <g
         id="g222"
         transform="matrix(1.45563,0,0,1.4493486,-214.3031,-341.5219)"
         style="stroke-width:0.688475">
        <g
           aria-label="DISASTER"
           id="text132"
           style="font-style:normal;font-variant:normal;font-weight:normal;font-stretch:normal;font-size:50.8px;line-height:1.25;font-family:'Arial Black';-inkscape-font-specification:'Arial Black, ';fill:#000000;fill-opacity:1;stroke:none;stroke-width:0.182159"
           transform="translate(-6.047619,-93.738095)">
          <path
             d="m 343.66133,746.07806 14.60942,-8.0771 q 4.31987,-2.38832 7.61633,-2.6803 3.31816,-0.30397 6.26696,0.9284 2.94879,1.23236 5.3385,3.70916 2.3897,2.47681 4.18995,5.73299 2.82038,5.10136 3.20837,8.57148 0.39769,3.4364 -0.60842,6.48685 -1.01811,3.02875 -3.03622,4.96646 -2.75441,2.65656 -5.38107,4.10875 l -14.60942,8.0771 z m 13.81822,1.77029 9.61331,17.38803 2.40958,-1.33218 q 3.08252,-1.70423 4.01295,-3.09728 0.91842,-1.41475 0.72036,-3.51602 -0.21006,-2.12298 -2.32235,-5.94357 -2.79638,-5.05795 -5.47832,-6.0127 -2.68194,-0.95476 -6.50253,1.15753 z"
             style="font-style:normal;font-variant:normal;font-weight:normal;font-stretch:normal;font-size:50.8px;font-family:'Arial Black';-inkscape-font-specification:'Arial Black, ';stroke-width:0.182159"
             id="path155" />
          <path
             d="m 383.37573,725.85046 10.48752,-4.10235 13.24682,33.865 -10.48752,4.10236 z"
             style="font-style:normal;font-variant:normal;font-weight:normal;font-stretch:normal;font-size:50.8px;font-family:'Arial Black';-inkscape-font-specification:'Arial Black, ';stroke-width:0.182159"
             id="path157" />
          <path
             d="m 409.7795,741.42024 10.2057,-3.2536 q 0.9712,2.44147 2.33798,3.50484 2.22176,1.71819 5.34925,0.93275 2.33358,-0.58606 3.3127,-1.98283 0.99712,-1.42686 0.63461,-2.87032 -0.34438,-1.37128 -1.81915,-2.15178 -1.47476,-0.7805 -6.09492,-0.64319 -7.57397,0.18861 -11.29993,-1.71447 -3.75002,-1.89703 -4.78922,-6.03494 -0.68273,-2.71851 0.27683,-5.51699 0.97757,-2.82858 3.78473,-4.99135 2.82518,-2.19287 8.33437,-3.57645 6.76019,-1.69776 10.93105,-0.0599 4.18888,1.6078 6.24004,6.92376 l -10.12155,3.18132 q -1.00713,-2.279 -2.60218,-3.02929 -1.57099,-0.75633 -3.88052,-0.17631 -1.90055,0.47731 -2.65744,1.53694 -0.76292,1.03557 -0.47291,2.19034 0.21147,0.84202 1.17454,1.31625 0.94506,0.50433 3.98301,0.38075 7.53179,-0.25475 11.00993,0.5597 3.49615,0.78434 5.47755,2.7675 2.00546,1.97712 2.73048,4.86403 0.8519,3.39213 -0.30561,6.72625 -1.15751,3.33412 -4.15098,5.67155 -2.99951,2.31337 -8.12378,3.60029 -8.99755,2.25965 -13.33187,-0.33462 -4.33432,-2.59427 -6.13271,-7.82026 z"
             style="font-style:normal;font-variant:normal;font-weight:normal;font-stretch:normal;font-size:50.8px;font-family:'Arial Black';-inkscape-font-specification:'Arial Black, ';stroke-width:0.182159"
             id="path159" />
          <path
             d="m 472.24867,736.49805 -12.7629,0.9636 -1.30421,6.11829 -11.45198,0.86463 10.89092,-37.28944 12.21874,-0.92251 16.36627,35.2315 -11.72405,0.88517 z m -2.94174,-7.66336 -4.9911,-12.73245 -2.99808,13.33563 z"
             style="font-style:normal;font-variant:normal;font-weight:normal;font-stretch:normal;font-size:50.8px;font-family:'Arial Black';-inkscape-font-specification:'Arial Black, ';stroke-width:0.182159"
             id="path161" />
          <path
             d="m 489.03293,729.78748 10.70639,0.33953 q 0.10057,2.62562 1.03403,4.08422 1.52082,2.36125 4.73111,2.66477 2.39538,0.22647 3.78456,-0.76338 1.41621,-1.0122 1.5563,-2.49388 0.13308,-1.40759 -0.99658,-2.63558 -1.12967,-1.228 -5.53069,-2.64071 -7.20255,-2.3503 -10.07959,-5.38791 -2.90175,-3.03995 -2.50017,-7.28741 0.26383,-2.79049 2.10246,-5.10818 1.86565,-2.34006 5.23372,-3.44179 3.3951,-1.1241 9.05015,-0.58943 6.93917,0.65607 10.32412,3.59221 3.41198,2.91378 3.5711,8.60951 l -10.60295,-0.37958 q -0.18866,-2.48445 -1.4418,-3.72412 -1.22844,-1.23733 -3.59912,-1.46147 -1.95087,-0.18445 -3.01803,0.56177 -1.06483,0.72153 -1.1769,1.90687 -0.0817,0.86431 0.66783,1.63281 0.72252,0.79085 3.62749,1.68839 7.18486,2.27388 10.19167,4.20257 3.03384,1.90633 4.23965,4.43712 1.23051,2.53313 0.95033,5.49648 -0.3292,3.48193 -2.53321,6.23847 -2.20402,2.75654 -5.80601,3.96073 -3.59966,1.1795 -8.8596,0.6822 -9.23577,-0.87321 -12.45558,-4.76543 -3.21981,-3.89223 -3.17068,-9.41878 z"
             style="font-style:normal;font-variant:normal;font-weight:normal;font-stretch:normal;font-size:50.8px;font-family:'Arial Black';-inkscape-font-specification:'Arial Black, ';stroke-width:0.182159"
             id="path163" />
          <path
             d="m 533.15169,710.19718 33.03275,8.68756 -2.28388,8.68399 -11.08288,-2.91478 -6.96519,26.48377 -10.86698,-2.85799 6.96519,-26.48378 -11.08289,-2.91478 z"
             style="font-style:normal;font-variant:normal;font-weight:normal;font-stretch:normal;font-size:50.8px;font-family:'Arial Black';-inkscape-font-specification:'Arial Black, ';stroke-width:0.182159"
             id="path165" />
          <path
             d="m 576.57576,722.7424 27.48938,12.29309 -3.16947,7.08746 -17.20917,-7.69584 -2.35938,5.27597 15.96377,7.1389 -3.0277,6.77045 -15.96377,-7.1389 -2.92644,6.54402 17.70733,7.9186 -3.36187,7.51769 -27.98754,-12.51585 z"
             style="font-style:normal;font-variant:normal;font-weight:normal;font-stretch:normal;font-size:50.8px;font-family:'Arial Black';-inkscape-font-specification:'Arial Black, ';stroke-width:0.182159"
             id="path167" />
          <path
             d="m 595.22315,771.50902 20.26484,-30.19359 15.5499,10.43653 q 4.32514,2.90287 6.11365,5.1787 1.78851,2.27583 1.83436,5.23421 0.0597,2.93778 -1.87558,5.82121 -1.68643,2.5127 -3.98769,3.62692 -2.28743,1.09364 -4.92193,0.9685 -1.67838,-0.0809 -4.0765,-1.00333 1.29505,1.67577 1.68387,2.74332 0.26608,0.7163 0.41851,2.58115 0.17304,1.87868 0.0602,2.75892 l -1.36436,11.78054 -10.54511,-7.07749 1.2086,-12.57218 q 0.2552,-2.42771 -0.12685,-3.46084 -0.53921,-1.3776 -1.81615,-2.23464 l -0.82384,-0.55293 -8.22481,12.25457 z m 21.42498,-11.67006 3.93382,2.64023 q 0.63847,0.42852 2.74797,1.24687 1.05123,0.43668 2.13937,0.0617 1.10874,-0.36117 1.77226,-1.34977 0.98145,-1.46231 0.57991,-2.867 -0.40153,-1.40469 -2.95542,-3.11877 l -4.09859,-2.75082 z"
             style="font-style:normal;font-variant:normal;font-weight:normal;font-stretch:normal;font-size:50.8px;font-family:'Arial Black';-inkscape-font-specification:'Arial Black, ';stroke-width:0.182159"
             id="path169" />
        </g>
        <g
           aria-label="LANDER"
           id="text174"
           style="font-style:normal;font-variant:normal;font-weight:normal;font-stretch:normal;font-size:50.8px;line-height:1.25;font-family:'Arial Black';-inkscape-font-specification:'Arial Black, ';fill:#000000;fill-opacity:1;stroke:none;stroke-width:0.182159"
           transform="translate(-3.7797619,-48.380952)">
          <path
             d="m 357.84018,752.15869 10.10675,-4.9105 11.97815,24.65334 15.77367,-7.66386 3.91323,8.05417 -25.88042,12.57435 z"
             style="font-style:normal;font-variant:normal;font-weight:normal;font-stretch:normal;font-size:50.8px;font-family:'Arial Black';-inkscape-font-specification:'Arial Black, ';stroke-width:0.182159"
             id="path193" />
          <path
             d="m 424.20711,758.23687 -12.27085,3.63956 0.0185,6.25572 -11.01047,3.26573 2.76287,-38.74894 11.74767,-3.48438 23.44347,30.97608 -11.27206,3.34332 z m -4.4951,-6.86841 -7.56962,-11.38978 -0.11155,13.66803 z"
             style="font-style:normal;font-variant:normal;font-weight:normal;font-stretch:normal;font-size:50.8px;font-family:'Arial Black';-inkscape-font-specification:'Arial Black, ';stroke-width:0.182159"
             id="path195" />
          <path
             d="m 438.82138,723.47149 10.43506,-1.09529 15.71733,18.57738 -2.09995,-20.00669 10.53373,-1.10565 3.79596,36.165 -10.53373,1.10565 -15.62779,-18.43714 2.08441,19.85868 -10.50906,1.10306 z"
             style="font-style:normal;font-variant:normal;font-weight:normal;font-stretch:normal;font-size:50.8px;font-family:'Arial Black';-inkscape-font-specification:'Arial Black, ';stroke-width:0.182159"
             id="path197" />
          <path
             d="m 487.7933,719.79668 16.6425,1.30467 q 4.92103,0.38578 7.83326,1.95765 2.93696,1.5738 4.71947,4.2265 1.78251,2.6527 2.41297,6.03615 0.63047,3.38345 0.33968,7.09277 -0.45557,5.81127 -2.04294,8.92134 -1.56071,3.08727 -4.08054,5.07924 -2.5179,1.96724 -5.26956,2.47307 -3.76214,0.7003 -6.75432,0.46573 l -16.6425,-1.30468 z m 10.55854,9.08815 -1.55281,19.80778 2.7449,0.21519 q 3.51149,0.27528 5.05531,-0.375 1.54577,-0.67501 2.53776,-2.53794 0.99393,-1.88767 1.33512,-6.23994 0.45169,-5.76181 -1.26098,-8.03582 -1.71267,-2.27402 -6.06494,-2.61521 z"
             style="font-style:normal;font-variant:normal;font-weight:normal;font-stretch:normal;font-size:50.8px;font-family:'Arial Black';-inkscape-font-specification:'Arial Black, ';stroke-width:0.182159"
             id="path199" />
          <path
             d="m 533.02218,724.61537 29.19563,7.37572 -1.90165,7.52737 -18.27733,-4.61741 -1.4156,5.60344 16.95463,4.28326 -1.81659,7.19069 -16.95463,-4.28326 -1.75583,6.95019 18.80641,4.75108 -2.01708,7.98431 -29.72472,-7.50938 z"
             style="font-style:normal;font-variant:normal;font-weight:normal;font-stretch:normal;font-size:50.8px;font-family:'Arial Black';-inkscape-font-specification:'Arial Black, ';stroke-width:0.182159"
             id="path201" />
          <path
             d="m 559.7884,769.44016 14.7171,-33.25242 17.12523,7.57942 q 4.7633,2.10818 6.91965,4.03907 2.15634,1.93089 2.71493,4.83641 0.56863,2.88285 -0.83683,6.05838 -1.22475,2.76726 -3.2977,4.26397 -2.06292,1.47402 -4.67916,1.80801 -1.66694,0.21163 -4.18876,-0.28061 1.56622,1.42558 2.13442,2.40945 0.38636,0.65925 0.86013,2.46935 0.49646,1.82013 0.53813,2.70659 l 0.7009,11.83856 -11.6134,-5.13995 -0.99169,-12.59115 q -0.17,-2.43516 -0.72556,-3.38631 -0.77011,-1.26311 -2.17642,-1.88552 l -0.9073,-0.40156 -5.97318,13.49604 z m 19.07446,-15.21134 4.33234,1.91744 q 0.70316,0.31121 2.92267,0.75103 1.11106,0.24761 2.11761,-0.31055 1.02923,-0.54812 1.5111,-1.63687 0.71277,-1.61045 0.0735,-2.92414 -0.63923,-1.31368 -3.45185,-2.55851 l -4.5138,-1.99776 z"
             style="font-style:normal;font-variant:normal;font-weight:normal;font-stretch:normal;font-size:50.8px;font-family:'Arial Black';-inkscape-font-specification:'Arial Black, ';stroke-width:0.182159"
             id="path203" />
        </g>
      </g>
      <g
         id="g256"
         transform="matrix(1.4037254,0,0,1.3976154,-191.68137,-305.02949)"
         style="fill:#00ffff;stroke:#00ffff;stroke-width:0.713946">
        <g
           aria-label="DISASTER"
           id="g240"
           style="font-style:normal;font-variant:normal;font-weight:normal;font-stretch:normal;font-size:50.8px;line-height:1.25;font-family:'Arial Black';-inkscape-font-specification:'Arial Black, ';fill:#00ffff;fill-opacity:1;stroke:#00ffff;stroke-width:0.188898"
           transform="translate(-6.047619,-93.738095)">
          <path
             d="m 343.66133,746.07806 14.60942,-8.0771 q 4.31987,-2.38832 7.61633,-2.6803 3.31816,-0.30397 6.26696,0.9284 2.94879,1.23236 5.3385,3.70916 2.3897,2.47681 4.18995,5.73299 2.82038,5.10136 3.20837,8.57148 0.39769,3.4364 -0.60842,6.48685 -1.01811,3.02875 -3.03622,4.96646 -2.75441,2.65656 -5.38107,4.10875 l -14.60942,8.0771 z m 13.81822,1.77029 9.61331,17.38803 2.40958,-1.33218 q 3.08252,-1.70423 4.01295,-3.09728 0.91842,-1.41475 0.72036,-3.51602 -0.21006,-2.12298 -2.32235,-5.94357 -2.79638,-5.05795 -5.47832,-6.0127 -2.68194,-0.95476 -6.50253,1.15753 z"
             style="font-style:normal;font-variant:normal;font-weight:normal;font-stretch:normal;font-size:50.8px;font-family:'Arial Black';-inkscape-font-specification:'Arial Black, ';fill:#00ffff;stroke:#00ffff;stroke-width:0.188898"
             id="path224" />
          <path
             d="m 383.37573,725.85046 10.48752,-4.10235 13.24682,33.865 -10.48752,4.10236 z"
             style="font-style:normal;font-variant:normal;font-weight:normal;font-stretch:normal;font-size:50.8px;font-family:'Arial Black';-inkscape-font-specification:'Arial Black, ';fill:#00ffff;stroke:#00ffff;stroke-width:0.188898"
             id="path226" />
          <path
             d="m 409.7795,741.42024 10.2057,-3.2536 q 0.9712,2.44147 2.33798,3.50484 2.22176,1.71819 5.34925,0.93275 2.33358,-0.58606 3.3127,-1.98283 0.99712,-1.42686 0.63461,-2.87032 -0.34438,-1.37128 -1.81915,-2.15178 -1.47476,-0.7805 -6.09492,-0.64319 -7.57397,0.18861 -11.29993,-1.71447 -3.75002,-1.89703 -4.78922,-6.03494 -0.68273,-2.71851 0.27683,-5.51699 0.97757,-2.82858 3.78473,-4.99135 2.82518,-2.19287 8.33437,-3.57645 6.76019,-1.69776 10.93105,-0.0599 4.18888,1.6078 6.24004,6.92376 l -10.12155,3.18132 q -1.00713,-2.279 -2.60218,-3.02929 -1.57099,-0.75633 -3.88052,-0.17631 -1.90055,0.47731 -2.65744,1.53694 -0.76292,1.03557 -0.47291,2.19034 0.21147,0.84202 1.17454,1.31625 0.94506,0.50433 3.98301,0.38075 7.53179,-0.25475 11.00993,0.5597 3.49615,0.78434 5.47755,2.7675 2.00546,1.97712 2.73048,4.86403 0.8519,3.39213 -0.30561,6.72625 -1.15751,3.33412 -4.15098,5.67155 -2.99951,2.31337 -8.12378,3.60029 -8.99755,2.25965 -13.33187,-0.33462 -4.33432,-2.59427 -6.13271,-7.82026 z"
             style="font-style:normal;font-variant:normal;font-weight:normal;font-stretch:normal;font-size:50.8px;font-family:'Arial Black';-inkscape-font-specification:'Arial Black, ';fill:#00ffff;stroke:#00ffff;stroke-width:0.188898"
             id="path228" />
          <path
             d="m 472.24867,736.49805 -12.7629,0.9636 -1.30421,6.11829 -11.45198,0.86463 10.89092,-37.28944 12.21874,-0.92251 16.36627,35.2315 -11.72405,0.88517 z m -2.94174,-7.66336 -4.9911,-12.73245 -2.99808,13.33563 z"
             style="font-style:normal;font-variant:normal;font-weight:normal;font-stretch:normal;font-size:50.8px;font-family:'Arial Black';-inkscape-font-specification:'Arial Black, ';fill:#00ffff;stroke:#00ffff;stroke-width:0.188898"
             id="path230" />
          <path
             d="m 489.03293,729.78748 10.70639,0.33953 q 0.10057,2.62562 1.03403,4.08422 1.52082,2.36125 4.73111,2.66477 2.39538,0.22647 3.78456,-0.76338 1.41621,-1.0122 1.5563,-2.49388 0.13308,-1.40759 -0.99658,-2.63558 -1.12967,-1.228 -5.53069,-2.64071 -7.20255,-2.3503 -10.07959,-5.38791 -2.90175,-3.03995 -2.50017,-7.28741 0.26383,-2.79049 2.10246,-5.10818 1.86565,-2.34006 5.23372,-3.44179 3.3951,-1.1241 9.05015,-0.58943 6.93917,0.65607 10.32412,3.59221 3.41198,2.91378 3.5711,8.60951 l -10.60295,-0.37958 q -0.18866,-2.48445 -1.4418,-3.72412 -1.22844,-1.23733 -3.59912,-1.46147 -1.95087,-0.18445 -3.01803,0.56177 -1.06483,0.72153 -1.1769,1.90687 -0.0817,0.86431 0.66783,1.63281 0.72252,0.79085 3.62749,1.68839 7.18486,2.27388 10.19167,4.20257 3.03384,1.90633 4.23965,4.43712 1.23051,2.53313 0.95033,5.49648 -0.3292,3.48193 -2.53321,6.23847 -2.20402,2.75654 -5.80601,3.96073 -3.59966,1.1795 -8.8596,0.6822 -9.23577,-0.87321 -12.45558,-4.76543 -3.21981,-3.89223 -3.17068,-9.41878 z"
             style="font-style:normal;font-variant:normal;font-weight:normal;font-stretch:normal;font-size:50.8px;font-family:'Arial Black';-inkscape-font-specification:'Arial Black, ';fill:#00ffff;stroke:#00ffff;stroke-width:0.188898"
             id="path232" />
          <path
             d="m 533.15169,710.19718 33.03275,8.68756 -2.28388,8.68399 -11.08288,-2.91478 -6.96519,26.48377 -10.86698,-2.85799 6.96519,-26.48378 -11.08289,-2.91478 z"
             style="font-style:normal;font-variant:normal;font-weight:normal;font-stretch:normal;font-size:50.8px;font-family:'Arial Black';-inkscape-font-specification:'Arial Black, ';fill:#00ffff;stroke:#00ffff;stroke-width:0.188898"
             id="path234" />
          <path
             d="m 576.57576,722.7424 27.48938,12.29309 -3.16947,7.08746 -17.20917,-7.69584 -2.35938,5.27597 15.96377,7.1389 -3.0277,6.77045 -15.96377,-7.1389 -2.92644,6.54402 17.70733,7.9186 -3.36187,7.51769 -27.98754,-12.51585 z"
             style="font-style:normal;font-variant:normal;font-weight:normal;font-stretch:normal;font-size:50.8px;font-family:'Arial Black';-inkscape-font-specification:'Arial Black, ';fill:#00ffff;stroke:#00ffff;stroke-width:0.188898"
             id="path236" />
          <path
             d="m 595.22315,771.50902 20.26484,-30.19359 15.5499,10.43653 q 4.32514,2.90287 6.11365,5.1787 1.78851,2.27583 1.83436,5.23421 0.0597,2.93778 -1.87558,5.82121 -1.68643,2.5127 -3.98769,3.62692 -2.28743,1.09364 -4.92193,0.9685 -1.67838,-0.0809 -4.0765,-1.00333 1.29505,1.67577 1.68387,2.74332 0.26608,0.7163 0.41851,2.58115 0.17304,1.87868 0.0602,2.75892 l -1.36436,11.78054 -10.54511,-7.07749 1.2086,-12.57218 q 0.2552,-2.42771 -0.12685,-3.46084 -0.53921,-1.3776 -1.81615,-2.23464 l -0.82384,-0.55293 -8.22481,12.25457 z m 21.42498,-11.67006 3.93382,2.64023 q 0.63847,0.42852 2.74797,1.24687 1.05123,0.43668 2.13937,0.0617 1.10874,-0.36117 1.77226,-1.34977 0.98145,-1.46231 0.57991,-2.867 -0.40153,-1.40469 -2.95542,-3.11877 l -4.09859,-2.75082 z"
             style="font-style:normal;font-variant:normal;font-weight:normal;font-stretch:normal;font-size:50.8px;font-family:'Arial Black';-inkscape-font-specification:'Arial Black, ';fill:#00ffff;stroke:#00ffff;stroke-width:0.188898"
             id="path238" />
        </g>
        <g
           aria-label="LANDER"
           id="g254"
           style="font-style:normal;font-variant:normal;font-weight:normal;font-stretch:normal;font-size:50.8px;line-height:1.25;font-family:'Arial Black';-inkscape-font-specification:'Arial Black, ';fill:#00ffff;fill-opacity:1;stroke:#00ffff;stroke-width:0.188898"
           transform="translate(-3.7797619,-48.380952)">
          <path
             d="m 357.84018,752.15869 10.10675,-4.9105 11.97815,24.65334 15.77367,-7.66386 3.91323,8.05417 -25.88042,12.57435 z"
             style="font-style:normal;font-variant:normal;font-weight:normal;font-stretch:normal;font-size:50.8px;font-family:'Arial Black';-inkscape-font-specification:'Arial Black, ';fill:#00ffff;stroke:#00ffff;stroke-width:0.188898"
             id="path242" />
          <path
             d="m 424.20711,758.23687 -12.27085,3.63956 0.0185,6.25572 -11.01047,3.26573 2.76287,-38.74894 11.74767,-3.48438 23.44347,30.97608 -11.27206,3.34332 z m -4.4951,-6.86841 -7.56962,-11.38978 -0.11155,13.66803 z"
             style="font-style:normal;font-variant:normal;font-weight:normal;font-stretch:normal;font-size:50.8px;font-family:'Arial Black';-inkscape-font-specification:'Arial Black, ';fill:#00ffff;stroke:#00ffff;stroke-width:0.188898"
             id="path244" />
          <path
             d="m 438.82138,723.47149 10.43506,-1.09529 15.71733,18.57738 -2.09995,-20.00669 10.53373,-1.10565 3.79596,36.165 -10.53373,1.10565 -15.62779,-18.43714 2.08441,19.85868 -10.50906,1.10306 z"
             style="font-style:normal;font-variant:normal;font-weight:normal;font-stretch:normal;font-size:50.8px;font-family:'Arial Black';-inkscape-font-specification:'Arial Black, ';fill:#00ffff;stroke:#00ffff;stroke-width:0.188898"
             id="path246" />
          <path
             d="m 487.7933,719.79668 16.6425,1.30467 q 4.92103,0.38578 7.83326,1.95765 2.93696,1.5738 4.71947,4.2265 1.78251,2.6527 2.41297,6.03615 0.63047,3.38345 0.33968,7.09277 -0.45557,5.81127 -2.04294,8.92134 -1.56071,3.08727 -4.08054,5.07924 -2.5179,1.96724 -5.26956,2.47307 -3.76214,0.7003 -6.75432,0.46573 l -16.6425,-1.30468 z m 10.55854,9.08815 -1.55281,19.80778 2.7449,0.21519 q 3.51149,0.27528 5.05531,-0.375 1.54577,-0.67501 2.53776,-2.53794 0.99393,-1.88767 1.33512,-6.23994 0.45169,-5.76181 -1.26098,-8.03582 -1.71267,-2.27402 -6.06494,-2.61521 z"
             style="font-style:normal;font-variant:normal;font-weight:normal;font-stretch:normal;font-size:50.8px;font-family:'Arial Black';-inkscape-font-specification:'Arial Black, ';fill:#00ffff;stroke:#00ffff;stroke-width:0.188898"
             id="path248" />
          <path
             d="m 533.02218,724.61537 29.19563,7.37572 -1.90165,7.52737 -18.27733,-4.61741 -1.4156,5.60344 16.95463,4.28326 -1.81659,7.19069 -16.95463,-4.28326 -1.75583,6.95019 18.80641,4.75108 -2.01708,7.98431 -29.72472,-7.50938 z"
             style="font-style:normal;font-variant:normal;font-weight:normal;font-stretch:normal;font-size:50.8px;font-family:'Arial Black';-inkscape-font-specification:'Arial Black, ';fill:#00ffff;stroke:#00ffff;stroke-width:0.188898"
             id="path250" />
          <path
             d="m 559.7884,769.44016 14.7171,-33.25242 17.12523,7.57942 q 4.7633,2.10818 6.91965,4.03907 2.15634,1.93089 2.71493,4.83641 0.56863,2.88285 -0.83683,6.05838 -1.22475,2.76726 -3.2977,4.26397 -2.06292,1.47402 -4.67916,1.80801 -1.66694,0.21163 -4.18876,-0.28061 1.56622,1.42558 2.13442,2.40945 0.38636,0.65925 0.86013,2.46935 0.49646,1.82013 0.53813,2.70659 l 0.7009,11.83856 -11.6134,-5.13995 -0.99169,-12.59115 q -0.17,-2.43516 -0.72556,-3.38631 -0.77011,-1.26311 -2.17642,-1.88552 l -0.9073,-0.40156 -5.97318,13.49604 z m 19.07446,-15.21134 4.33234,1.91744 q 0.70316,0.31121 2.92267,0.75103 1.11106,0.24761 2.11761,-0.31055 1.02923,-0.54812 1.5111,-1.63687 0.71277,-1.61045 0.0735,-2.92414 -0.63923,-1.31368 -3.45185,-2.55851 l -4.5138,-1.99776 z"
             style="font-style:normal;font-variant:normal;font-weight:normal;font-stretch:normal;font-size:50.8px;font-family:'Arial Black';-inkscape-font-specification:'Arial Black, ';fill:#00ffff;stroke:#00ffff;stroke-width:0.188898"
             id="path252" />
        </g>
      </g>
    </g>
    <text
       xml:space="preserve"
       style="font-style:normal;font-variant:normal;font-weight:normal;font-stretch:normal;font-size:50.8px;line-height:1.25;font-family:Krungthep;-inkscape-font-specification:Krungthep;stroke-width:0.264583"
       x="857.40057"
       y="-157.15448"
       id="text296"><tspan
         sodipodi:role="line"
         id="tspan294"
         x="857.40057"
         y="-157.15448"
         style="font-style:normal;font-variant:normal;font-weight:normal;font-stretch:normal;font-size:50.8px;font-family:Krungthep;-inkscape-font-specification:Krungthep;stroke-width:0.264583">DISASTER LANDER</tspan></text>
    <g
       id="g358"
       transform="translate(29.934187,-35.279578)">
      <g
         aria-label="DISASTER"
         id="text300"
         style="font-style:normal;font-variant:normal;font-weight:normal;font-stretch:normal;font-size:50.8px;line-height:1.25;font-family:Krungthep;-inkscape-font-specification:Krungthep;stroke-width:0.264583"
         transform="translate(-10.690781,-165.70711)">
        <path
           d="m 1166.3927,208.40585 -16.6578,-34.26557 15.2411,-7.40923 q 3.1231,-1.51828 6.4471,-0.35409 3.3419,1.15552 4.8515,4.26083 l 9.2659,19.06023 q 1.5009,3.08747 0.354,6.44716 -1.1376,3.33317 -4.2608,4.85145 z m 5.746,-7.51512 3.8192,-1.85664 q 1.5883,-0.77215 2.1482,-2.4344 0.5778,-1.67092 -0.1683,-3.20573 l -9.2659,-19.06023 q -0.7548,-1.55266 -2.4349,-2.10389 -1.6709,-0.57776 -3.2236,0.17704 l -3.8191,1.85665 z"
           style="font-style:normal;font-variant:normal;font-weight:normal;font-stretch:normal;font-size:50.8px;font-family:Krungthep;-inkscape-font-specification:Krungthep;stroke-width:0.264583"
           id="path305" />
        <path
           d="m 1201.1676,193.04305 -12.0001,-36.16084 8.042,-2.66878 12.0001,36.16084 z"
           style="font-style:normal;font-variant:normal;font-weight:normal;font-stretch:normal;font-size:50.8px;font-family:Krungthep;-inkscape-font-specification:Krungthep;stroke-width:0.264583"
           id="path307" />
        <path
           d="m 1236.3664,153.52861 -4.1257,0.82235 q -1.375,-4.05602 -4.7612,-3.38107 -2.1796,0.43445 -3.0794,1.70644 -0.8998,1.27199 -0.4848,3.35431 0.3104,1.55688 1.8079,2.67476 l 10.7669,8.13284 q 2.9757,2.23965 3.6002,5.37286 l 0.4189,2.10178 q 0.6711,3.36674 -1.2689,6.32316 -1.9438,2.93695 -5.369,3.61966 l -4.1646,0.83011 q -4.1257,0.82235 -6.6231,-0.84492 -2.4974,-1.66726 -3.3197,-5.79298 l 4.1646,-0.83011 q 0.046,0.4359 0.097,0.68889 0.3374,1.6931 1.8159,2.30895 1.4784,0.61585 3.0353,0.30553 2.2185,-0.44221 2.9782,-1.70651 0.7597,-1.2643 0.3524,-3.3077 -0.3142,-1.57634 -1.8078,-2.67476 l -10.7592,-8.09392 q -2.9718,-2.22019 -3.6002,-5.37286 l -0.4189,-2.10178 q -0.6749,-3.3862 1.2689,-6.32315 1.9439,-2.93696 5.369,-3.61966 l 4.1646,-0.83011 q 7.7844,-1.55161 9.9428,6.63789 z"
           style="font-style:normal;font-variant:normal;font-weight:normal;font-stretch:normal;font-size:50.8px;font-family:Krungthep;-inkscape-font-specification:Krungthep;stroke-width:0.264583"
           id="path309" />
        <path
           d="m 1250.6209,181.38727 -1.6104,-29.60279 q -0.1887,-3.46753 2.1534,-6.07907 2.3608,-2.63244 5.8283,-2.82108 l 8.4806,-0.46136 q 3.4675,-0.18864 6.0802,2.17324 2.6324,2.3608 2.82,5.80852 l 1.6104,29.60279 -8.441,0.4592 -0.9205,-16.92154 -8.4806,0.46135 0.9206,16.92154 z m 7.2919,-21.5814 8.4806,-0.46136 -0.4614,-8.48058 q -0.094,-1.72386 -1.4287,-2.88337 -1.3162,-1.1804 -3.0401,-1.08662 -1.7437,0.0949 -2.9241,1.41108 -1.1814,1.29641 -1.0877,3.02026 z"
           style="font-style:normal;font-variant:normal;font-weight:normal;font-stretch:normal;font-size:50.8px;font-family:Krungthep;-inkscape-font-specification:Krungthep;stroke-width:0.264583"
           id="path311" />
        <path
           d="m 1308.1031,152.61268 -4.1909,-0.36682 q -0.1832,-4.27883 -3.6229,-4.57989 -2.214,-0.19379 -3.4342,0.77506 -1.2202,0.96886 -1.4054,3.08406 -0.1384,1.58145 0.9859,3.07423 l 8.0562,10.8243 q 2.2288,2.98383 1.9503,6.1665 l -0.1869,2.13496 q -0.2993,3.4199 -2.9901,5.71418 -2.689,2.2745 -6.1682,1.96998 l -4.2304,-0.37027 q -4.1909,-0.36681 -6.1209,-2.66715 -1.9301,-2.30033 -1.5633,-6.49118 l 4.2304,0.37027 q -0.078,0.43144 -0.1001,0.68843 -0.1505,1.71983 1.0961,2.72533 1.2466,1.00549 2.828,1.14391 2.2536,0.19725 3.3372,-0.80349 1.0836,-1.00074 1.2652,-3.07639 0.1402,-1.60123 -0.9858,-3.07424 l -8.0597,-10.78476 q -2.2305,-2.96406 -1.9502,-6.1665 l 0.1868,-2.13497 q 0.3011,-3.43966 2.9901,-5.71417 2.6891,-2.27451 6.1682,-1.96998 l 4.2304,0.37027 q 7.9073,0.6921 7.6842,9.15833 z"
           style="font-style:normal;font-variant:normal;font-weight:normal;font-stretch:normal;font-size:50.8px;font-family:Krungthep;-inkscape-font-specification:Krungthep;stroke-width:0.264583"
           id="path313" />
        <path
           d="m 1318.0513,184.41244 7.0438,-33.11252 -8.2684,-1.75891 0.8836,-4.15362 24.8441,5.28498 -0.8836,4.15362 -8.2684,-1.75891 -7.0439,33.11252 z"
           style="font-style:normal;font-variant:normal;font-weight:normal;font-stretch:normal;font-size:50.8px;font-family:Krungthep;-inkscape-font-specification:Krungthep;stroke-width:0.264583"
           id="path315" />
        <path
           d="m 1338.7098,189.20502 12.4096,-36.02239 19.9999,6.88989 -1.3831,4.01499 -12.0075,-4.13652 -4.1365,12.00747 8.03,2.7663 -1.3703,3.97747 -8.0299,-2.7663 -4.1366,12.00746 12.0075,4.13652 -1.3831,4.015 z"
           style="font-style:normal;font-variant:normal;font-weight:normal;font-stretch:normal;font-size:50.8px;font-family:Krungthep;-inkscape-font-specification:Krungthep;stroke-width:0.264583"
           id="path317" />
        <path
           d="m 1366.631,199.30215 17.3575,-33.91648 15.0857,7.72047 q 3.0914,1.58206 4.1604,4.93788 1.0867,3.36485 -0.4863,6.43853 l -1.0487,2.04912 q -1.2928,2.52607 -4.2263,3.98954 -2.9245,1.4458 -6.9874,-0.63348 l 3.7449,1.91656 q 1.5545,0.79555 2.0979,2.47798 0.5433,1.68242 -0.2522,3.23693 l -6.8345,13.35461 -7.5253,-3.85119 5.7859,-11.3055 q 0.7955,-1.5545 0.2345,-3.24597 -0.5433,-1.68243 -2.0802,-2.46894 l -3.7802,-1.93464 -7.7205,15.08577 z m 17.1622,-14.97952 3.7803,1.93464 q 1.5368,0.78651 3.2193,0.24317 1.7091,-0.55197 2.4956,-2.08881 l 1.9346,-3.78027 q 0.7866,-1.53684 0.2165,-3.21064 -0.5433,-1.68243 -2.0802,-2.46894 l -3.7802,-1.93464 z"
           style="font-style:normal;font-variant:normal;font-weight:normal;font-stretch:normal;font-size:50.8px;font-family:Krungthep;-inkscape-font-specification:Krungthep;stroke-width:0.264583"
           id="path319" />
      </g>
      <g
         aria-label="LANDER"
         id="text324"
         style="font-style:normal;font-variant:normal;font-weight:normal;font-stretch:normal;font-size:50.8px;line-height:1.25;font-family:Krungthep;-inkscape-font-specification:Krungthep;stroke-width:0.264583"
         transform="translate(-17.10525,-109.04597)">
        <path
           d="m 1189.4949,197.33714 -12.9758,-35.82232 7.9481,-2.879 11.5295,31.82962 11.9408,-4.32527 1.4462,3.9927 z"
           style="font-style:normal;font-variant:normal;font-weight:normal;font-stretch:normal;font-size:50.8px;font-family:Krungthep;-inkscape-font-specification:Krungthep;stroke-width:0.264583"
           id="path329" />
        <path
           d="m 1217.5605,187.64785 -6.0628,-29.02001 q -0.7102,-3.39927 1.2106,-6.33458 1.9362,-2.95879 5.3354,-3.66896 l 8.3137,-1.73686 q 3.3992,-0.71016 6.3386,1.23005 2.9588,1.93615 3.6649,5.31599 l 6.0628,29.02001 -8.2748,1.72875 -3.4656,-16.58842 -8.3136,1.73687 3.4656,16.58841 z m 3.9489,-22.43513 8.3136,-1.73686 -1.7369,-8.31364 q -0.353,-1.68992 -1.8478,-2.63451 -1.4794,-0.96807 -3.1693,-0.61502 -1.7093,0.35711 -2.6774,1.83651 -0.9722,1.45997 -0.6191,3.14989 z"
           style="font-style:normal;font-variant:normal;font-weight:normal;font-stretch:normal;font-size:50.8px;font-family:Krungthep;-inkscape-font-specification:Krungthep;stroke-width:0.264583"
           id="path331" />
        <path
           d="m 1250.8205,181.2274 -1.6922,-38.0624 1.9229,-0.0855 24.3915,20.0899 -0.9395,-21.13256 4.2424,-0.18862 1.6922,38.0624 -1.9428,0.0864 -24.3717,-20.09078 0.9396,21.13256 z"
           style="font-style:normal;font-variant:normal;font-weight:normal;font-stretch:normal;font-size:50.8px;font-family:Krungthep;-inkscape-font-specification:Krungthep;stroke-width:0.264583"
           id="path333" />
        <path
           d="m 1288.9296,180.39651 4.4335,-37.84117 16.8315,1.97198 q 3.449,0.4041 5.6217,3.17606 2.1924,2.77428 1.7906,6.20363 l -2.4661,21.04915 q -0.3995,3.40965 -3.1761,5.62174 -2.7546,2.19469 -6.2036,1.79059 z m 8.8902,-3.23403 4.2177,0.49415 q 1.7541,0.20551 3.1215,-0.89299 1.3872,-1.09619 1.5857,-2.79116 l 2.4662,-21.04915 q 0.2009,-1.71468 -0.9173,-3.08441 -1.0962,-1.38714 -2.8109,-1.58803 l -4.2177,-0.49415 z"
           style="font-style:normal;font-variant:normal;font-weight:normal;font-stretch:normal;font-size:50.8px;font-family:Krungthep;-inkscape-font-specification:Krungthep;stroke-width:0.264583"
           id="path335" />
        <path
           d="m 1322.4456,185.07999 9.7204,-36.83918 20.4534,5.3968 -1.0834,4.10604 -12.2798,-3.24011 -3.2401,12.27973 8.2121,2.16682 -1.0733,4.06766 -8.2121,-2.16682 -3.2401,12.27972 12.2798,3.24011 -1.0834,4.10603 z"
           style="font-style:normal;font-variant:normal;font-weight:normal;font-stretch:normal;font-size:50.8px;font-family:Krungthep;-inkscape-font-specification:Krungthep;stroke-width:0.264583"
           id="path337" />
        <path
           d="m 1351.0343,193.09319 14.7972,-35.10917 15.6162,6.58166 q 3.2001,1.3487 4.5148,4.6161 1.333,3.2751 -0.01,6.45687 l -0.894,2.12118 q -1.1021,2.6149 -3.9192,4.29167 -2.8093,1.65848 -7.0151,-0.11409 l 3.8767,1.63385 q 1.6091,0.6782 2.2756,2.31575 0.6665,1.63756 -0.012,3.24673 l -5.8264,13.82423 -7.7898,-3.28312 4.9324,-11.70306 q 0.6782,-1.60917 -0.01,-3.25443 -0.6665,-1.63755 -2.2574,-2.30804 l -3.9132,-1.64927 -6.5817,15.61626 z m 16.0054,-16.20978 3.9132,1.64927 q 1.5909,0.6705 3.2284,0.004 1.6636,-0.67707 2.334,-2.26795 l 1.6493,-3.91321 q 0.6705,-1.59089 -0.022,-3.21786 -0.6665,-1.63755 -2.2573,-2.30805 l -3.9132,-1.64927 z"
           style="font-style:normal;font-variant:normal;font-weight:normal;font-stretch:normal;font-size:50.8px;font-family:Krungthep;-inkscape-font-specification:Krungthep;stroke-width:0.264583"
           id="path339" />
      </g>
    </g>
    <g
       id="g392"
       transform="translate(-370.9701,-60.937452)">
      <g
         aria-label="DISASTER"
         id="g376"
         style="font-style:normal;font-variant:normal;font-weight:normal;font-stretch:normal;font-size:50.8px;line-height:1.25;font-family:Krungthep;-inkscape-font-specification:Krungthep;stroke-width:0.264583"
         transform="translate(-10.690781,-165.70711)">
        <path
           d="m 1166.3927,208.40585 -16.6578,-34.26557 15.2411,-7.40923 q 3.1231,-1.51828 6.4471,-0.35409 3.3419,1.15552 4.8515,4.26083 l 9.2659,19.06023 q 1.5009,3.08747 0.354,6.44716 -1.1376,3.33317 -4.2608,4.85145 z m 5.746,-7.51512 3.8192,-1.85664 q 1.5883,-0.77215 2.1482,-2.4344 0.5778,-1.67092 -0.1683,-3.20573 l -9.2659,-19.06023 q -0.7548,-1.55266 -2.4349,-2.10389 -1.6709,-0.57776 -3.2236,0.17704 l -3.8191,1.85665 z"
           style="font-style:normal;font-variant:normal;font-weight:normal;font-stretch:normal;font-size:50.8px;font-family:Krungthep;-inkscape-font-specification:Krungthep;stroke-width:0.264583"
           id="path360" />
        <path
           d="m 1201.1676,193.04305 -12.0001,-36.16084 8.042,-2.66878 12.0001,36.16084 z"
           style="font-style:normal;font-variant:normal;font-weight:normal;font-stretch:normal;font-size:50.8px;font-family:Krungthep;-inkscape-font-specification:Krungthep;stroke-width:0.264583"
           id="path362" />
        <path
           d="m 1236.3664,153.52861 -4.1257,0.82235 q -1.375,-4.05602 -4.7612,-3.38107 -2.1796,0.43445 -3.0794,1.70644 -0.8998,1.27199 -0.4848,3.35431 0.3104,1.55688 1.8079,2.67476 l 10.7669,8.13284 q 2.9757,2.23965 3.6002,5.37286 l 0.4189,2.10178 q 0.6711,3.36674 -1.2689,6.32316 -1.9438,2.93695 -5.369,3.61966 l -4.1646,0.83011 q -4.1257,0.82235 -6.6231,-0.84492 -2.4974,-1.66726 -3.3197,-5.79298 l 4.1646,-0.83011 q 0.046,0.4359 0.097,0.68889 0.3374,1.6931 1.8159,2.30895 1.4784,0.61585 3.0353,0.30553 2.2185,-0.44221 2.9782,-1.70651 0.7597,-1.2643 0.3524,-3.3077 -0.3142,-1.57634 -1.8078,-2.67476 l -10.7592,-8.09392 q -2.9718,-2.22019 -3.6002,-5.37286 l -0.4189,-2.10178 q -0.6749,-3.3862 1.2689,-6.32315 1.9439,-2.93696 5.369,-3.61966 l 4.1646,-0.83011 q 7.7844,-1.55161 9.9428,6.63789 z"
           style="font-style:normal;font-variant:normal;font-weight:normal;font-stretch:normal;font-size:50.8px;font-family:Krungthep;-inkscape-font-specification:Krungthep;stroke-width:0.264583"
           id="path364" />
        <path
           d="m 1250.6209,181.38727 -1.6104,-29.60279 q -0.1887,-3.46753 2.1534,-6.07907 2.3608,-2.63244 5.8283,-2.82108 l 8.4806,-0.46136 q 3.4675,-0.18864 6.0802,2.17324 2.6324,2.3608 2.82,5.80852 l 1.6104,29.60279 -8.441,0.4592 -0.9205,-16.92154 -8.4806,0.46135 0.9206,16.92154 z m 7.2919,-21.5814 8.4806,-0.46136 -0.4614,-8.48058 q -0.094,-1.72386 -1.4287,-2.88337 -1.3162,-1.1804 -3.0401,-1.08662 -1.7437,0.0949 -2.9241,1.41108 -1.1814,1.29641 -1.0877,3.02026 z"
           style="font-style:normal;font-variant:normal;font-weight:normal;font-stretch:normal;font-size:50.8px;font-family:Krungthep;-inkscape-font-specification:Krungthep;stroke-width:0.264583"
           id="path366" />
        <path
           d="m 1308.1031,152.61268 -4.1909,-0.36682 q -0.1832,-4.27883 -3.6229,-4.57989 -2.214,-0.19379 -3.4342,0.77506 -1.2202,0.96886 -1.4054,3.08406 -0.1384,1.58145 0.9859,3.07423 l 8.0562,10.8243 q 2.2288,2.98383 1.9503,6.1665 l -0.1869,2.13496 q -0.2993,3.4199 -2.9901,5.71418 -2.689,2.2745 -6.1682,1.96998 l -4.2304,-0.37027 q -4.1909,-0.36681 -6.1209,-2.66715 -1.9301,-2.30033 -1.5633,-6.49118 l 4.2304,0.37027 q -0.078,0.43144 -0.1001,0.68843 -0.1505,1.71983 1.0961,2.72533 1.2466,1.00549 2.828,1.14391 2.2536,0.19725 3.3372,-0.80349 1.0836,-1.00074 1.2652,-3.07639 0.1402,-1.60123 -0.9858,-3.07424 l -8.0597,-10.78476 q -2.2305,-2.96406 -1.9502,-6.1665 l 0.1868,-2.13497 q 0.3011,-3.43966 2.9901,-5.71417 2.6891,-2.27451 6.1682,-1.96998 l 4.2304,0.37027 q 7.9073,0.6921 7.6842,9.15833 z"
           style="font-style:normal;font-variant:normal;font-weight:normal;font-stretch:normal;font-size:50.8px;font-family:Krungthep;-inkscape-font-specification:Krungthep;stroke-width:0.264583"
           id="path368" />
        <path
           d="m 1318.0513,184.41244 7.0438,-33.11252 -8.2684,-1.75891 0.8836,-4.15362 24.8441,5.28498 -0.8836,4.15362 -8.2684,-1.75891 -7.0439,33.11252 z"
           style="font-style:normal;font-variant:normal;font-weight:normal;font-stretch:normal;font-size:50.8px;font-family:Krungthep;-inkscape-font-specification:Krungthep;stroke-width:0.264583"
           id="path370" />
        <path
           d="m 1338.7098,189.20502 12.4096,-36.02239 19.9999,6.88989 -1.3831,4.01499 -12.0075,-4.13652 -4.1365,12.00747 8.03,2.7663 -1.3703,3.97747 -8.0299,-2.7663 -4.1366,12.00746 12.0075,4.13652 -1.3831,4.015 z"
           style="font-style:normal;font-variant:normal;font-weight:normal;font-stretch:normal;font-size:50.8px;font-family:Krungthep;-inkscape-font-specification:Krungthep;stroke-width:0.264583"
           id="path372" />
        <path
           d="m 1366.631,199.30215 17.3575,-33.91648 15.0857,7.72047 q 3.0914,1.58206 4.1604,4.93788 1.0867,3.36485 -0.4863,6.43853 l -1.0487,2.04912 q -1.2928,2.52607 -4.2263,3.98954 -2.9245,1.4458 -6.9874,-0.63348 l 3.7449,1.91656 q 1.5545,0.79555 2.0979,2.47798 0.5433,1.68242 -0.2522,3.23693 l -6.8345,13.35461 -7.5253,-3.85119 5.7859,-11.3055 q 0.7955,-1.5545 0.2345,-3.24597 -0.5433,-1.68243 -2.0802,-2.46894 l -3.7802,-1.93464 -7.7205,15.08577 z m 17.1622,-14.97952 3.7803,1.93464 q 1.5368,0.78651 3.2193,0.24317 1.7091,-0.55197 2.4956,-2.08881 l 1.9346,-3.78027 q 0.7866,-1.53684 0.2165,-3.21064 -0.5433,-1.68243 -2.0802,-2.46894 l -3.7802,-1.93464 z"
           style="font-style:normal;font-variant:normal;font-weight:normal;font-stretch:normal;font-size:50.8px;font-family:Krungthep;-inkscape-font-specification:Krungthep;stroke-width:0.264583"
           id="path374" />
      </g>
      <g
         aria-label="LANDER"
         id="g390"
         style="font-style:normal;font-variant:normal;font-weight:normal;font-stretch:normal;font-size:50.8px;line-height:1.25;font-family:Krungthep;-inkscape-font-specification:Krungthep;stroke-width:0.264583"
         transform="translate(-17.10525,-109.04597)">
        <path
           d="m 1189.4949,197.33714 -12.9758,-35.82232 7.9481,-2.879 11.5295,31.82962 11.9408,-4.32527 1.4462,3.9927 z"
           style="font-style:normal;font-variant:normal;font-weight:normal;font-stretch:normal;font-size:50.8px;font-family:Krungthep;-inkscape-font-specification:Krungthep;stroke-width:0.264583"
           id="path378" />
        <path
           d="m 1217.5605,187.64785 -6.0628,-29.02001 q -0.7102,-3.39927 1.2106,-6.33458 1.9362,-2.95879 5.3354,-3.66896 l 8.3137,-1.73686 q 3.3992,-0.71016 6.3386,1.23005 2.9588,1.93615 3.6649,5.31599 l 6.0628,29.02001 -8.2748,1.72875 -3.4656,-16.58842 -8.3136,1.73687 3.4656,16.58841 z m 3.9489,-22.43513 8.3136,-1.73686 -1.7369,-8.31364 q -0.353,-1.68992 -1.8478,-2.63451 -1.4794,-0.96807 -3.1693,-0.61502 -1.7093,0.35711 -2.6774,1.83651 -0.9722,1.45997 -0.6191,3.14989 z"
           style="font-style:normal;font-variant:normal;font-weight:normal;font-stretch:normal;font-size:50.8px;font-family:Krungthep;-inkscape-font-specification:Krungthep;stroke-width:0.264583"
           id="path380" />
        <path
           d="m 1250.8205,181.2274 -1.6922,-38.0624 1.9229,-0.0855 24.3915,20.0899 -0.9395,-21.13256 4.2424,-0.18862 1.6922,38.0624 -1.9428,0.0864 -24.3717,-20.09078 0.9396,21.13256 z"
           style="font-style:normal;font-variant:normal;font-weight:normal;font-stretch:normal;font-size:50.8px;font-family:Krungthep;-inkscape-font-specification:Krungthep;stroke-width:0.264583"
           id="path382" />
        <path
           d="m 1288.9296,180.39651 4.4335,-37.84117 16.8315,1.97198 q 3.449,0.4041 5.6217,3.17606 2.1924,2.77428 1.7906,6.20363 l -2.4661,21.04915 q -0.3995,3.40965 -3.1761,5.62174 -2.7546,2.19469 -6.2036,1.79059 z m 8.8902,-3.23403 4.2177,0.49415 q 1.7541,0.20551 3.1215,-0.89299 1.3872,-1.09619 1.5857,-2.79116 l 2.4662,-21.04915 q 0.2009,-1.71468 -0.9173,-3.08441 -1.0962,-1.38714 -2.8109,-1.58803 l -4.2177,-0.49415 z"
           style="font-style:normal;font-variant:normal;font-weight:normal;font-stretch:normal;font-size:50.8px;font-family:Krungthep;-inkscape-font-specification:Krungthep;stroke-width:0.264583"
           id="path384" />
        <path
           d="m 1322.4456,185.07999 9.7204,-36.83918 20.4534,5.3968 -1.0834,4.10604 -12.2798,-3.24011 -3.2401,12.27973 8.2121,2.16682 -1.0733,4.06766 -8.2121,-2.16682 -3.2401,12.27972 12.2798,3.24011 -1.0834,4.10603 z"
           style="font-style:normal;font-variant:normal;font-weight:normal;font-stretch:normal;font-size:50.8px;font-family:Krungthep;-inkscape-font-specification:Krungthep;stroke-width:0.264583"
           id="path386" />
        <path
           d="m 1351.0343,193.09319 14.7972,-35.10917 15.6162,6.58166 q 3.2001,1.3487 4.5148,4.6161 1.333,3.2751 -0.01,6.45687 l -0.894,2.12118 q -1.1021,2.6149 -3.9192,4.29167 -2.8093,1.65848 -7.0151,-0.11409 l 3.8767,1.63385 q 1.6091,0.6782 2.2756,2.31575 0.6665,1.63756 -0.012,3.24673 l -5.8264,13.82423 -7.7898,-3.28312 4.9324,-11.70306 q 0.6782,-1.60917 -0.01,-3.25443 -0.6665,-1.63755 -2.2574,-2.30804 l -3.9132,-1.64927 -6.5817,15.61626 z m 16.0054,-16.20978 3.9132,1.64927 q 1.5909,0.6705 3.2284,0.004 1.6636,-0.67707 2.334,-2.26795 l 1.6493,-3.91321 q 0.6705,-1.59089 -0.022,-3.21786 -0.6665,-1.63755 -2.2573,-2.30805 l -3.9132,-1.64927 z"
           style="font-style:normal;font-variant:normal;font-weight:normal;font-stretch:normal;font-size:50.8px;font-family:Krungthep;-inkscape-font-specification:Krungthep;stroke-width:0.264583"
           id="path388" />
      </g>
    </g>
    <g
       id="g426"
       transform="matrix(0.9725628,0,0,1,63.887856,-35.779908)"
       style="fill:#0000ff;stroke-width:1.01403">
      <g
         aria-label="DISASTER"
         id="g410"
         style="font-style:normal;font-variant:normal;font-weight:normal;font-stretch:normal;font-size:50.8px;line-height:1.25;font-family:Krungthep;-inkscape-font-specification:Krungthep;fill:#0000ff;stroke-width:0.268286"
         transform="translate(-10.690781,-165.70711)">
        <path
           d="m 1166.3927,208.40585 -16.6578,-34.26557 15.2411,-7.40923 q 3.1231,-1.51828 6.4471,-0.35409 3.3419,1.15552 4.8515,4.26083 l 9.2659,19.06023 q 1.5009,3.08747 0.354,6.44716 -1.1376,3.33317 -4.2608,4.85145 z m 5.746,-7.51512 3.8192,-1.85664 q 1.5883,-0.77215 2.1482,-2.4344 0.5778,-1.67092 -0.1683,-3.20573 l -9.2659,-19.06023 q -0.7548,-1.55266 -2.4349,-2.10389 -1.6709,-0.57776 -3.2236,0.17704 l -3.8191,1.85665 z"
           style="font-style:normal;font-variant:normal;font-weight:normal;font-stretch:normal;font-size:50.8px;font-family:Krungthep;-inkscape-font-specification:Krungthep;fill:#0000ff;stroke-width:0.268286"
           id="path394" />
        <path
           d="m 1201.1676,193.04305 -12.0001,-36.16084 8.042,-2.66878 12.0001,36.16084 z"
           style="font-style:normal;font-variant:normal;font-weight:normal;font-stretch:normal;font-size:50.8px;font-family:Krungthep;-inkscape-font-specification:Krungthep;fill:#0000ff;stroke-width:0.268286"
           id="path396" />
        <path
           d="m 1236.3664,153.52861 -4.1257,0.82235 q -1.375,-4.05602 -4.7612,-3.38107 -2.1796,0.43445 -3.0794,1.70644 -0.8998,1.27199 -0.4848,3.35431 0.3104,1.55688 1.8079,2.67476 l 10.7669,8.13284 q 2.9757,2.23965 3.6002,5.37286 l 0.4189,2.10178 q 0.6711,3.36674 -1.2689,6.32316 -1.9438,2.93695 -5.369,3.61966 l -4.1646,0.83011 q -4.1257,0.82235 -6.6231,-0.84492 -2.4974,-1.66726 -3.3197,-5.79298 l 4.1646,-0.83011 q 0.046,0.4359 0.097,0.68889 0.3374,1.6931 1.8159,2.30895 1.4784,0.61585 3.0353,0.30553 2.2185,-0.44221 2.9782,-1.70651 0.7597,-1.2643 0.3524,-3.3077 -0.3142,-1.57634 -1.8078,-2.67476 l -10.7592,-8.09392 q -2.9718,-2.22019 -3.6002,-5.37286 l -0.4189,-2.10178 q -0.6749,-3.3862 1.2689,-6.32315 1.9439,-2.93696 5.369,-3.61966 l 4.1646,-0.83011 q 7.7844,-1.55161 9.9428,6.63789 z"
           style="font-style:normal;font-variant:normal;font-weight:normal;font-stretch:normal;font-size:50.8px;font-family:Krungthep;-inkscape-font-specification:Krungthep;fill:#0000ff;stroke-width:0.268286"
           id="path398" />
        <path
           d="m 1250.6209,181.38727 -1.6104,-29.60279 q -0.1887,-3.46753 2.1534,-6.07907 2.3608,-2.63244 5.8283,-2.82108 l 8.4806,-0.46136 q 3.4675,-0.18864 6.0802,2.17324 2.6324,2.3608 2.82,5.80852 l 1.6104,29.60279 -8.441,0.4592 -0.9205,-16.92154 -8.4806,0.46135 0.9206,16.92154 z m 7.2919,-21.5814 8.4806,-0.46136 -0.4614,-8.48058 q -0.094,-1.72386 -1.4287,-2.88337 -1.3162,-1.1804 -3.0401,-1.08662 -1.7437,0.0949 -2.9241,1.41108 -1.1814,1.29641 -1.0877,3.02026 z"
           style="font-style:normal;font-variant:normal;font-weight:normal;font-stretch:normal;font-size:50.8px;font-family:Krungthep;-inkscape-font-specification:Krungthep;fill:#0000ff;stroke-width:0.268286"
           id="path400" />
        <path
           d="m 1308.1031,152.61268 -4.1909,-0.36682 q -0.1832,-4.27883 -3.6229,-4.57989 -2.214,-0.19379 -3.4342,0.77506 -1.2202,0.96886 -1.4054,3.08406 -0.1384,1.58145 0.9859,3.07423 l 8.0562,10.8243 q 2.2288,2.98383 1.9503,6.1665 l -0.1869,2.13496 q -0.2993,3.4199 -2.9901,5.71418 -2.689,2.2745 -6.1682,1.96998 l -4.2304,-0.37027 q -4.1909,-0.36681 -6.1209,-2.66715 -1.9301,-2.30033 -1.5633,-6.49118 l 4.2304,0.37027 q -0.078,0.43144 -0.1001,0.68843 -0.1505,1.71983 1.0961,2.72533 1.2466,1.00549 2.828,1.14391 2.2536,0.19725 3.3372,-0.80349 1.0836,-1.00074 1.2652,-3.07639 0.1402,-1.60123 -0.9858,-3.07424 l -8.0597,-10.78476 q -2.2305,-2.96406 -1.9502,-6.1665 l 0.1868,-2.13497 q 0.3011,-3.43966 2.9901,-5.71417 2.6891,-2.27451 6.1682,-1.96998 l 4.2304,0.37027 q 7.9073,0.6921 7.6842,9.15833 z"
           style="font-style:normal;font-variant:normal;font-weight:normal;font-stretch:normal;font-size:50.8px;font-family:Krungthep;-inkscape-font-specification:Krungthep;fill:#0000ff;stroke-width:0.268286"
           id="path402" />
        <path
           d="m 1318.0513,184.41244 7.0438,-33.11252 -8.2684,-1.75891 0.8836,-4.15362 24.8441,5.28498 -0.8836,4.15362 -8.2684,-1.75891 -7.0439,33.11252 z"
           style="font-style:normal;font-variant:normal;font-weight:normal;font-stretch:normal;font-size:50.8px;font-family:Krungthep;-inkscape-font-specification:Krungthep;fill:#0000ff;stroke-width:0.268286"
           id="path404" />
        <path
           d="m 1338.7098,189.20502 12.4096,-36.02239 19.9999,6.88989 -1.3831,4.01499 -12.0075,-4.13652 -4.1365,12.00747 8.03,2.7663 -1.3703,3.97747 -8.0299,-2.7663 -4.1366,12.00746 12.0075,4.13652 -1.3831,4.015 z"
           style="font-style:normal;font-variant:normal;font-weight:normal;font-stretch:normal;font-size:50.8px;font-family:Krungthep;-inkscape-font-specification:Krungthep;fill:#0000ff;stroke-width:0.268286"
           id="path406" />
        <path
           d="m 1366.631,199.30215 17.3575,-33.91648 15.0857,7.72047 q 3.0914,1.58206 4.1604,4.93788 1.0867,3.36485 -0.4863,6.43853 l -1.0487,2.04912 q -1.2928,2.52607 -4.2263,3.98954 -2.9245,1.4458 -6.9874,-0.63348 l 3.7449,1.91656 q 1.5545,0.79555 2.0979,2.47798 0.5433,1.68242 -0.2522,3.23693 l -6.8345,13.35461 -7.5253,-3.85119 5.7859,-11.3055 q 0.7955,-1.5545 0.2345,-3.24597 -0.5433,-1.68243 -2.0802,-2.46894 l -3.7802,-1.93464 -7.7205,15.08577 z m 17.1622,-14.97952 3.7803,1.93464 q 1.5368,0.78651 3.2193,0.24317 1.7091,-0.55197 2.4956,-2.08881 l 1.9346,-3.78027 q 0.7866,-1.53684 0.2165,-3.21064 -0.5433,-1.68243 -2.0802,-2.46894 l -3.7802,-1.93464 z"
           style="font-style:normal;font-variant:normal;font-weight:normal;font-stretch:normal;font-size:50.8px;font-family:Krungthep;-inkscape-font-specification:Krungthep;fill:#0000ff;stroke-width:0.268286"
           id="path408" />
      </g>
      <g
         aria-label="LANDER"
         id="g424"
         style="font-style:normal;font-variant:normal;font-weight:normal;font-stretch:normal;font-size:50.8px;line-height:1.25;font-family:Krungthep;-inkscape-font-specification:Krungthep;fill:#0000ff;stroke-width:0.268286"
         transform="translate(-17.10525,-109.04597)">
        <path
           d="m 1189.4949,197.33714 -12.9758,-35.82232 7.9481,-2.879 11.5295,31.82962 11.9408,-4.32527 1.4462,3.9927 z"
           style="font-style:normal;font-variant:normal;font-weight:normal;font-stretch:normal;font-size:50.8px;font-family:Krungthep;-inkscape-font-specification:Krungthep;fill:#0000ff;stroke-width:0.268286"
           id="path412" />
        <path
           d="m 1217.5605,187.64785 -6.0628,-29.02001 q -0.7102,-3.39927 1.2106,-6.33458 1.9362,-2.95879 5.3354,-3.66896 l 8.3137,-1.73686 q 3.3992,-0.71016 6.3386,1.23005 2.9588,1.93615 3.6649,5.31599 l 6.0628,29.02001 -8.2748,1.72875 -3.4656,-16.58842 -8.3136,1.73687 3.4656,16.58841 z m 3.9489,-22.43513 8.3136,-1.73686 -1.7369,-8.31364 q -0.353,-1.68992 -1.8478,-2.63451 -1.4794,-0.96807 -3.1693,-0.61502 -1.7093,0.35711 -2.6774,1.83651 -0.9722,1.45997 -0.6191,3.14989 z"
           style="font-style:normal;font-variant:normal;font-weight:normal;font-stretch:normal;font-size:50.8px;font-family:Krungthep;-inkscape-font-specification:Krungthep;fill:#0000ff;stroke-width:0.268286"
           id="path414" />
        <path
           d="m 1250.8205,181.2274 -1.6922,-38.0624 1.9229,-0.0855 24.3915,20.0899 -0.9395,-21.13256 4.2424,-0.18862 1.6922,38.0624 -1.9428,0.0864 -24.3717,-20.09078 0.9396,21.13256 z"
           style="font-style:normal;font-variant:normal;font-weight:normal;font-stretch:normal;font-size:50.8px;font-family:Krungthep;-inkscape-font-specification:Krungthep;fill:#0000ff;stroke-width:0.268286"
           id="path416" />
        <path
           d="m 1288.9296,180.39651 4.4335,-37.84117 16.8315,1.97198 q 3.449,0.4041 5.6217,3.17606 2.1924,2.77428 1.7906,6.20363 l -2.4661,21.04915 q -0.3995,3.40965 -3.1761,5.62174 -2.7546,2.19469 -6.2036,1.79059 z m 8.8902,-3.23403 4.2177,0.49415 q 1.7541,0.20551 3.1215,-0.89299 1.3872,-1.09619 1.5857,-2.79116 l 2.4662,-21.04915 q 0.2009,-1.71468 -0.9173,-3.08441 -1.0962,-1.38714 -2.8109,-1.58803 l -4.2177,-0.49415 z"
           style="font-style:normal;font-variant:normal;font-weight:normal;font-stretch:normal;font-size:50.8px;font-family:Krungthep;-inkscape-font-specification:Krungthep;fill:#0000ff;stroke-width:0.268286"
           id="path418" />
        <path
           d="m 1322.4456,185.07999 9.7204,-36.83918 20.4534,5.3968 -1.0834,4.10604 -12.2798,-3.24011 -3.2401,12.27973 8.2121,2.16682 -1.0733,4.06766 -8.2121,-2.16682 -3.2401,12.27972 12.2798,3.24011 -1.0834,4.10603 z"
           style="font-style:normal;font-variant:normal;font-weight:normal;font-stretch:normal;font-size:50.8px;font-family:Krungthep;-inkscape-font-specification:Krungthep;fill:#0000ff;stroke-width:0.268286"
           id="path420" />
        <path
           d="m 1351.0343,193.09319 14.7972,-35.10917 15.6162,6.58166 q 3.2001,1.3487 4.5148,4.6161 1.333,3.2751 -0.01,6.45687 l -0.894,2.12118 q -1.1021,2.6149 -3.9192,4.29167 -2.8093,1.65848 -7.0151,-0.11409 l 3.8767,1.63385 q 1.6091,0.6782 2.2756,2.31575 0.6665,1.63756 -0.012,3.24673 l -5.8264,13.82423 -7.7898,-3.28312 4.9324,-11.70306 q 0.6782,-1.60917 -0.01,-3.25443 -0.6665,-1.63755 -2.2574,-2.30804 l -3.9132,-1.64927 -6.5817,15.61626 z m 16.0054,-16.20978 3.9132,1.64927 q 1.5909,0.6705 3.2284,0.004 1.6636,-0.67707 2.334,-2.26795 l 1.6493,-3.91321 q 0.6705,-1.59089 -0.022,-3.21786 -0.6665,-1.63755 -2.2573,-2.30805 l -3.9132,-1.64927 z"
           style="font-style:normal;font-variant:normal;font-weight:normal;font-stretch:normal;font-size:50.8px;font-family:Krungthep;-inkscape-font-specification:Krungthep;fill:#0000ff;stroke-width:0.268286"
           id="path422" />
      </g>
    </g>
    <text
       xml:space="preserve"
       style="font-style:normal;font-variant:normal;font-weight:normal;font-stretch:normal;font-size:50.8px;line-height:1.25;font-family:Krungthep;-inkscape-font-specification:Krungthep;stroke-width:0.264583"
       x="854.80548"
       y="-349.1908"
       id="text430"><tspan
         sodipodi:role="line"
         id="tspan428"
         x="854.80548"
         y="-349.1908"
         style="font-style:normal;font-variant:normal;font-weight:normal;font-stretch:normal;font-size:50.8px;font-family:Krungthep;-inkscape-font-specification:Krungthep;stroke-width:0.264583">DISASTER LANDER</tspan></text>
    <text
       xml:space="preserve"
       style="font-style:normal;font-variant:normal;font-weight:normal;font-stretch:normal;font-size:49.1848px;line-height:1.25;font-family:Krungthep;-inkscape-font-specification:Krungthep;fill:#00ff00;stroke-width:0.264583"
       x="835.7984"
       y="-359.42426"
       id="text434"
       transform="scale(1.0246956,0.97589958)"><tspan
         sodipodi:role="line"
         id="tspan432"
         x="835.7984"
         y="-359.42426"
         style="font-style:normal;font-variant:normal;font-weight:normal;font-stretch:normal;font-size:49.1848px;font-family:Krungthep;-inkscape-font-specification:Krungthep;fill:#00ff00;stroke-width:0.264583">DISASTER LANDER</tspan></text>
    <g
       aria-label="D"
       id="text483"
       style="font-style:normal;font-variant:normal;font-weight:normal;font-stretch:normal;font-size:50.8px;line-height:1.25;font-family:Krungthep;-inkscape-font-specification:Krungthep;fill:#ffff00;stroke:#000000;stroke-width:1.1;stroke-miterlimit:4;stroke-dasharray:none;stroke-opacity:1"
       transform="translate(-91.514039,-3.3399284)">
      <path
         d="m 954.49717,-483.7995 v -38.1 h 16.94657 q 3.47265,0 5.95312,2.50031 2.50031,2.50032 2.50031,5.95313 v 21.19312 q 0,3.43297 -2.50031,5.95313 -2.48047,2.50031 -5.95312,2.50031 z m 8.45344,-4.24656 h 4.24656 q 1.7661,0 2.99641,-1.25016 1.25016,-1.25015 1.25016,-2.95672 v -21.19312 q 0,-1.72641 -1.27,-2.95672 -1.25016,-1.25016 -2.97657,-1.25016 h -4.24656 z"
         style="font-style:normal;font-variant:normal;font-weight:normal;font-stretch:normal;font-size:50.8px;font-family:Krungthep;-inkscape-font-specification:Krungthep;fill:#ffff00;stroke:#000000;stroke-width:1.1;stroke-miterlimit:4;stroke-dasharray:none;stroke-opacity:1"
         id="path485" />
    </g>
    <text
       xml:space="preserve"
       style="font-style:normal;font-variant:normal;font-weight:normal;font-stretch:normal;font-size:50.79999999999999716px;line-height:1.25;font-family:Krungthep;-inkscape-font-specification:Krungthep;stroke-width:2;fill:#ff0000;fill-opacity:1;stroke:#000000;stroke-opacity:1;stroke-miterlimit:4;stroke-dasharray:none;"
       x="791.93799"
       y="-549.93005"
       id="text1313"><tspan
         sodipodi:role="line"
         id="tspan1311"
         x="791.93799"
         y="-549.93005"
         style="font-style:normal;font-variant:normal;font-weight:normal;font-stretch:normal;font-size:50.79999999999999716px;font-family:Krungthep;-inkscape-font-specification:Krungthep;stroke-width:2;fill:#ff0000;fill-opacity:1;stroke:#000000;stroke-opacity:1;stroke-miterlimit:4;stroke-dasharray:none;">DISASTER LANDER</tspan></text>
    <g
       aria-label="DISASTER LANDER"
       id="text1317"
       style="font-style:normal;font-variant:normal;font-weight:normal;font-stretch:normal;font-size:50.8px;line-height:1.25;font-family:Krungthep;-inkscape-font-specification:Krungthep;fill:#ff0000;fill-opacity:1;stroke:#000000;stroke-width:2;stroke-miterlimit:4;stroke-dasharray:none;stroke-opacity:1">
      <path
         d="m 1090.9722,276.84788 -30.0834,-23.37948 10.399,-13.38084 q 2.1309,-2.74197 5.6273,-3.16625 3.5085,-0.43994 6.2348,1.67883 l 16.7338,13.00484 q 2.7107,2.10659 3.1663,5.62726 0.4521,3.49283 -1.6788,6.23481 z m 1.8343,-9.28058 2.6058,-3.35305 q 1.0837,-1.39449 0.8516,-3.13307 -0.22,-1.75425 -1.5675,-2.80145 l -16.7339,-13.00484 q -1.3631,-1.05939 -3.1139,-0.81157 -1.7542,0.21997 -2.8136,1.58312 l -2.6058,3.35305 z"
         style="font-style:normal;font-variant:normal;font-weight:normal;font-stretch:normal;font-size:50.8px;font-family:Krungthep;-inkscape-font-specification:Krungthep;fill:#ff0000;fill-opacity:1;stroke:#000000;stroke-width:2;stroke-miterlimit:4;stroke-dasharray:none;stroke-opacity:1"
         id="path1326" />
      <path
         d="m 1115.3808,247.70114 -26.7425,-27.13761 6.0353,-5.94742 26.7425,27.13762 z"
         style="font-style:normal;font-variant:normal;font-weight:normal;font-stretch:normal;font-size:50.8px;font-family:Krungthep;-inkscape-font-specification:Krungthep;fill:#ff0000;fill-opacity:1;stroke:#000000;stroke-width:2;stroke-miterlimit:4;stroke-dasharray:none;stroke-opacity:1"
         id="path1328" />
      <path
         d="m 1129.4986,196.70079 -3.3378,2.56062 q -3.0257,-3.0311 -5.7652,-0.92946 -1.7634,1.35278 -2.0086,2.89145 -0.2452,1.53866 1.0472,3.22332 0.9663,1.25955 2.8037,1.60072 l 13.2523,2.53872 q 3.659,0.69442 5.6037,3.22927 l 1.3044,1.7004 q 2.0896,2.72378 1.6555,6.23312 -0.4462,3.4936 -3.2172,5.6194 l -3.3693,2.58478 q -3.3378,2.56062 -6.3149,2.16835 -2.977,-0.39226 -5.5376,-3.73007 l 3.3693,-2.58478 q 0.2342,0.37053 0.3912,0.57521 1.0509,1.36976 2.6493,1.26901 1.5984,-0.10076 2.8579,-1.06703 1.7949,-1.37694 1.9178,-2.8468 0.1229,-1.46986 -1.1453,-3.12303 -0.9784,-1.27529 -2.8037,-1.60072 l -13.2281,-2.50723 q -3.647,-0.67868 -5.6037,-3.22927 l -1.3045,-1.7004 q -2.1016,-2.73953 -1.6554,-6.23312 0.4461,-3.4936 3.2172,-5.6194 l 3.3693,-2.58478 q 6.2977,-4.83136 11.8525,1.56172 z"
         style="font-style:normal;font-variant:normal;font-weight:normal;font-stretch:normal;font-size:50.8px;font-family:Krungthep;-inkscape-font-specification:Krungthep;fill:#ff0000;fill-opacity:1;stroke:#000000;stroke-width:2;stroke-miterlimit:4;stroke-dasharray:none;stroke-opacity:1"
         id="path1330" />
      <path
         d="m 1154.5952,215.39449 -14.5243,-25.84498 q -1.7013,-3.02736 -0.7541,-6.40497 0.9547,-3.40464 3.9821,-5.10595 l 7.404,-4.16092 q 3.0274,-1.70131 6.4147,-0.73683 3.4047,0.95475 5.0962,3.96481 l 14.5244,25.84498 -7.3695,4.14147 -8.3024,-14.7735 -7.404,4.16091 8.3024,14.7735 z m -2.9939,-22.5824 7.404,-4.16092 -4.1609,-7.40405 q -0.8458,-1.50503 -2.5557,-1.95538 -1.7023,-0.47738 -3.2073,0.36841 -1.5224,0.85552 -1.9997,2.55784 -0.4871,1.68502 0.3586,3.19005 z"
         style="font-style:normal;font-variant:normal;font-weight:normal;font-stretch:normal;font-size:50.8px;font-family:Krungthep;-inkscape-font-specification:Krungthep;fill:#ff0000;fill-opacity:1;stroke:#000000;stroke-width:2;stroke-miterlimit:4;stroke-dasharray:none;stroke-opacity:1"
         id="path1332" />
      <path
         d="m 1193.4485,164.18314 -3.9217,1.52261 q -2.0549,-3.75756 -5.2736,-2.50787 -2.0718,0.80439 -2.7384,2.21269 -0.6666,1.40829 0.1019,3.38763 0.5746,1.47987 2.2427,2.32229 l 12.0098,6.15088 q 3.3178,1.69201 4.4741,4.67026 l 0.7757,1.99783 q 1.2425,3.20023 -0.1577,6.44729 -1.4073,3.22857 -4.663,4.49262 l -3.9587,1.53697 q -3.9217,1.52261 -6.6695,0.31176 -2.7478,-1.21084 -4.2704,-5.13251 l 3.9587,-1.53697 q 0.121,0.42133 0.2143,0.66181 0.6249,1.60936 2.1875,1.96059 1.5626,0.35123 3.0424,-0.22334 2.1088,-0.81876 2.6388,-2.19528 0.5299,-1.37652 -0.2243,-3.31886 -0.5817,-1.49837 -2.2427,-2.32229 l -11.9954,-6.11388 q -3.3106,-1.67352 -4.4741,-4.67026 l -0.7757,-1.99783 q -1.2497,-3.21873 0.1577,-6.44729 1.4073,-3.22857 4.663,-4.49262 l 3.9587,-1.53697 q 7.3994,-2.87285 10.9399,4.82074 z"
         style="font-style:normal;font-variant:normal;font-weight:normal;font-stretch:normal;font-size:50.8px;font-family:Krungthep;-inkscape-font-specification:Krungthep;fill:#ff0000;fill-opacity:1;stroke:#000000;stroke-width:2;stroke-miterlimit:4;stroke-dasharray:none;stroke-opacity:1"
         id="path1334" />
      <path
         d="m 1216.4232,188.31513 -8.3113,-32.81734 -8.1947,2.07539 -1.0426,-4.11659 24.6227,-6.23591 1.0425,4.11659 -8.1947,2.07539 8.3113,32.81733 z"
         style="font-style:normal;font-variant:normal;font-weight:normal;font-stretch:normal;font-size:50.8px;font-family:Krungthep;-inkscape-font-specification:Krungthep;fill:#ff0000;fill-opacity:1;stroke:#000000;stroke-width:2;stroke-miterlimit:4;stroke-dasharray:none;stroke-opacity:1"
         id="path1336" />
      <path
         d="m 1237.0736,183.4868 -4.7835,-37.79852 20.986,-2.65582 0.5332,4.21296 -12.5995,1.59449 1.5945,12.5995 8.4259,-1.06631 0.5282,4.17359 -8.4259,1.06631 1.5944,12.59951 12.5996,-1.59449 0.5331,4.21296 z"
         style="font-style:normal;font-variant:normal;font-weight:normal;font-stretch:normal;font-size:50.8px;font-family:Krungthep;-inkscape-font-specification:Krungthep;fill:#ff0000;fill-opacity:1;stroke:#000000;stroke-width:2;stroke-miterlimit:4;stroke-dasharray:none;stroke-opacity:1"
         id="path1338" />
      <path
         d="m 1266.5827,180.20828 0.5858,-38.0955 16.9446,0.26055 q 3.4722,0.0534 5.9139,2.59155 2.4616,2.53845 2.4085,5.99086 l -0.035,2.3016 q -0.044,2.83732 -2.0286,5.44633 -1.9847,2.58917 -6.5483,2.51899 l 4.2064,0.0647 q 1.746,0.0268 2.9768,1.29608 1.2308,1.26923 1.204,3.01527 l -0.2307,15.00011 -8.4524,-0.12997 0.1952,-12.6985 q 0.027,-1.74605 -1.2237,-3.01558 -1.2308,-1.26923 -2.957,-1.29577 l -4.2461,-0.0653 -0.2605,16.94456 z m 8.7777,-21.02097 4.2461,0.0653 q 1.7262,0.0265 2.9954,-1.20424 1.2894,-1.25033 1.3159,-2.97653 l 0.065,-4.24606 q 0.027,-1.7262 -1.2244,-2.9759 -1.2308,-1.26923 -2.957,-1.29577 l -4.246,-0.0653 z"
         style="font-style:normal;font-variant:normal;font-weight:normal;font-stretch:normal;font-size:50.8px;font-family:Krungthep;-inkscape-font-specification:Krungthep;fill:#ff0000;fill-opacity:1;stroke:#000000;stroke-width:2;stroke-miterlimit:4;stroke-dasharray:none;stroke-opacity:1"
         id="path1340" />
      <path
         d="m 1312.6983,183.18166 8.0562,-37.23852 8.2623,1.78748 -7.1583,33.08797 12.4128,2.68542 -0.8979,4.15054 z"
         style="font-style:normal;font-variant:normal;font-weight:normal;font-stretch:normal;font-size:50.8px;font-family:Krungthep;-inkscape-font-specification:Krungthep;fill:#ff0000;fill-opacity:1;stroke:#000000;stroke-width:2;stroke-miterlimit:4;stroke-dasharray:none;stroke-opacity:1"
         id="path1342" />
      <path
         d="m 1341.617,189.90887 10.3232,-27.7912 q 1.2092,-3.25533 4.3982,-4.71684 3.2144,-1.4732 6.4698,-0.264 l 7.9616,2.95738 q 3.2553,1.20921 4.7099,4.41677 1.4732,3.21446 0.2709,6.45119 l -10.3232,27.79119 -7.9244,-2.94356 5.901,-15.88599 -7.9616,-2.95738 -5.901,15.88599 z m 15.2902,-16.88604 7.9616,2.95738 2.9574,-7.9616 q 0.6012,-1.61836 -0.1609,-3.2139 -0.7367,-1.60724 -2.355,-2.20839 -1.637,-0.60805 -3.2442,0.12855 -1.6003,0.718 -2.2015,2.33636 z"
         style="font-style:normal;font-variant:normal;font-weight:normal;font-stretch:normal;font-size:50.8px;font-family:Krungthep;-inkscape-font-specification:Krungthep;fill:#ff0000;fill-opacity:1;stroke:#000000;stroke-width:2;stroke-miterlimit:4;stroke-dasharray:none;stroke-opacity:1"
         id="path1344" />
      <path
         d="m 1373.1831,202.19455 18.7925,-33.14287 1.6744,0.94942 9.9871,29.98015 10.4338,-18.40119 3.694,2.09458 -18.7925,33.14287 -1.6917,-0.9592 -9.9698,-29.97037 -10.4338,18.4012 z"
         style="font-style:normal;font-variant:normal;font-weight:normal;font-stretch:normal;font-size:50.8px;font-family:Krungthep;-inkscape-font-specification:Krungthep;fill:#ff0000;fill-opacity:1;stroke:#000000;stroke-width:2;stroke-miterlimit:4;stroke-dasharray:none;stroke-opacity:1"
         id="path1346" />
      <path
         d="m 1405.9194,221.72325 23.7983,-29.75315 13.234,10.5853 q 2.7118,2.16912 3.0871,5.67104 0.3908,3.51431 -1.7659,6.21069 l -13.2378,16.55019 q -2.1444,2.68088 -5.6711,3.08716 -3.4988,0.40318 -6.2107,-1.76594 z m 9.254,1.96401 3.3162,2.65253 q 1.3792,1.10315 3.1209,0.89536 1.7571,-0.19539 2.8231,-1.52809 l 13.2378,-16.55018 q 1.0784,-1.34819 0.8551,-3.10225 -0.1954,-1.75716 -1.5436,-2.83552 l -3.3162,-2.65252 z"
         style="font-style:normal;font-variant:normal;font-weight:normal;font-stretch:normal;font-size:50.8px;font-family:Krungthep;-inkscape-font-specification:Krungthep;fill:#ff0000;fill-opacity:1;stroke:#000000;stroke-width:2;stroke-miterlimit:4;stroke-dasharray:none;stroke-opacity:1"
         id="path1348" />
      <path
         d="m 1431.8744,243.44026 27.7713,-26.08386 14.482,15.41883 -3.0954,2.90727 -8.6946,-9.25709 -9.2571,8.69462 5.8145,6.19068 -3.0664,2.88009 -5.8145,-6.19068 -9.2571,8.69462 8.6946,9.25709 -3.0953,2.90726 z"
         style="font-style:normal;font-variant:normal;font-weight:normal;font-stretch:normal;font-size:50.8px;font-family:Krungthep;-inkscape-font-specification:Krungthep;fill:#ff0000;fill-opacity:1;stroke:#000000;stroke-width:2;stroke-miterlimit:4;stroke-dasharray:none;stroke-opacity:1"
         id="path1350" />
      <path
         d="m 1451.8636,265.39452 31.1966,-21.87187 9.7285,13.87602 q 1.9935,2.84344 1.3702,6.30982 -0.612,3.48262 -3.4392,5.46476 l -1.8848,1.32142 q -2.3235,1.629 -5.6009,1.55175 -3.2611,-0.0886 -5.8812,-3.82574 l 2.415,3.44463 q 1.0025,1.42985 0.6965,3.17116 -0.3059,1.74131 -1.7358,2.74377 l -12.2837,8.61205 -4.8528,-6.92176 10.3989,-7.29062 q 1.4298,-1.00246 1.7244,-2.76002 0.306,-1.74131 -0.6851,-3.15491 l -2.4378,-3.47713 -13.876,9.72843 z m 22.1734,-5.22168 2.4378,3.47712 q 0.9911,1.4136 2.7324,1.71957 1.769,0.31083 3.1826,-0.68024 l 3.4771,-2.4378 q 1.4136,-0.99107 1.6919,-2.73724 0.306,-1.74131 -0.6851,-3.15491 l -2.4378,-3.47713 z"
         style="font-style:normal;font-variant:normal;font-weight:normal;font-stretch:normal;font-size:50.8px;font-family:Krungthep;-inkscape-font-specification:Krungthep;fill:#ff0000;fill-opacity:1;stroke:#000000;stroke-width:2;stroke-miterlimit:4;stroke-dasharray:none;stroke-opacity:1"
         id="path1352" />
    </g>
    <text
       xml:space="preserve"
       style="font-style:normal;font-variant:normal;font-weight:normal;font-stretch:normal;font-size:50.8px;line-height:1.25;font-family:Krungthep;-inkscape-font-specification:Krungthep;fill:#ff0000;fill-opacity:1;stroke:#000000;stroke-width:2;stroke-miterlimit:4;stroke-dasharray:none;stroke-opacity:1"
       x="1003.6895"
       y="-233.30482"
       id="text1321"><tspan
         sodipodi:role="line"
         id="tspan1319"
         x="1003.6895"
         y="-233.30482"
         style="font-style:normal;font-variant:normal;font-weight:normal;font-stretch:normal;font-size:50.8px;font-family:Krungthep;-inkscape-font-specification:Krungthep;fill:#ff0000;fill-opacity:1;stroke:#000000;stroke-width:2;stroke-miterlimit:4;stroke-dasharray:none;stroke-opacity:1">DISASTER LANDER</tspan></text>
  </g>
</svg>
