<?xml version="1.0" encoding="UTF-8" standalone="no"?>
<!-- Created with Inkscape (http://www.inkscape.org/) -->

<svg
   width="210mm"
   height="297mm"
   viewBox="0 0 210 297"
   version="1.1"
   id="svg1679"
   inkscape:version="1.1.1 (c3084ef, 2021-09-22)"
   sodipodi:docname="disaster-lander-0002.svg"
   xmlns:inkscape="http://www.inkscape.org/namespaces/inkscape"
   xmlns:sodipodi="http://sodipodi.sourceforge.net/DTD/sodipodi-0.dtd"
   xmlns="http://www.w3.org/2000/svg"
   xmlns:svg="http://www.w3.org/2000/svg">
  <sodipodi:namedview
     id="namedview1681"
     pagecolor="#ffffff"
     bordercolor="#666666"
     borderopacity="1.0"
     inkscape:pageshadow="2"
     inkscape:pageopacity="0.0"
     inkscape:pagecheckerboard="0"
     inkscape:document-units="mm"
     showgrid="false"
     showborder="false"
     inkscape:zoom="0.74882777"
     inkscape:cx="337.8614"
     inkscape:cy="657.69463"
     inkscape:window-width="1439"
     inkscape:window-height="819"
     inkscape:window-x="0"
     inkscape:window-y="25"
     inkscape:window-maximized="0"
     inkscape:current-layer="layer1" />
  <defs
     id="defs1676">
    <clipPath
       clipPathUnits="userSpaceOnUse"
       id="clipPath1628">
      <path
         style="fill:#916f6f;stroke:#000000;stroke-width:0.264583;stroke-linejoin:round;stroke-miterlimit:4;stroke-dasharray:none;stroke-dashoffset:20"
         id="path1630"
         width="293.7439"
         height="177.4015"
         x="489.83276"
         y="634.52234"
         sodipodi:type="rect"
         transform="rotate(-35.460286)" />
    </clipPath>
    <clipPath
       clipPathUnits="userSpaceOnUse"
       id="clipPath2206">
      <path
         style="fill:#916f6f;stroke:#000000;stroke-width:0.264583;stroke-linejoin:round;stroke-miterlimit:4;stroke-dasharray:none;stroke-dashoffset:20"
         id="path2204"
         width="293.7439"
         height="177.4015"
         x="489.83276"
         y="634.52234"
         sodipodi:type="rect"
         d="m 489.83276,634.52234 h 293.7439 v 177.4015 h -293.7439 z"
         transform="rotate(-35.460286)" />
    </clipPath>
    <clipPath
       clipPathUnits="userSpaceOnUse"
       id="clipPath2210">
      <path
         style="fill:#916f6f;stroke:#000000;stroke-width:0.264583;stroke-linejoin:round;stroke-miterlimit:4;stroke-dasharray:none;stroke-dashoffset:20"
         id="path2208"
         width="293.7439"
         height="177.4015"
         x="489.83276"
         y="634.52234"
         sodipodi:type="rect"
         d="m 489.83276,634.52234 h 293.7439 v 177.4015 h -293.7439 z"
         transform="rotate(-35.460286)" />
    </clipPath>
    <clipPath
       clipPathUnits="userSpaceOnUse"
       id="clipPath2214">
      <path
         style="fill:#916f6f;stroke:#000000;stroke-width:0.264583;stroke-linejoin:round;stroke-miterlimit:4;stroke-dasharray:none;stroke-dashoffset:20"
         id="path2212"
         width="293.7439"
         height="177.4015"
         x="489.83276"
         y="634.52234"
         sodipodi:type="rect"
         d="m 489.83276,634.52234 h 293.7439 v 177.4015 h -293.7439 z"
         transform="rotate(-35.460286)" />
    </clipPath>
    <clipPath
       clipPathUnits="userSpaceOnUse"
       id="clipPath2218">
      <path
         style="fill:#916f6f;stroke:#000000;stroke-width:0.264583;stroke-linejoin:round;stroke-miterlimit:4;stroke-dasharray:none;stroke-dashoffset:20"
         id="path2216"
         width="293.7439"
         height="177.4015"
         x="489.83276"
         y="634.52234"
         sodipodi:type="rect"
         d="m 489.83276,634.52234 h 293.7439 v 177.4015 h -293.7439 z"
         transform="rotate(-35.460286)" />
    </clipPath>
    <clipPath
       clipPathUnits="userSpaceOnUse"
       id="clipPath2222">
      <path
         style="fill:#916f6f;stroke:#000000;stroke-width:0.264583;stroke-linejoin:round;stroke-miterlimit:4;stroke-dasharray:none;stroke-dashoffset:20"
         id="path2220"
         width="293.7439"
         height="177.4015"
         x="489.83276"
         y="634.52234"
         sodipodi:type="rect"
         d="m 489.83276,634.52234 h 293.7439 v 177.4015 h -293.7439 z"
         transform="rotate(-35.460286)" />
    </clipPath>
    <clipPath
       clipPathUnits="userSpaceOnUse"
       id="clipPath2226">
      <path
         style="fill:#916f6f;stroke:#000000;stroke-width:0.264583;stroke-linejoin:round;stroke-miterlimit:4;stroke-dasharray:none;stroke-dashoffset:20"
         id="path2224"
         width="293.7439"
         height="177.4015"
         x="489.83276"
         y="634.52234"
         sodipodi:type="rect"
         d="m 489.83276,634.52234 h 293.7439 v 177.4015 h -293.7439 z"
         transform="rotate(-35.460286)" />
    </clipPath>
    <clipPath
       clipPathUnits="userSpaceOnUse"
       id="clipPath2230">
      <path
         style="fill:#916f6f;stroke:#000000;stroke-width:0.264583;stroke-linejoin:round;stroke-miterlimit:4;stroke-dasharray:none;stroke-dashoffset:20"
         id="path2228"
         width="293.7439"
         height="177.4015"
         x="489.83276"
         y="634.52234"
         sodipodi:type="rect"
         d="m 489.83276,634.52234 h 293.7439 v 177.4015 h -293.7439 z"
         transform="rotate(-35.460286)" />
    </clipPath>
  </defs>
  <g
     inkscape:label="Layer 1"
     inkscape:groupmode="layer"
     id="layer1">
    <g
       id="g2541"
       transform="translate(19.9584,33.264)">
      <circle
         style="fill:#916f6f;stroke:#000000;stroke-width:1;stroke-linejoin:round;stroke-miterlimit:4;stroke-dasharray:none;stroke-dashoffset:20"
         id="path846"
         cx="63.398315"
         cy="165.69684"
         r="57.736797" />
      <path
         sodipodi:type="star"
         style="fill:#916f6f;stroke:#000000;stroke-width:11.4074;stroke-linejoin:round;stroke-miterlimit:4;stroke-dasharray:none;stroke-dashoffset:20"
         id="path1722"
         inkscape:flatsided="false"
         sodipodi:sides="5"
         sodipodi:cx="998.39917"
         sodipodi:cy="279.7168"
         sodipodi:r1="101.49352"
         sodipodi:r2="68.000656"
         sodipodi:arg1="2.2061675"
         sodipodi:arg2="2.834486"
         inkscape:rounded="0.33"
         inkscape:randomized="0"
         transform="matrix(-0.09247972,0.06678835,0.00977083,-0.09015248,198.72591,154.03077)"
         inkscape:transform-center-x="0.27898727"
         inkscape:transform-center-y="-0.87345587"
         clip-path="url(#clipPath1628)"
         d="m 938.16517,361.40401 c -16.28192,-12.00586 1.53043,-41.84726 -4.58506,-61.13048 -6.11548,-19.28322 -37.87029,-33.40489 -31.48342,-52.59993 6.38686,-19.19505 40.27204,-11.476 56.72168,-23.25101 16.44964,-11.77501 20.06737,-46.33946 40.29659,-46.19679 20.22924,0.14267 23.35904,34.75471 39.64094,46.76057 16.282,12.00586 50.2727,4.76552 56.3881,24.04874 6.1155,19.28322 -25.8353,32.95559 -32.2222,52.15063 -6.3868,19.19504 11.0028,49.28472 -5.4468,61.05973 -16.4496,11.77501 -39.3262,-14.38704 -59.55541,-14.52971 -20.22922,-0.14267 -43.4725,25.69411 -59.75442,13.68825 z" />
      <path
         sodipodi:type="star"
         style="fill:#916f6f;stroke:#000000;stroke-width:11.4074;stroke-linejoin:round;stroke-miterlimit:4;stroke-dasharray:none;stroke-dashoffset:20"
         id="path1724"
         inkscape:flatsided="false"
         sodipodi:sides="5"
         sodipodi:cx="998.39917"
         sodipodi:cy="279.7168"
         sodipodi:r1="101.49352"
         sodipodi:r2="68.000656"
         sodipodi:arg1="2.2061675"
         sodipodi:arg2="2.834486"
         inkscape:rounded="0.33"
         inkscape:randomized="0"
         transform="matrix(0.09810128,-0.05821787,-0.0865824,-0.0269523,2.439669,284.73591)"
         inkscape:transform-center-x="0.31878582"
         inkscape:transform-center-y="0.34812703"
         clip-path="url(#clipPath1628)"
         d="m 938.16517,361.40401 c -16.28192,-12.00586 1.53043,-41.84726 -4.58506,-61.13048 -6.11548,-19.28322 -37.87029,-33.40489 -31.48342,-52.59993 6.38686,-19.19505 40.27204,-11.476 56.72168,-23.25101 16.44964,-11.77501 20.06737,-46.33946 40.29659,-46.19679 20.22924,0.14267 23.35904,34.75471 39.64094,46.76057 16.282,12.00586 50.2727,4.76552 56.3881,24.04874 6.1155,19.28322 -25.8353,32.95559 -32.2222,52.15063 -6.3868,19.19504 11.0028,49.28472 -5.4468,61.05973 -16.4496,11.77501 -39.3262,-14.38704 -59.55541,-14.52971 -20.22922,-0.14267 -43.4725,25.69411 -59.75442,13.68825 z" />
      <g
         id="g2186"
         transform="matrix(0.68710802,-0.19973108,0.1231479,0.4236492,-141.48437,141.56559)"
         style="stroke-width:1.7798">
        <path
           sodipodi:type="star"
           style="fill:#916f6f;stroke:#000000;stroke-width:10.1468;stroke-linejoin:round;stroke-miterlimit:4;stroke-dasharray:none;stroke-dashoffset:20"
           id="path2182"
           inkscape:flatsided="false"
           sodipodi:sides="5"
           sodipodi:cx="998.39917"
           sodipodi:cy="279.7168"
           sodipodi:r1="101.49352"
           sodipodi:r2="68.000656"
           sodipodi:arg1="2.2061675"
           sodipodi:arg2="2.834486"
           inkscape:rounded="0.33"
           inkscape:randomized="0"
           transform="matrix(0.21550784,0.06746022,-0.15349498,0.09471454,91.332055,-32.911071)"
           inkscape:transform-center-x="-0.073413168"
           inkscape:transform-center-y="0.9054607"
           clip-path="url(#clipPath1628)"
           d="m 938.16517,361.40401 c -16.28192,-12.00586 1.53043,-41.84726 -4.58506,-61.13048 -6.11548,-19.28322 -37.87029,-33.40489 -31.48342,-52.59993 6.38686,-19.19505 40.27204,-11.476 56.72168,-23.25101 16.44964,-11.77501 20.06737,-46.33946 40.29659,-46.19679 20.22924,0.14267 23.35904,34.75471 39.64094,46.76057 16.282,12.00586 50.2727,4.76552 56.3881,24.04874 6.1155,19.28322 -25.8353,32.95559 -32.2222,52.15063 -6.3868,19.19504 11.0028,49.28472 -5.4468,61.05973 -16.4496,11.77501 -39.3262,-14.38704 -59.55541,-14.52971 -20.22922,-0.14267 -43.4725,25.69411 -59.75442,13.68825 z" />
        <ellipse
           style="fill:#916f6f;stroke:#000000;stroke-width:1.7798;stroke-linejoin:round;stroke-miterlimit:4;stroke-dasharray:none;stroke-dashoffset:20"
           id="ellipse2184"
           cx="263.33633"
           cy="52.186466"
           rx="16.482697"
           ry="2.2922957" />
      </g>
      <g
         id="g2512"
         transform="rotate(32.964155,68.273066,-194.48605)">
        <path
           sodipodi:type="star"
           style="fill:#916f6f;stroke:#000000;stroke-width:5.70113;stroke-linejoin:round;stroke-miterlimit:4;stroke-dasharray:none;stroke-dashoffset:20"
           id="path2508"
           inkscape:flatsided="false"
           sodipodi:sides="5"
           sodipodi:cx="998.39917"
           sodipodi:cy="279.7168"
           sodipodi:r1="101.49352"
           sodipodi:r2="68.000656"
           sodipodi:arg1="2.2061675"
           sodipodi:arg2="2.834486"
           inkscape:rounded="0.33"
           inkscape:randomized="0"
           transform="matrix(0.21550784,0.06746022,-0.15349498,0.09471454,91.332055,-32.911071)"
           inkscape:transform-center-x="-0.073413168"
           inkscape:transform-center-y="0.9054607"
           clip-path="url(#clipPath1628)"
           d="m 938.16517,361.40401 c -16.28192,-12.00586 1.53043,-41.84726 -4.58506,-61.13048 -6.11548,-19.28322 -37.87029,-33.40489 -31.48342,-52.59993 6.38686,-19.19505 40.27204,-11.476 56.72168,-23.25101 16.44964,-11.77501 20.06737,-46.33946 40.29659,-46.19679 20.22924,0.14267 23.35904,34.75471 39.64094,46.76057 16.282,12.00586 50.2727,4.76552 56.3881,24.04874 6.1155,19.28322 -25.8353,32.95559 -32.2222,52.15063 -6.3868,19.19504 11.0028,49.28472 -5.4468,61.05973 -16.4496,11.77501 -39.3262,-14.38704 -59.55541,-14.52971 -20.22922,-0.14267 -43.4725,25.69411 -59.75442,13.68825 z" />
        <ellipse
           style="fill:#916f6f;stroke:#000000;stroke-width:1;stroke-linejoin:round;stroke-miterlimit:4;stroke-dasharray:none;stroke-dashoffset:20"
           id="ellipse2510"
           cx="263.33633"
           cy="52.186466"
           rx="16.482697"
           ry="2.2922957" />
      </g>
      <g
         id="g2518"
         transform="matrix(-0.76795569,0.64050298,0.64050298,0.76795569,194.46504,-68.696712)">
        <path
           sodipodi:type="star"
           style="fill:#916f6f;stroke:#000000;stroke-width:5.70113;stroke-linejoin:round;stroke-miterlimit:4;stroke-dasharray:none;stroke-dashoffset:20"
           id="path2514"
           inkscape:flatsided="false"
           sodipodi:sides="5"
           sodipodi:cx="998.39917"
           sodipodi:cy="279.7168"
           sodipodi:r1="101.49352"
           sodipodi:r2="68.000656"
           sodipodi:arg1="2.2061675"
           sodipodi:arg2="2.834486"
           inkscape:rounded="0.33"
           inkscape:randomized="0"
           transform="matrix(0.21550784,0.06746022,-0.15349498,0.09471454,91.332055,-32.911071)"
           inkscape:transform-center-x="-0.073413168"
           inkscape:transform-center-y="0.9054607"
           clip-path="url(#clipPath1628)"
           d="m 938.16517,361.40401 c -16.28192,-12.00586 1.53043,-41.84726 -4.58506,-61.13048 -6.11548,-19.28322 -37.87029,-33.40489 -31.48342,-52.59993 6.38686,-19.19505 40.27204,-11.476 56.72168,-23.25101 16.44964,-11.77501 20.06737,-46.33946 40.29659,-46.19679 20.22924,0.14267 23.35904,34.75471 39.64094,46.76057 16.282,12.00586 50.2727,4.76552 56.3881,24.04874 6.1155,19.28322 -25.8353,32.95559 -32.2222,52.15063 -6.3868,19.19504 11.0028,49.28472 -5.4468,61.05973 -16.4496,11.77501 -39.3262,-14.38704 -59.55541,-14.52971 -20.22922,-0.14267 -43.4725,25.69411 -59.75442,13.68825 z" />
        <ellipse
           style="fill:#916f6f;stroke:#000000;stroke-width:1;stroke-linejoin:round;stroke-miterlimit:4;stroke-dasharray:none;stroke-dashoffset:20"
           id="ellipse2516"
           cx="263.33633"
           cy="52.186466"
           rx="16.482697"
           ry="2.2922957" />
      </g>
      <g
         id="g2524"
         transform="matrix(0.83984135,-0.54283195,-0.54283195,-0.83984135,-100.68851,388.7947)">
        <path
           sodipodi:type="star"
           style="fill:#916f6f;stroke:#000000;stroke-width:5.70113;stroke-linejoin:round;stroke-miterlimit:4;stroke-dasharray:none;stroke-dashoffset:20"
           id="path2520"
           inkscape:flatsided="false"
           sodipodi:sides="5"
           sodipodi:cx="998.39917"
           sodipodi:cy="279.7168"
           sodipodi:r1="101.49352"
           sodipodi:r2="68.000656"
           sodipodi:arg1="2.2061675"
           sodipodi:arg2="2.834486"
           inkscape:rounded="0.33"
           inkscape:randomized="0"
           transform="matrix(0.21550784,0.06746022,-0.15349498,0.09471454,91.332055,-32.911071)"
           inkscape:transform-center-x="-0.073413168"
           inkscape:transform-center-y="0.9054607"
           clip-path="url(#clipPath1628)"
           d="m 938.16517,361.40401 c -16.28192,-12.00586 1.53043,-41.84726 -4.58506,-61.13048 -6.11548,-19.28322 -37.87029,-33.40489 -31.48342,-52.59993 6.38686,-19.19505 40.27204,-11.476 56.72168,-23.25101 16.44964,-11.77501 20.06737,-46.33946 40.29659,-46.19679 20.22924,0.14267 23.35904,34.75471 39.64094,46.76057 16.282,12.00586 50.2727,4.76552 56.3881,24.04874 6.1155,19.28322 -25.8353,32.95559 -32.2222,52.15063 -6.3868,19.19504 11.0028,49.28472 -5.4468,61.05973 -16.4496,11.77501 -39.3262,-14.38704 -59.55541,-14.52971 -20.22922,-0.14267 -43.4725,25.69411 -59.75442,13.68825 z" />
        <ellipse
           style="fill:#916f6f;stroke:#000000;stroke-width:1;stroke-linejoin:round;stroke-miterlimit:4;stroke-dasharray:none;stroke-dashoffset:20"
           id="ellipse2522"
           cx="263.33633"
           cy="52.186466"
           rx="16.482697"
           ry="2.2922957" />
      </g>
      <g
         id="g2530"
         transform="matrix(0.64050298,0.76795569,0.76795569,-0.64050298,-189.47316,36.087219)">
        <path
           sodipodi:type="star"
           style="fill:#916f6f;stroke:#000000;stroke-width:5.70113;stroke-linejoin:round;stroke-miterlimit:4;stroke-dasharray:none;stroke-dashoffset:20"
           id="path2526"
           inkscape:flatsided="false"
           sodipodi:sides="5"
           sodipodi:cx="998.39917"
           sodipodi:cy="279.7168"
           sodipodi:r1="101.49352"
           sodipodi:r2="68.000656"
           sodipodi:arg1="2.2061675"
           sodipodi:arg2="2.834486"
           inkscape:rounded="0.33"
           inkscape:randomized="0"
           transform="matrix(0.21550784,0.06746022,-0.15349498,0.09471454,91.332055,-32.911071)"
           inkscape:transform-center-x="-0.073413168"
           inkscape:transform-center-y="0.9054607"
           clip-path="url(#clipPath1628)"
           d="m 938.16517,361.40401 c -16.28192,-12.00586 1.53043,-41.84726 -4.58506,-61.13048 -6.11548,-19.28322 -37.87029,-33.40489 -31.48342,-52.59993 6.38686,-19.19505 40.27204,-11.476 56.72168,-23.25101 16.44964,-11.77501 20.06737,-46.33946 40.29659,-46.19679 20.22924,0.14267 23.35904,34.75471 39.64094,46.76057 16.282,12.00586 50.2727,4.76552 56.3881,24.04874 6.1155,19.28322 -25.8353,32.95559 -32.2222,52.15063 -6.3868,19.19504 11.0028,49.28472 -5.4468,61.05973 -16.4496,11.77501 -39.3262,-14.38704 -59.55541,-14.52971 -20.22922,-0.14267 -43.4725,25.69411 -59.75442,13.68825 z" />
        <ellipse
           style="fill:#916f6f;stroke:#000000;stroke-width:1;stroke-linejoin:round;stroke-miterlimit:4;stroke-dasharray:none;stroke-dashoffset:20"
           id="ellipse2528"
           cx="263.33633"
           cy="52.186466"
           rx="16.482697"
           ry="2.2922957" />
      </g>
      <ellipse
         style="fill:#816363;fill-opacity:1;stroke:#000000;stroke-width:0.999999;stroke-linejoin:round;stroke-miterlimit:4;stroke-dasharray:none;stroke-dashoffset:20"
         id="path2554"
         cx="77.661011"
         cy="148.64069"
         rx="5.4578471"
         ry="4.693748" />
      <ellipse
         style="fill:#816363;fill-opacity:1;stroke:#000000;stroke-width:0.999998;stroke-linejoin:round;stroke-miterlimit:4;stroke-dasharray:none;stroke-dashoffset:20"
         id="ellipse3277"
         cx="46.122528"
         cy="157.33498"
         rx="1.9648253"
         ry="1.7465107" />
      <ellipse
         style="fill:#816363;fill-opacity:1;stroke:#000000;stroke-width:0.999999;stroke-linejoin:round;stroke-miterlimit:4;stroke-dasharray:none;stroke-dashoffset:20"
         id="ellipse3279"
         cx="65.321899"
         cy="185.18596"
         rx="4.0388069"
         ry="3.6021786" />
    </g>
    <g
       aria-label="DISASTER LANDER"
       id="text1317"
       style="font-style:normal;font-variant:normal;font-weight:normal;font-stretch:normal;font-size:50.8px;line-height:1.25;font-family:Krungthep;-inkscape-font-specification:Krungthep;fill:#ff0000;fill-opacity:1;stroke:#000000;stroke-width:2.39101;stroke-miterlimit:4;stroke-dasharray:none;stroke-opacity:1"
       transform="matrix(0.4214492,0,0,0.4150424,-454.98328,43.131941)">
      <path
         d="m 1090.9722,276.84788 -30.0834,-23.37948 10.399,-13.38084 q 2.1309,-2.74197 5.6273,-3.16625 3.5085,-0.43994 6.2348,1.67883 l 16.7338,13.00484 q 2.7107,2.10659 3.1663,5.62726 0.4521,3.49283 -1.6788,6.23481 z m 1.8343,-9.28058 2.6058,-3.35305 q 1.0837,-1.39449 0.8516,-3.13307 -0.22,-1.75425 -1.5675,-2.80145 l -16.7339,-13.00484 q -1.3631,-1.05939 -3.1139,-0.81157 -1.7542,0.21997 -2.8136,1.58312 l -2.6058,3.35305 z"
         style="font-style:normal;font-variant:normal;font-weight:normal;font-stretch:normal;font-size:50.8px;font-family:Krungthep;-inkscape-font-specification:Krungthep;fill:#ff0000;fill-opacity:1;stroke:#000000;stroke-width:2.39101;stroke-miterlimit:4;stroke-dasharray:none;stroke-opacity:1"
         id="path1326" />
      <path
         d="m 1115.3808,247.70114 -26.7425,-27.13761 6.0353,-5.94742 26.7425,27.13762 z"
         style="font-style:normal;font-variant:normal;font-weight:normal;font-stretch:normal;font-size:50.8px;font-family:Krungthep;-inkscape-font-specification:Krungthep;fill:#ff0000;fill-opacity:1;stroke:#000000;stroke-width:2.39101;stroke-miterlimit:4;stroke-dasharray:none;stroke-opacity:1"
         id="path1328" />
      <path
         d="m 1129.4986,196.70079 -3.3378,2.56062 q -3.0257,-3.0311 -5.7652,-0.92946 -1.7634,1.35278 -2.0086,2.89145 -0.2452,1.53866 1.0472,3.22332 0.9663,1.25955 2.8037,1.60072 l 13.2523,2.53872 q 3.659,0.69442 5.6037,3.22927 l 1.3044,1.7004 q 2.0896,2.72378 1.6555,6.23312 -0.4462,3.4936 -3.2172,5.6194 l -3.3693,2.58478 q -3.3378,2.56062 -6.3149,2.16835 -2.977,-0.39226 -5.5376,-3.73007 l 3.3693,-2.58478 q 0.2342,0.37053 0.3912,0.57521 1.0509,1.36976 2.6493,1.26901 1.5984,-0.10076 2.8579,-1.06703 1.7949,-1.37694 1.9178,-2.8468 0.1229,-1.46986 -1.1453,-3.12303 -0.9784,-1.27529 -2.8037,-1.60072 l -13.2281,-2.50723 q -3.647,-0.67868 -5.6037,-3.22927 l -1.3045,-1.7004 q -2.1016,-2.73953 -1.6554,-6.23312 0.4461,-3.4936 3.2172,-5.6194 l 3.3693,-2.58478 q 6.2977,-4.83136 11.8525,1.56172 z"
         style="font-style:normal;font-variant:normal;font-weight:normal;font-stretch:normal;font-size:50.8px;font-family:Krungthep;-inkscape-font-specification:Krungthep;fill:#ff0000;fill-opacity:1;stroke:#000000;stroke-width:2.39101;stroke-miterlimit:4;stroke-dasharray:none;stroke-opacity:1"
         id="path1330" />
      <path
         d="m 1154.5952,215.39449 -14.5243,-25.84498 q -1.7013,-3.02736 -0.7541,-6.40497 0.9547,-3.40464 3.9821,-5.10595 l 7.404,-4.16092 q 3.0274,-1.70131 6.4147,-0.73683 3.4047,0.95475 5.0962,3.96481 l 14.5244,25.84498 -7.3695,4.14147 -8.3024,-14.7735 -7.404,4.16091 8.3024,14.7735 z m -2.9939,-22.5824 7.404,-4.16092 -4.1609,-7.40405 q -0.8458,-1.50503 -2.5557,-1.95538 -1.7023,-0.47738 -3.2073,0.36841 -1.5224,0.85552 -1.9997,2.55784 -0.4871,1.68502 0.3586,3.19005 z"
         style="font-style:normal;font-variant:normal;font-weight:normal;font-stretch:normal;font-size:50.8px;font-family:Krungthep;-inkscape-font-specification:Krungthep;fill:#ff0000;fill-opacity:1;stroke:#000000;stroke-width:2.39101;stroke-miterlimit:4;stroke-dasharray:none;stroke-opacity:1"
         id="path1332" />
      <path
         d="m 1193.4485,164.18314 -3.9217,1.52261 q -2.0549,-3.75756 -5.2736,-2.50787 -2.0718,0.80439 -2.7384,2.21269 -0.6666,1.40829 0.1019,3.38763 0.5746,1.47987 2.2427,2.32229 l 12.0098,6.15088 q 3.3178,1.69201 4.4741,4.67026 l 0.7757,1.99783 q 1.2425,3.20023 -0.1577,6.44729 -1.4073,3.22857 -4.663,4.49262 l -3.9587,1.53697 q -3.9217,1.52261 -6.6695,0.31176 -2.7478,-1.21084 -4.2704,-5.13251 l 3.9587,-1.53697 q 0.121,0.42133 0.2143,0.66181 0.6249,1.60936 2.1875,1.96059 1.5626,0.35123 3.0424,-0.22334 2.1088,-0.81876 2.6388,-2.19528 0.5299,-1.37652 -0.2243,-3.31886 -0.5817,-1.49837 -2.2427,-2.32229 l -11.9954,-6.11388 q -3.3106,-1.67352 -4.4741,-4.67026 l -0.7757,-1.99783 q -1.2497,-3.21873 0.1577,-6.44729 1.4073,-3.22857 4.663,-4.49262 l 3.9587,-1.53697 q 7.3994,-2.87285 10.9399,4.82074 z"
         style="font-style:normal;font-variant:normal;font-weight:normal;font-stretch:normal;font-size:50.8px;font-family:Krungthep;-inkscape-font-specification:Krungthep;fill:#ff0000;fill-opacity:1;stroke:#000000;stroke-width:2.39101;stroke-miterlimit:4;stroke-dasharray:none;stroke-opacity:1"
         id="path1334" />
      <path
         d="m 1216.4232,188.31513 -8.3113,-32.81734 -8.1947,2.07539 -1.0426,-4.11659 24.6227,-6.23591 1.0425,4.11659 -8.1947,2.07539 8.3113,32.81733 z"
         style="font-style:normal;font-variant:normal;font-weight:normal;font-stretch:normal;font-size:50.8px;font-family:Krungthep;-inkscape-font-specification:Krungthep;fill:#ff0000;fill-opacity:1;stroke:#000000;stroke-width:2.39101;stroke-miterlimit:4;stroke-dasharray:none;stroke-opacity:1"
         id="path1336" />
      <path
         d="m 1237.0736,183.4868 -4.7835,-37.79852 20.986,-2.65582 0.5332,4.21296 -12.5995,1.59449 1.5945,12.5995 8.4259,-1.06631 0.5282,4.17359 -8.4259,1.06631 1.5944,12.59951 12.5996,-1.59449 0.5331,4.21296 z"
         style="font-style:normal;font-variant:normal;font-weight:normal;font-stretch:normal;font-size:50.8px;font-family:Krungthep;-inkscape-font-specification:Krungthep;fill:#ff0000;fill-opacity:1;stroke:#000000;stroke-width:2.39101;stroke-miterlimit:4;stroke-dasharray:none;stroke-opacity:1"
         id="path1338" />
      <path
         d="m 1266.5827,180.20828 0.5858,-38.0955 16.9446,0.26055 q 3.4722,0.0534 5.9139,2.59155 2.4616,2.53845 2.4085,5.99086 l -0.035,2.3016 q -0.044,2.83732 -2.0286,5.44633 -1.9847,2.58917 -6.5483,2.51899 l 4.2064,0.0647 q 1.746,0.0268 2.9768,1.29608 1.2308,1.26923 1.204,3.01527 l -0.2307,15.00011 -8.4524,-0.12997 0.1952,-12.6985 q 0.027,-1.74605 -1.2237,-3.01558 -1.2308,-1.26923 -2.957,-1.29577 l -4.2461,-0.0653 -0.2605,16.94456 z m 8.7777,-21.02097 4.2461,0.0653 q 1.7262,0.0265 2.9954,-1.20424 1.2894,-1.25033 1.3159,-2.97653 l 0.065,-4.24606 q 0.027,-1.7262 -1.2244,-2.9759 -1.2308,-1.26923 -2.957,-1.29577 l -4.246,-0.0653 z"
         style="font-style:normal;font-variant:normal;font-weight:normal;font-stretch:normal;font-size:50.8px;font-family:Krungthep;-inkscape-font-specification:Krungthep;fill:#ff0000;fill-opacity:1;stroke:#000000;stroke-width:2.39101;stroke-miterlimit:4;stroke-dasharray:none;stroke-opacity:1"
         id="path1340" />
      <path
         d="m 1312.6983,183.18166 8.0562,-37.23852 8.2623,1.78748 -7.1583,33.08797 12.4128,2.68542 -0.8979,4.15054 z"
         style="font-style:normal;font-variant:normal;font-weight:normal;font-stretch:normal;font-size:50.8px;font-family:Krungthep;-inkscape-font-specification:Krungthep;fill:#ff0000;fill-opacity:1;stroke:#000000;stroke-width:2.39101;stroke-miterlimit:4;stroke-dasharray:none;stroke-opacity:1"
         id="path1342" />
      <path
         d="m 1341.617,189.90887 10.3232,-27.7912 q 1.2092,-3.25533 4.3982,-4.71684 3.2144,-1.4732 6.4698,-0.264 l 7.9616,2.95738 q 3.2553,1.20921 4.7099,4.41677 1.4732,3.21446 0.2709,6.45119 l -10.3232,27.79119 -7.9244,-2.94356 5.901,-15.88599 -7.9616,-2.95738 -5.901,15.88599 z m 15.2902,-16.88604 7.9616,2.95738 2.9574,-7.9616 q 0.6012,-1.61836 -0.1609,-3.2139 -0.7367,-1.60724 -2.355,-2.20839 -1.637,-0.60805 -3.2442,0.12855 -1.6003,0.718 -2.2015,2.33636 z"
         style="font-style:normal;font-variant:normal;font-weight:normal;font-stretch:normal;font-size:50.8px;font-family:Krungthep;-inkscape-font-specification:Krungthep;fill:#ff0000;fill-opacity:1;stroke:#000000;stroke-width:2.39101;stroke-miterlimit:4;stroke-dasharray:none;stroke-opacity:1"
         id="path1344" />
      <path
         d="m 1373.1831,202.19455 18.7925,-33.14287 1.6744,0.94942 9.9871,29.98015 10.4338,-18.40119 3.694,2.09458 -18.7925,33.14287 -1.6917,-0.9592 -9.9698,-29.97037 -10.4338,18.4012 z"
         style="font-style:normal;font-variant:normal;font-weight:normal;font-stretch:normal;font-size:50.8px;font-family:Krungthep;-inkscape-font-specification:Krungthep;fill:#ff0000;fill-opacity:1;stroke:#000000;stroke-width:2.39101;stroke-miterlimit:4;stroke-dasharray:none;stroke-opacity:1"
         id="path1346" />
      <path
         d="m 1405.9194,221.72325 23.7983,-29.75315 13.234,10.5853 q 2.7118,2.16912 3.0871,5.67104 0.3908,3.51431 -1.7659,6.21069 l -13.2378,16.55019 q -2.1444,2.68088 -5.6711,3.08716 -3.4988,0.40318 -6.2107,-1.76594 z m 9.254,1.96401 3.3162,2.65253 q 1.3792,1.10315 3.1209,0.89536 1.7571,-0.19539 2.8231,-1.52809 l 13.2378,-16.55018 q 1.0784,-1.34819 0.8551,-3.10225 -0.1954,-1.75716 -1.5436,-2.83552 l -3.3162,-2.65252 z"
         style="font-style:normal;font-variant:normal;font-weight:normal;font-stretch:normal;font-size:50.8px;font-family:Krungthep;-inkscape-font-specification:Krungthep;fill:#ff0000;fill-opacity:1;stroke:#000000;stroke-width:2.39101;stroke-miterlimit:4;stroke-dasharray:none;stroke-opacity:1"
         id="path1348" />
      <path
         d="m 1431.8744,243.44026 27.7713,-26.08386 14.482,15.41883 -3.0954,2.90727 -8.6946,-9.25709 -9.2571,8.69462 5.8145,6.19068 -3.0664,2.88009 -5.8145,-6.19068 -9.2571,8.69462 8.6946,9.25709 -3.0953,2.90726 z"
         style="font-style:normal;font-variant:normal;font-weight:normal;font-stretch:normal;font-size:50.8px;font-family:Krungthep;-inkscape-font-specification:Krungthep;fill:#ff0000;fill-opacity:1;stroke:#000000;stroke-width:2.39101;stroke-miterlimit:4;stroke-dasharray:none;stroke-opacity:1"
         id="path1350" />
      <path
         d="m 1451.8636,265.39452 31.1966,-21.87187 9.7285,13.87602 q 1.9935,2.84344 1.3702,6.30982 -0.612,3.48262 -3.4392,5.46476 l -1.8848,1.32142 q -2.3235,1.629 -5.6009,1.55175 -3.2611,-0.0886 -5.8812,-3.82574 l 2.415,3.44463 q 1.0025,1.42985 0.6965,3.17116 -0.3059,1.74131 -1.7358,2.74377 l -12.2837,8.61205 -4.8528,-6.92176 10.3989,-7.29062 q 1.4298,-1.00246 1.7244,-2.76002 0.306,-1.74131 -0.6851,-3.15491 l -2.4378,-3.47713 -13.876,9.72843 z m 22.1734,-5.22168 2.4378,3.47712 q 0.9911,1.4136 2.7324,1.71957 1.769,0.31083 3.1826,-0.68024 l 3.4771,-2.4378 q 1.4136,-0.99107 1.6919,-2.73724 0.306,-1.74131 -0.6851,-3.15491 l -2.4378,-3.47713 z"
         style="font-style:normal;font-variant:normal;font-weight:normal;font-stretch:normal;font-size:50.8px;font-family:Krungthep;-inkscape-font-specification:Krungthep;fill:#ff0000;fill-opacity:1;stroke:#000000;stroke-width:2.39101;stroke-miterlimit:4;stroke-dasharray:none;stroke-opacity:1"
         id="path1352" />
    </g>
  </g>
</svg>
