<?xml version="1.0" encoding="UTF-8" standalone="no"?>
<svg
   xmlns:dc="http://purl.org/dc/elements/1.1/"
   xmlns:cc="http://creativecommons.org/ns#"
   xmlns:rdf="http://www.w3.org/1999/02/22-rdf-syntax-ns#"
   xmlns:svg="http://www.w3.org/2000/svg"
   xmlns="http://www.w3.org/2000/svg"
   xmlns:xlink="http://www.w3.org/1999/xlink"
   xmlns:sodipodi="http://sodipodi.sourceforge.net/DTD/sodipodi-0.dtd"
   xmlns:inkscape="http://www.inkscape.org/namespaces/inkscape"
   sodipodi:docname="spiral-0001.svg"
   inkscape:version="1.0 (4035a4f, 2020-05-01)"
   id="svg8"
   version="1.1"
   viewBox="0 0 135.46666 135.46667"
   height="512"
   width="512">
  <defs
     id="defs2">
    <linearGradient
       id="linearGradient838"
       inkscape:collect="always">
      <stop
         id="stop834"
         offset="0"
         style="stop-color:#00ff00;stop-opacity:1;" />
      <stop
         id="stop836"
         offset="1"
         style="stop-color:#00ff00;stop-opacity:0;" />
    </linearGradient>
    <linearGradient
       gradientUnits="userSpaceOnUse"
       y2="103.37082"
       x2="-213.27174"
       y1="97.86969"
       x1="-219.08749"
       id="linearGradient840"
       xlink:href="#linearGradient838"
       inkscape:collect="always" />
  </defs>
  <sodipodi:namedview
     inkscape:snap-page="true"
     inkscape:window-maximized="0"
     inkscape:window-y="23"
     inkscape:window-x="0"
     inkscape:window-height="829"
     inkscape:window-width="1440"
     units="px"
     showgrid="false"
     inkscape:document-rotation="0"
     inkscape:current-layer="layer1"
     inkscape:document-units="px"
     inkscape:cy="131.41511"
     inkscape:cx="-1060.9343"
     inkscape:zoom="0.84086113"
     inkscape:pageshadow="2"
     inkscape:pageopacity="0.0"
     borderopacity="1.0"
     bordercolor="#666666"
     pagecolor="#ffffff"
     id="base" />
  <metadata
     id="metadata5">
    <rdf:RDF>
      <cc:Work
         rdf:about="">
        <dc:format>image/svg+xml</dc:format>
        <dc:type
           rdf:resource="http://purl.org/dc/dcmitype/StillImage" />
        <dc:title></dc:title>
      </cc:Work>
    </rdf:RDF>
  </metadata>
  <g
     id="layer1"
     inkscape:groupmode="layer"
     inkscape:label="Layer 1">
    <path
       d="m -279.81641,36.826122 c 1e-5,8e-6 -10e-6,2e-5 -2e-5,2.1e-5 -9e-5,3e-5 -1.4e-4,-1.18e-4 -1.4e-4,-1.85e-4 1e-5,-3.44e-4 4.5e-4,-4.49e-4 7.2e-4,-3.9e-4 8.1e-4,1.8e-4 0.001,0.0012 7.6e-4,0.0019 -5.5e-4,0.0016 -0.003,0.0019 -0.004,0.0013 -0.003,-0.0012 -0.003,-0.0046 -0.002,-0.007 0.002,-0.0042 0.008,-0.0048 0.0115,-0.0026 0.006,0.0035 0.007,0.01187 0.003,0.01755 -0.005,0.0087 -0.0173,0.0097 -0.0255,0.0045 -0.0119,-0.0077 -0.0131,-0.02433 -0.006,-0.03549 0.0107,-0.01573 0.033,-0.01727 0.0478,-0.0068 0.0203,0.01432 0.0222,0.04345 0.008,0.06279 -0.0187,0.02576 -0.0559,0.02793 -0.0806,0.0096 -0.0321,-0.02385 -0.0346,-0.07067 -0.0112,-0.101424 0.0299,-0.03933 0.0878,-0.04225 0.1256,-0.01295 0.0476,0.03685 0.051,0.107411 0.0148,0.153358 -0.0448,0.05698 -0.1298,0.06076 -0.18493,0.01677 -0.0675,-0.05387 -0.0718,-0.155116 -0.0189,-0.220564 0.0641,-0.07925 0.18353,-0.084 0.26051,-0.02108 0.0923,0.07543 0.0976,0.215217 0.0234,0.305012 -0.0881,0.106678 -0.25036,0.112508 -0.35432,0.02589 -0.12249,-0.102069 -0.1289,-0.289148 -0.0285,-0.408675 0.11746,-0.139796 0.33175,-0.146816 0.46833,-0.03118 0.15866,0.13433 0.16631,0.378342 0.034,0.53352 -0.15273,0.179146 -0.42911,0.187466 -0.6045,0.03697 -0.20133,-0.172747 -0.21034,-0.484234 -0.0401,-0.681522 0.19443,-0.22526 0.54389,-0.234991 0.76482,-0.04325 0.25102,0.217856 0.2615,0.608256 0.0466,0.854647 -0.24309,0.278677 -0.67752,0.28993 -0.95125,0.05002 -0.30829,-0.270195 -0.32035,-0.751844 -0.0536,-1.054868 0.29924,-0.339934 0.83143,-0.352819 1.16576,-0.05729 0.37367,0.330299 0.38741,0.916431 0.0611,1.284156 -0.36344,0.409567 -1.00705,0.424195 -1.41032,0.06505 -0.44769,-0.398707 -0.46323,-1.103452 -0.0691,-1.544482 0.43619,-0.488112 1.20582,-0.504594 1.68689,-0.0733 0.5309,0.475954 0.54835,1.314338 0.0776,1.837814 -0.51806,0.576107 -1.42918,0.594553 -1.99748,0.08205 -0.62381,-0.562577 -0.64328,-1.550526 -0.0866,-2.166126 0.60957,-0.674087 1.67855,-0.694608 2.34401,-0.09128 0.72699,0.659113 0.74859,1.813448 0.0961,2.531385 -0.71127,0.782592 -1.95538,0.805298 -2.72849,0.101013 -0.84095,-0.766098 -0.8648,-2.104538 -0.10606,-2.935564 0.82368,-0.902156 2.26109,-0.927158 3.15286,-0.111236 0.96626,0.884071 0.99245,2.425231 0.11654,3.380634 -0.94735,1.033315 -2.59713,1.060725 -3.61912,0.12195 -1.10341,-1.013565 -1.13207,-2.776959 -0.12749,-3.868563 1.0828,-1.176609 2.96491,-1.206536 4.12921,-0.133158 1.25298,1.15512 1.2842,3.161158 0.13895,4.401324 -1.23059,1.332572 -3.36588,1.365128 -4.68513,0.144859 -1.41548,-1.309272 -1.44939,-3.579261 -0.1509,-4.980887 1.39124,-1.501742 3.80148,-1.537037 5.28884,-0.157052 1.59145,1.476556 1.62815,4.032701 0.16333,5.609223 -1.56529,1.684655 -4.27312,1.722799 -5.94229,0.169737 -1.78144,-1.657512 -1.82105,-4.522914 -0.17627,-6.288301 1.75328,-1.881849 4.78226,-1.922953 6.64749,-0.182916 1.98596,1.852673 2.02859,5.051331 0.18968,7.020093 -1.95574,2.093858 -5.33031,2.138034 -7.40637,0.196587 -2.20558,-2.062578 -2.25134,-5.619389 -0.2036,-7.80657 2.17322,-2.321221 5.91873,-2.368578 8.22093,-0.21075 2.44082,2.287763 2.48981,6.228519 0.21801,8.649701 -2.40625,2.564475 -6.54893,2.615124 -9.09313,0.225406 -2.69222,-2.528765 -2.74456,-6.880156 -0.23291,-9.551458 2.65536,-2.824155 7.22236,-2.878207 10.02493,-0.240554 2.96033,2.78612 3.01612,7.575735 0.24832,10.51381 -2.9211,3.1008 -7.94045,3.158366 -11.01833,0.256196 -3.24565,-3.060366 -3.30502,-8.316688 -0.2642,-11.53873 3.20399,-3.394944 8.70463,-3.456134 12.07527,-0.27233 3.54874,3.35204 3.61179,9.104452 0.28058,12.628187 -3.50458,3.707126 -9.51634,3.772051 -13.19773,0.288957 -3.87015,-3.661677 -3.93699,-9.940457 -0.29746,-13.784152 3.8234,-4.037882 10.377,-4.106651 14.38769,-0.306076 4.21039,3.989814 4.28113,10.826138 0.31482,15.008595 -4.16099,4.387748 -11.28805,4.460474 -15.64711,0.323688 -4.57002,-4.336988 -4.64476,-11.76293 -0.33268,-16.303487 4.51788,-4.757262 12.25094,-4.834055 16.97797,-0.341793 4.94955,4.703738 5.02842,12.752267 0.35103,17.6708 -4.89462,5.146959 -13.26709,5.227929 -18.38223,0.360389 -5.34954,-5.090596 -5.43265,-13.795581 -0.36987,-19.112501 5.29173,-5.557378 14.33793,-5.642636 19.86186,-0.37948 5.77053,5.498104 5.85797,14.894309 0.38921,20.630565 -5.70977,5.989053 -15.4649,6.078711 -21.41885,0.399062 -6.21303,-5.926794 -6.30493,-16.049881 -0.40904,-22.22696 6.14926,-6.442523 16.64944,-6.53669 23.05515,-0.419137 6.6776,6.377207 6.77406,17.263734 0.42936,23.903657 -6.61072,6.918324 -17.89296,7.017111 -24.77273,0.439705 -7.16477,-6.849876 -7.26591,-18.537301 -0.45018,-25.662627 7.09473,-7.416992 19.19693,-7.52051 26.57358,-0.460765 7.67507,7.34534 7.781,19.872015 0.47148,27.505839 -7.60178,7.939066 -20.56275,8.047425 -28.45965,0.482319 -8.20905,-7.864135 -8.31987,-21.26931 -0.49328,-29.435267 8.13245,-8.485079 21.99187,-8.598391 30.43293,-0.504363 8.76723,8.406797 8.88306,22.73062 0.51557,31.452877 -8.68725,9.055572 -23.48573,9.173946 -32.49537,0.526902 -9.35016,-8.973865 -9.47111,-24.25738 -0.53836,-33.560644 9.26672,-9.651078 25.04576,-9.774625 34.64896,-0.549933 9.95837,9.565874 10.08455,25.851024 0.56163,35.760537 -9.8714,10.272136 -26.67338,10.400967 -36.89565,0.573456 -10.59241,-10.18336 -10.72393,-27.512984 -0.5854,-38.054525 10.50182,-10.9192818 28.37003,-11.0535081 39.23742,-0.597473 11.25281,10.826862 11.38977,29.244695 0.60967,40.444581 -11.15854,11.593053 -30.13716,11.732784 -41.67625,0.621982 -11.94009,-11.496914 -12.08262,-31.047591 -0.63442,-42.932675 11.84206,-12.2939839 31.97618,-12.4393316 44.2141,-0.646982 12.6548,12.194054 12.803,32.923105 0.65967,45.520776 -12.55296,13.022614 -33.88855,13.173688 -46.85295,0.672476 -13.39748,-12.91882 -13.55146,-34.872672 -0.68541,-48.210856 13.29173,-13.7794795 35.87568,-13.9363912 49.59476,-0.698463 14.16866,13.671748 14.32854,36.897725 0.71164,51.004886 -14.05894,14.565116 -37.93901,14.727976 -52.4415,0.724942 -14.96889,-14.453373 -15.13477,-38.999699 -0.73837,-53.9048353 14.85512,-15.3800615 40.07998,-15.5489798 55.39515,-0.7519142 15.79869,15.2642335 15.97068,41.1800265 0.76558,56.9126755 -15.68079,16.224852 -42.30002,16.399939 -58.45767,0.779379 -16.6586,-16.104867 -16.83682,-43.440143 -0.79329,-60.0303772 16.53651,-17.1000238 44.60057,-17.2813918 61.63104,-0.8073357 17.54917,16.9758079 17.73372,45.7814799 0.8215,63.2599099 -17.42281,18.006114 -46.98306,18.193873 -64.91723,0.835785 -18.47092,-17.877593 -18.66192,-48.205473 -0.8502,-66.6032451 18.34023,-18.9436599 49.44892,-19.1379199 68.31821,-0.8647277 19.4244,18.8107618 19.62195,50.7135568 0.87938,70.0623538 -19.28928,19.913198 -51.99958,20.11407 -71.83594,0.894163 -20.41013,-19.775849 -20.61435,-53.307164 -0.90906,-73.63920629 20.27053,-20.91526471 54.63648,-21.12285871 75.4724,-0.92409031 21.42866,20.7733916 21.63966,55.9877276 0.93924,77.3357726 -21.2845,21.950397 -57.36107,22.164824 -79.22957,0.95451 -22.48053,-21.803925 -22.69841,-58.756682 -0.9699,-81.1540233 22.33173,-23.0191317 60.17475,-23.2405027 83.1094,-0.9854233 23.56626,22.8679886 23.79115,61.6154636 1.00106,85.0959306 -23.41276,24.122007 -63.07899,24.350427 -87.11387,1.016828 -24.68641,-23.966118 -24.9184,-64.565503 -1.03272,-89.1634625 24.52813,-25.2595535 66.0752,-25.4951435 91.24496,-1.0487267 25.8415,25.0988492 26.08071,67.6082352 1.06486,93.3585922 -25.67836,26.432316 -69.16481,26.675176 -95.50462,1.081117 -27.03207,-26.266719 -27.27861,-70.745094 -1.0975,-97.683288 26.864,-27.640825 72.34927,-27.891078 99.89484,-1.114001 28.25865,27.470266 28.51264,73.977515 1.13063,102.139523 -28.08559,28.885625 -75.63001,29.143375 -104.41758,1.147377 -29.5218,-28.710025 -29.78334,-77.30693 -1.16425,-106.729266 29.34365,-30.16724 79.00845,-30.432598 109.07482,-1.181245 30.82202,29.986532 31.09122,80.734772 1.19836,111.454488 -30.63874,31.486221 -82.48605,31.759291 -113.86852,1.215606 -32.15988,-31.300326 -32.43686,-84.262478 -1.23297,-116.31716 31.97137,-32.843091 86.06423,-33.123996 118.80065,-1.25046 33.53591,32.6519428 33.82077,87.89148 1.26807,121.319252 -33.3421,34.238393 -89.74441,34.527243 -123.87319,1.285806 -34.95063,-34.041919 -35.24349,-91.6232111 -1.30366,-126.462734 34.75145,-35.672674 93.52804,-35.969569 129.08811,-1.321645 36.40459,35.4707902 36.70555,95.459106 1.33975,131.749576"
       sodipodi:t0="0"
       sodipodi:argument="-18.064157"
       sodipodi:radius="94.108391"
       sodipodi:revolution="37"
       sodipodi:expansion="3"
       sodipodi:cy="36.826122"
       sodipodi:cx="-279.81641"
       id="path832"
       style="fill:none;fill-opacity:1;fill-rule:evenodd;stroke:url(#linearGradient840);stroke-width:0.79374999;stroke-miterlimit:4;stroke-dasharray:0.396875, 0.39687499999999998;stroke-dashoffset:0;stroke-opacity:1"
       sodipodi:type="spiral" />
  </g>
</svg>
